<svg version="1.1" xmlns="http://www.w3.org/2000/svg" xmlns:xlink="http://www.w3.org/1999/xlink" width="134.86303" height="294.6308" viewBox="0,0,134.86303,294.6308"><g transform="translate(-95.70978,-107.07479)"><g stroke-miterlimit="10"><g stroke="#0a0908" stroke-width="1.5" stroke-linecap="butt"><path d="M211.66698,236.51211c-4.72869,-3.81293 -3.37304,-10.6047 -0.46207,-15.10026c2.91097,-4.49558 9.10416,-5.04898 13.83288,-1.23605c4.72871,3.81292 6.20228,10.54828 3.29133,15.04383c-2.91096,4.49556 -11.93336,5.1054 -16.66208,1.29247z" fill="#ffffff"/><path d="M165.68108,249.69162c-2.78274,-2.24382 -2.06766,-14.13378 10.15048,-21.3089c1.09996,-0.64594 14.15542,10.5766 15.24347,9.88842c9.45918,-5.98281 13.73282,-13.10553 15.69276,-14.84487c0.28352,-0.2516 0.56588,-0.49521 0.84719,-0.73061c0.35391,1.46225 0.78054,2.69608 1.30813,3.98651c0.36787,0.89977 -0.03409,2.19369 0.49432,2.98519c1.51239,1.83447 3.54211,3.09456 5.33674,4.54162c1.77476,1.43107 3.64684,2.70682 5.42891,4.14373c1.27132,1.02511 2.76573,1.70723 4.12234,2.65832c-0.0089,0.01381 -0.01784,0.02763 -0.02676,0.04142c-1.00581,1.55333 -4.76814,6.72418 -9.12016,11.29364c-4.9034,5.1484 -9.58813,8.20678 -16.26399,14.11544c-0.76419,0.67635 -7.20069,2.75189 -11.40306,1.29917c-10.42148,-3.60264 -21.81033,-18.06909 -21.81033,-18.06909z" fill="#ffd599"/><path d="M213.46833,235.70491c-4.00318,-4.21031 -7.25017,-10.42853 -6.65029,-11.35494c0.54079,-0.83513 2.46313,-3.34867 4.3516,-2.34916c1.47635,0.7814 4.40038,5.0135 7.19954,8.14594c1.94907,2.18114 5.61406,5.68511 5.82708,6.02271c1.84838,2.92924 0.54567,4.17932 -0.43649,5.69615c-0.65805,1.01628 -5.90005,-1.54206 -10.29146,-6.16067z" fill="#f2c07a"/></g><path d="M171.91218,225.4356c-0.68969,5.71237 -10.8913,9.225 -18.98264,8.80247c-2.72155,-0.14212 -15.90103,-0.93296 -17.78162,-1.95179c-3.71053,-2.01021 -5.67719,-5.45618 -5.47806,-9.2695c0.30006,-5.74604 8.58894,-9.98396 16.68031,-9.56143c8.09135,0.42253 26.68758,2.65789 25.56204,11.98026z" fill="#ffd599" stroke="#0a0908" stroke-width="1.5" stroke-linecap="butt"/><path d="M160.02785,321.24589c5.75458,-23.9106 24.06967,-22.30025 30.11476,-21.64562c2.1843,0.23654 2.91297,1.38672 2.49578,12.48406c-1.1485,30.55118 2.70393,48.84123 0.66034,79.34561c-0.42834,6.3939 -14.4063,7.10133 -21.87529,6.29254c-7.469,-0.80881 -12.38788,-0.99464 -11.95954,-7.38856c0.00544,-0.08118 0.32319,-2.38145 0.32356,-2.94914c0.00538,-7.95561 -1.02483,-60.88191 0.24038,-66.13889z" fill="#382f25" stroke="#0a0908" stroke-width="1.5" stroke-linecap="butt"/><path d="M154.84529,388.67789c-0.09002,6.21869 -9.63339,9.99062 -18.29834,9.8861c-8.66494,-0.10451 -18.82798,-3.27243 -18.73796,-9.49112c0.0495,-3.41847 4.01495,-64.32982 4.13362,-67.20176c0.65124,-15.75865 1.63389,-22.60675 4.93421,-22.56693c7.01304,0.08461 26.53926,0.39966 30.97928,24.14691c1.04585,5.59359 -2.99366,64.04129 -3.01082,65.22682z" fill="#382f25" stroke="#0a0908" stroke-width="1.5" stroke-linecap="butt"/><path d="M196.72866,392.58098c0.03599,4.81339 -0.07806,8.09164 -6.84895,8.00585c-16.63868,-0.2108 -27.1356,-1.38813 -27.17163,-6.2015c-0.01898,-2.53643 6.15042,-6.47158 10.29372,-8.39953c3.71948,-1.73073 9.69863,-4.09356 12.90183,-4.10936c0.21886,-0.00107 -0.03379,0.30032 0.17863,0.31238c6.35926,0.36122 10.61154,5.73437 10.64637,10.39219z" fill="#686664" stroke="#0a0908" stroke-width="1.5" stroke-linecap="butt"/><path d="M147.55349,400.9556c-18.62715,-0.26327 -29.92903,-3.29368 -29.97978,-8.48342c-0.02672,-2.73477 8.69881,-7.39734 13.33297,-9.46703c10.66649,-4.76383 24.12968,-1.07448 24.24169,10.38786c0,0 -0.01481,7.66975 -7.59489,7.5626z" fill="#686664" stroke="#0a0908" stroke-width="1.5" stroke-linecap="butt"/><path d="M192.21593,307.94587c-0.54156,11.27352 -14.64709,23.43852 -33.05794,22.55059c-18.41086,-0.88793 -36.52313,-17.60089 -36.02848,-31.64047c0.39739,-11.27895 18.32039,-13.81827 36.73123,-12.93034c18.41086,0.88793 32.89676,10.74672 32.35519,22.02024z" fill="#39322b" stroke="#0a0908" stroke-width="1.5" stroke-linecap="butt"/><path d="M191.19942,319.35773c-0.45463,9.46369 -15.89951,16.4084 -34.49715,15.51147c-18.59761,-0.89694 -33.30541,-9.29588 -32.85077,-18.75958c0.1978,-4.1173 0.08399,-16.00375 4.98168,-18.72916c6.35974,-3.53899 19.00896,2.71094 29.51548,3.21765c13.38996,0.64578 26.23439,-6.98848 31.3844,-0.9675c2.00294,2.34167 1.59368,17.07709 1.46637,19.72708z" fill="#382f25" stroke="none" stroke-width="0" stroke-linecap="butt"/><path d="M154.82007,335.56812l10.35864,-0.68493" fill="none" stroke="#0a0908" stroke-width="1.5" stroke-linecap="round"/><path d="M192.35419,306.45237c-0.36685,5.86015 -15.47824,10.29942 -35.38042,9.01287c-19.90219,-1.28654 -36.46207,-5.84515 -35.80925,-16.27316c0.22617,-3.61296 1.7802,-35.10273 10.99956,-58.69514c2.43004,-6.21849 4.21035,-11.56403 7.36753,-15.38385c4.29294,-5.19398 11.24167,-7.52923 18.23587,-7.68938c4.40619,-0.10088 13.4507,4.40242 17.8883,10.55056c8.19129,11.34872 8.25981,38.48284 8.25981,38.48284c0,0 8.60138,37.30774 8.46616,39.46761z" fill="#ffd599" stroke="#0a0908" stroke-width="1.5" stroke-linecap="butt"/><path d="M193.7839,312.08861c-0.07196,1.02088 -0.80565,1.3468 -1.46602,1.69987c-11.39963,6.09504 -40.85775,4.99764 -56.31886,1.49981c-8.33975,-1.88673 -13.05054,-4.1767 -14.64875,-6.11776c-1.42387,-1.72933 0.17166,-4.0605 0.18879,-4.30339c0.04428,-0.62795 7.03406,5.62305 44.80237,6.66912c15.84959,0.439 26.56295,-4.35362 26.85335,-4.45955c1.49724,-0.54624 0.66108,3.99101 0.58913,5.01186z" fill="#f2c07a" stroke="#0a0908" stroke-width="1.5" stroke-linecap="butt"/><g stroke="#0a0908" stroke-width="1.5" stroke-linecap="butt"><path d="M122.56661,310.70954c-1.16379,5.62306 -7.91293,8.57558 -15.0746,6.59465c-7.16169,-1.98093 -12.02395,-8.14518 -10.86015,-13.76824c1.16379,-5.62306 11.08923,-9.72801 18.25093,-7.74708c7.16169,1.98093 8.84763,9.2976 7.68384,14.92065z" fill="#ffffff"/><path d="M126.63483,306.97628c-0.20164,0.36139 -0.40583,0.71442 -0.61267,1.05875c-1.0941,-1.32511 -2.16219,-2.39359 -3.37143,-3.47959c-0.84316,-0.75721 -1.00169,-2.20678 -1.97526,-2.79357c-2.58217,-1.24851 -5.47761,-1.72227 -8.19562,-2.4741c-2.68791,-0.74346 -5.41234,-1.29396 -8.11131,-2.0405c-1.92539,-0.53258 -3.94076,-0.63576 -5.92766,-1.06128c0.00353,-0.01724 0.00704,-0.03452 0.01062,-0.05177c0.40211,-1.9429 2.20956,-8.57101 4.96978,-14.82619c9.78778,-22.18101 30.79912,-60.13275 39.89703,-57.61623c7.89248,2.18307 -13.34781,77.30627 -16.68354,83.28447z" fill="#ffd599"/><path d="M126.13992,306.07206c-0.21619,1.04463 -1.20063,4.30271 -3.81262,4.0348c-2.04198,-0.20943 -7.3593,-3.30867 -12.01377,-5.35663c-3.24092,-1.426 -9.05182,-3.51008 -9.4531,-3.76513c-3.48169,-2.21307 -2.59965,-3.9678 -2.20698,-5.86501c0.26309,-1.27114 7.41093,-0.74359 14.57281,2.17369c6.52872,2.65937 13.15352,7.6195 12.9137,8.77828z" fill="#f2c07a"/></g><path d="M150.32508,235.53419c0.01226,7.42905 -4.85751,13.85323 -7.65775,13.85785c-2.80025,0.00461 -4.58368,-6.40858 -4.59594,-13.83764c-0.00675,-4.09749 0.92703,-7.37496 2.01216,-9.84395c0.8823,-2.00747 3.89328,-3.6173 5.14905,-3.61937c2.80025,-0.00461 5.08021,6.01407 5.09246,13.44311z" fill="#ffd599" stroke="none" stroke-width="0" stroke-linecap="butt"/><path d="M183.79819,239.96428c2.47779,5.01927 3.9298,11.88464 2.45949,12.69959c-1.47032,0.81498 -4.98854,-3.66118 -7.46632,-8.68047c-2.4778,-5.01927 -5.04792,-14.30847 -3.57759,-15.12343c1.47032,-0.81498 6.10664,6.08502 8.58443,11.1043z" fill="#ffd599" stroke="none" stroke-width="0" stroke-linecap="butt"/><path d="M175.10174,226.4744c-0.33894,3.39368 -5.55017,7.69027 -14.20382,6.83777c-9.92473,-0.97772 -16.7874,-7.21546 -16.44846,-10.60913c0.33894,-3.39368 7.62424,-5.40626 16.2722,-4.4952c8.64798,0.91105 14.719,4.87289 14.38006,8.26657z" fill="#f2c07a" stroke="#0a0908" stroke-width="1.5" stroke-linecap="butt"/><path d="M171.45625,242.95043c0.29026,1.61701 0.7793,3.73182 -0.83363,5.04356c-2.46326,2.00332 -2.77679,-6.48343 -2.34895,-8.75801c0.14632,-0.77793 -1.49366,-9.02809 -0.16759,-10.133c0.26973,-0.64713 2.65694,-0.88621 2.63227,0.32859c-0.00314,0.15486 0.07407,1.10629 0.05068,1.25198c0.80136,2.30972 0.51584,11.4236 0.66721,12.26687z" fill="#969696" stroke="#434242" stroke-width="1" stroke-linecap="butt"/><path d="M162.13192,240.8813c-0.27331,0.99561 -1.02675,3.39562 -0.95908,4.35168c0.12974,1.83332 0.93313,5.62876 -1.0476,6.90503c-3.02499,1.94908 -2.34065,-7.53478 -1.57958,-10.0182c0.26031,-0.84937 0.40447,-1.59999 0.62355,-2.53694c0.33878,-1.44878 -1.20486,-7.6843 0.42685,-8.76303c0.38356,-0.68965 3.10693,-0.68337 2.93048,0.66623c-0.02249,0.17203 -0.05175,1.24003 -0.09595,1.39959c0.62183,2.66281 0.21232,6.13431 -0.29866,7.99563z" fill="#969696" stroke="#434242" stroke-width="1" stroke-linecap="butt"/><path d="M169.1398,225.0312c-0.03819,0.73119 -2.92302,3.77695 -8.05263,3.50908c-5.12959,-0.26788 -10.56149,-3.74792 -10.52331,-4.47913c0.03819,-0.73119 -0.90512,-6.96366 4.20315,-7.21485c18.33034,-0.90137 14.41098,7.45372 14.37279,8.1849z" fill="#ffffff" stroke="#0a0908" stroke-width="1.5" stroke-linecap="butt"/><path d="M206.04,159.04167c-0.02785,0.39589 0.3609,2.38279 0.63461,5.54648c0.7507,8.67683 0.49899,24.83877 -10.83781,30.96857c-0.19394,0.10485 -3.99423,6.24336 -8.47559,6.74177c-3.09121,0.34379 -8.19606,5.02074 -13.49652,5.74949c-8.12641,1.1173 -16.42975,-1.68294 -16.42975,-1.68294c0,0 -10.43936,2.13519 -15.02314,2.08179c-8.11544,-0.09452 -16.49329,-5.349 -16.61924,-5.24158c-0.36897,0.31469 -2.0905,0.12946 -3.35186,-0.91926c-1.28784,-1.0707 -2.11549,-3.00718 -2.44934,-2.85364c-1.1856,0.5453 -5.91656,-2.31549 -8.89414,-9.84711c-1.78904,-4.52526 0.07423,-9.94089 -0.12053,-10.63684c-5.90741,-21.11278 -0.16135,-33.01261 9.87272,-43.66729c1.0441,-1.10869 1.98329,-7.18049 9.06905,-13.4978c8.42662,-7.51273 15.78376,-4.07524 15.78376,-4.07524c0,0 7.14243,-7.49527 19.48937,-6.85049c9.02091,0.47108 16.85999,4.63475 20.63475,10.34058c0.37286,0.56361 3.01566,0.27783 4.85983,1.07739c6.34793,2.75216 17.2334,10.05089 15.3538,36.76613z" fill="#0a0907" stroke="none" stroke-width="0" stroke-linecap="butt"/><path d="M196.65641,182.36227c0.43009,6.32987 0.18186,17.28719 -0.07234,18.58541c-2.68931,13.73468 -14.11,22.32828 -33.54134,21.89329c-21.02738,-0.47072 -36.55711,-14.00017 -36.18061,-30.81886c0.37651,-16.81869 5.79558,-37.38428 32.06676,-38.44894c34.8659,-1.41298 36.96265,26.31033 37.10718,28.43739z" fill="#ffffff" stroke="#000000" stroke-width="1.5" stroke-linecap="butt"/><path d="M207.11988,156.31778c-0.02359,0.40472 0.3978,2.42957 0.71612,5.65782c0.87299,8.854 2.00404,22.22216 -9.50124,28.62231c-0.98912,0.55022 -0.82932,1.67658 -1.48155,-0.42772c-0.71085,-2.29338 -2.24482,-5.49173 -3.0508,-8.41983c-1.13729,-4.13161 -1.45684,-7.75053 -1.45684,-7.75053c0,0 -4.22877,-2.4256 -5.98596,-3.78309c-1.85863,-1.43591 -5.43049,-6.76044 -5.43049,-6.76044c0,0 -10.54183,0.2082 -14.86684,-0.23147c-3.36915,-0.34252 -9.17737,-1.55986 -9.17737,-1.55986c0,0 -4.77129,3.09179 -7.65619,4.28152c-3.17499,1.30933 -10.36892,2.62128 -10.36892,2.62128c0,0 -1.27478,6.24029 -3.06082,10.29656c-1.50665,3.42181 -3.399,4.30672 -4.9762,8.50432c-1.25189,3.3318 -0.34747,6.50619 -1.15903,9.17442c-0.94614,3.11068 -3.53485,5.48468 -3.97439,5.86874c-0.37304,0.32595 -2.13381,0.15782 -3.43512,-0.89797c-1.3286,-1.07794 -2.19772,-3.04589 -2.53685,-2.88495c-1.20438,0.57153 -6.07197,-2.29283 -9.20564,-9.94975c-1.88284,-4.60058 -0.54543,-10.17539 -0.75287,-10.8839c-4.27416,-21.91317 1.90912,-33.11959 9.49014,-43.22715c1.05295,-1.14527 0.43923,-7.41925 7.59988,-13.95895c8.51566,-7.7772 18.13156,-5.77434 18.13156,-5.77434c0,0 7.20412,-7.74364 19.82412,-7.2361c9.22043,0.3708 17.27884,4.52797 21.20446,10.31017c0.38777,0.57115 3.08383,0.2469 4.97738,1.04105c6.51793,2.73361 17.7265,10.05587 16.13345,37.36787z" fill="#0a0907" stroke="#000000" stroke-width="1" stroke-linecap="butt"/><path d="M164.50511,192.79072c-0.42974,8.22923 -6.89872,13.76425 -15.54598,13.1494c-7.9951,-0.56849 -13.8347,-6.59642 -13.2691,-14.81743c0.67762,-9.84917 7.08708,-14.2443 15.09146,-13.8263c8.00438,0.418 14.15334,7.2651 13.7236,15.49433z" fill="#ffffff" stroke="#000000" stroke-width="1.5" stroke-linecap="butt"/><path d="M183.24994,177.55126c6.54513,0.34179 11.3479,5.13909 10.98625,14.62158c-0.30187,7.91496 -5.60706,13.13903 -12.15861,12.94205c-7.08593,-0.21307 -11.83148,-6.10608 -11.41841,-14.0163c0.41308,-7.91022 6.04563,-13.8891 12.59077,-13.5473z" fill="#ffffff" stroke="#000000" stroke-width="1.5" stroke-linecap="butt"/><path d="M159.93065,193.13397c-0.1309,2.50654 -1.6273,4.46593 -3.34231,4.37636c-1.715,-0.08956 -2.9992,-2.19413 -2.86831,-4.70069c0.1309,-2.50654 1.6273,-4.46593 3.34231,-4.37636c1.715,0.08956 2.9992,2.19413 2.86831,4.70069z" fill="#000000" stroke="#000000" stroke-width="1.5" stroke-linecap="butt"/><path d="M177.22226,193.53879c-0.1309,2.50654 -1.52035,4.47151 -3.10344,4.38884c-1.58309,-0.08267 -2.76034,-2.18166 -2.62944,-4.68821c0.1309,-2.50654 1.52035,-4.47151 3.10344,-4.38884c1.58309,0.08267 2.76034,2.18165 2.62944,4.68821z" fill="#000000" stroke="#000000" stroke-width="1.5" stroke-linecap="butt"/><g stroke="#0a0908" stroke-linecap="butt"><path d="M182.88483,163.3715c0.00062,0.23685 -0.6116,2.66224 -0.50901,5.09102c0.11721,2.77481 2.15336,5.90708 -0.03572,7.41721c-5.58908,3.85565 -19.73183,1.55517 -24.07888,1.39906c-4.00301,-0.14374 -3.1891,-3.946 -2.78466,-7.7054c0.35734,-3.32165 0.1053,-6.62026 0.10383,-7.18234c-0.00311,-1.19826 6.10667,-1.95012 13.64657,-1.67939c7.53991,0.27073 13.65475,1.46161 13.65785,2.65982z" fill="#ffbc6f" stroke-width="1.5"/><path d="M157.52978,164.30134c0.00203,-0.77015 0.72981,-0.74656 0.72981,-0.74656l0.24987,0.01038c6.1918,0.71036 6.99362,11.50368 0.3673,11.34051c0,0 -0.00332,-0.00009 -0.00941,-0.00053c-0.10483,0.07806 -0.24805,0.12914 -0.44379,0.12277c-0.72777,-0.02362 -0.72576,-0.79378 -0.72576,-0.79378l0.0007,-0.2738c0.00789,-3.00291 0.13517,-6.00109 0.15245,-8.99801c-0.16703,-0.10836 -0.32213,-0.30486 -0.32119,-0.66095zM159.15736,173.36784c4.11525,-0.10534 3.66123,-6.67964 0.14609,-8.04732c-0.02446,2.68082 -0.12534,5.36181 -0.14609,8.04732z" fill="#0a0908" stroke-width="0.5"/><path d="M168.22688,164.45005c0.65825,-0.13589 0.78537,0.64699 0.78537,0.64699l0.06977,0.51101c-0.008,1.42313 -0.01569,2.84623 -0.0246,4.2693c-0.10717,1.36547 -0.18365,3.58004 -1.16076,4.49746c-1.19494,1.12184 -2.81388,0.40489 -3.41619,-1.16153c-0.83915,-2.18233 -0.20575,-5.95332 -0.19245,-8.31519c0,0 0.00448,-0.7943 0.67489,-0.77401c0.6704,0.02029 0.66595,0.81459 0.66595,0.81459c-0.01206,2.14204 -0.62633,5.66481 0.07528,7.65237c1.01383,2.87198 1.96275,-2.11881 2.01399,-2.82022c0.00689,-1.40112 0.01519,-2.80221 0.02306,-4.20331l-0.04547,-0.19864c0,0 -0.12708,-0.78287 0.53119,-0.91872z" fill="#0a0908" stroke-width="0.5"/><path d="M170.24221,174.09206c-0.70925,-0.01989 -0.70157,-0.91383 -0.70157,-0.91383l0.00139,-0.15892c0.0306,-2.79929 0.17478,-5.4817 0.78094,-8.16192c0,0 0.17078,-0.75457 0.7553,-0.63777c0.44291,0.01364 0.60531,0.36889 0.66485,0.63233c0.49624,0.89174 0.8011,1.89185 1.15873,2.87289c0.34871,-1.04969 0.5958,-2.18649 0.91033,-3.23747c0,0 0.24958,-0.83337 0.91351,-0.5092c0.01494,0.00728 0.02939,0.01481 0.04342,0.02262c0.5701,-0.04774 0.71149,0.70148 0.71149,0.70148l0.07255,0.4009c0.30469,2.73985 0.41624,5.72126 -0.1343,8.37709c0,0 -0.17946,0.8625 -0.86567,0.62639c-0.68622,-0.23606 -0.50678,-1.09856 -0.50678,-1.09856c0.30671,-1.46798 0.09774,-3.0719 0.17895,-4.65432c-0.14575,0.45251 -0.30628,0.89426 -0.49238,1.31636l-0.25502,0.34527c-0.05319,0.10088 -0.13175,0.19819 -0.24457,0.28491c-0.17396,0.13376 -0.3289,0.16512 -0.46129,0.14206c-0.13258,-0.02107 -0.27673,-0.10225 -0.41997,-0.28885c-0.08,-0.10419 -0.13389,-0.20766 -0.16809,-0.30793c-0.36026,-0.78098 -0.61349,-1.64392 -0.91211,-2.46447c-0.34161,1.85843 -0.30009,3.73965 -0.31138,5.67801l-0.00137,0.1589c0,0 -0.00766,0.89399 -0.71691,0.87412z" fill="#0a0908" stroke-width="0.5"/><path d="M181.03926,173.27255c0.01286,0.84334 -0.57746,0.83304 -0.57746,0.83304l-0.21713,-0.00626c-0.89269,0.08193 -3.38143,0.69874 -3.78257,-1.01253c-0.11446,-0.48836 0.26528,-0.93367 0.39696,-1.40109c0.24004,-0.85198 1.28612,-3.91945 2.11709,-5.07979c-0.6797,-0.04545 -1.35842,-0.04414 -2.03933,-0.05601c0,0 -0.59031,-0.01026 -0.60319,-0.85359c-0.01286,-0.84334 0.57747,-0.83307 0.57747,-0.83307c0.94622,0.01645 1.88342,0.01934 2.82904,0.13615l0.05181,0.04491l0.00461,-0.0262l0.56819,0.22989c0.25832,0.09577 0.45378,0.43088 0.45984,0.82622c0.00441,0.29005 -0.09417,0.54411 -0.24793,0.69316l-0.38514,0.38431c-0.59444,1.226 -1.12743,2.48264 -1.69643,3.76257c-0.18799,0.42287 -0.35565,1.28898 -0.66554,1.65044c0.11922,-0.05514 0.25012,-0.10451 0.32679,-0.10979c0.65788,-0.04523 1.31295,0.0228 1.97209,-0.03888l0.30761,0.00287c0,0 0.59031,0.01026 0.60319,0.85359z" fill="#0a0908" stroke-width="0.5"/></g><path d="M189.65892,302.64385c-0.05512,1.05541 -4.36428,5.08845 -23.95487,4.49756c-24.23548,-0.73097 -25.69729,-4.75473 -25.64219,-5.81012c0.04505,-0.86262 5.3521,-15.24098 9.4856,-19.20921c1.85596,-1.78174 14.55788,-1.42601 17.06217,-1.29524c1.91594,0.10005 12.75464,0.81571 14.48804,1.56621c2.90667,1.25848 8.59571,19.59021 8.56122,20.25078z" fill="#f2c07a" stroke-opacity="0.5098" stroke="#000000" stroke-width="1.5" stroke-linecap="butt"/><path d="M181.4424,216.77341c0,0 -6.9778,4.11788 -24.32365,2.29771c-10.24553,-1.07511 -9.75942,-4.24404 -9.75942,-4.24404" fill="#000000" stroke="#000000" stroke-width="1.5" stroke-linecap="round"/></g></g></svg>