<svg version="1.1" xmlns="http://www.w3.org/2000/svg" xmlns:xlink="http://www.w3.org/1999/xlink" width="230.10111" height="299.26337" viewBox="0,0,230.10111,299.26337"><g transform="translate(-118.28343,-103.23215)"><g stroke-miterlimit="10"><g stroke="#0a0908" stroke-width="1.5" stroke-linecap="butt"><path d="M237.36743,248.12133c-3.0168,5.00162 -10.73785,6.98625 -14.30024,3.50574c-3.56238,-3.48051 -4.00468,-10.35663 -0.98789,-15.35824c3.0168,-5.00162 8.3503,-6.23471 11.91271,-2.75418c3.56241,3.48051 6.39226,9.60506 3.37548,14.60667z" fill="#ffffff"/><path d="M279.23037,247.66019c0,0 -5.94917,17.11062 -13.79414,23.53173c-3.16342,2.58925 -9.08036,2.4325 -9.89001,2.00176c-7.073,-3.76301 -11.76529,-5.36075 -17.16187,-8.8997c-4.78974,-3.141 -9.23465,-7.0264 -10.46555,-8.22901c-0.01092,-0.01067 -0.02186,-0.02138 -0.03277,-0.03208c0.90107,-1.29802 1.98477,-2.37745 2.79584,-3.72214c1.13693,-1.88488 2.38952,-3.64091 3.52177,-5.51811c1.14493,-1.89819 2.53367,-3.68409 3.34528,-5.87328c0.24605,-0.9092 -0.41362,-2.03509 -0.32924,-3.00236c0.12102,-1.38724 0.17144,-2.69148 0.10394,-4.19397c0.29466,0.14555 0.59225,0.29867 0.8928,0.45912c2.07769,1.10921 7.43797,6.72008 16.86443,9.76159c1.08428,0.34986 14.49001,-18.37573 15.57376,-18.06976c12.03814,3.39882 10.35112,18.84289 8.5758,21.78623z" fill="#ffd599"/><path d="M235.65516,247.86051c-2.53304,5.67789 -6.29309,9.62303 -7.09841,8.83621c-1.20196,-1.17435 -2.60636,-2.00172 -1.78571,-5.33603c0.09457,-0.38428 2.29599,-4.78682 3.38754,-7.43268c1.56764,-3.79984 2.96599,-8.68937 4.0098,-9.85883c1.33518,-1.49589 3.57427,0.36618 4.23607,1.01274c0.73412,0.71723 -0.44021,7.60262 -2.74931,12.77857z" fill="#f2c07a"/></g><path d="M276.85406,220.98897c-0.6008,-9.37084 18.09155,-10.55945 26.19386,-10.5274c8.10233,0.03205 16.14042,4.7283 16.11766,10.48212c-0.01511,3.81849 -2.17198,7.1487 -5.98944,8.94759c-1.93478,0.91173 -15.13787,0.96197 -17.86311,0.95119c-8.1023,-0.03205 -18.09079,-4.11144 -18.45894,-9.85351z" fill="#ffd599" stroke="#0a0908" stroke-width="1.5" stroke-linecap="butt"/><path d="M283.34489,317.31507c0.96831,5.31968 -3.02938,58.10484 -3.47031,66.04822c-0.03147,0.56682 0.15673,2.88129 0.15761,2.96265c0.06897,6.40788 -4.85259,6.31748 -12.3552,6.70601c-7.5026,0.38851 -21.41886,-1.10195 -21.48784,-7.50981c-0.32911,-30.57098 4.5433,-48.61611 5.11049,-79.18361c0.20601,-11.10327 0.99806,-12.21076 3.19219,-12.32439c6.07229,-0.31448 24.44888,-0.89484 28.85304,23.30093z" fill="#382f25" stroke="#0a0908" stroke-width="1.5" stroke-linecap="butt"/><path d="M284.73643,384.93164c0.04937,-1.18463 -0.70494,-59.7669 0.65306,-65.29301c5.76522,-23.46078 25.27837,-22.67994 32.28511,-22.37099c3.29735,0.14539 3.89429,7.03783 3.66046,22.8082c-0.04262,2.87407 0.49953,63.91196 0.35718,67.32782c-0.25898,6.21395 -10.58373,8.80675 -19.24089,8.425c-8.65717,-0.38174 -17.97391,-4.6831 -17.71493,-10.89705z" fill="#382f25" stroke="#0a0908" stroke-width="1.5" stroke-linecap="butt"/><path d="M119.03343,390.47898c0.29607,-4.64853 4.84308,-9.77468 11.21259,-9.77858c0.21276,-0.00013 -0.02259,-0.31522 0.19587,-0.30187c3.19727,0.19548 9.03445,2.89001 12.65098,4.82667c4.02862,2.15735 9.96755,6.4324 9.80631,8.96377c-0.306,4.80377 -10.85244,5.39038 -27.47674,4.66744c-6.76504,-0.29418 -6.69501,-3.57367 -6.38905,-8.37746z" fill="#686664" stroke="#0a0908" stroke-width="1.5" stroke-linecap="butt"/><path d="M167.66133,401.59906c-7.57416,-0.31825 -7.15868,-7.97675 -7.15868,-7.97675c0.75486,-11.438 14.40381,-14.36627 24.78626,-9.01157c4.51075,2.3264 12.96098,7.47112 12.78088,10.20008c-0.34181,5.17872 -11.79589,7.57033 -30.40848,6.78823z" fill="#686664" stroke="#0a0908" stroke-width="1.5" stroke-linecap="butt"/><path d="M251.95358,302.23031c0.09172,-11.28615 15.10787,-20.31677 33.53955,-20.17048c18.43166,0.14629 36.18398,3.68707 35.94801,14.97055c-0.29373,14.04522 -19.31505,29.71578 -37.74673,29.56949c-18.43167,-0.1463 -31.83254,-13.08344 -31.74082,-24.36959z" fill="#39322b" stroke="#0a0908" stroke-width="1.5" stroke-linecap="butt"/><path d="M252.3283,313.68115c0.02156,-2.65296 0.43958,-17.38813 2.57073,-19.61375c5.47967,-5.72259 17.8756,2.6202 31.2807,2.7266c10.5184,0.08349 23.49832,-5.44699 29.64951,-1.5568c4.73708,2.99587 3.95664,14.85722 3.92315,18.97913c-0.07698,9.4743 -15.23279,17.03493 -33.85143,16.88715c-18.61867,-0.14779 -33.64964,-7.948 -33.57265,-17.42229z" fill="#382f25" stroke="none" stroke-width="0" stroke-linecap="butt"/><path d="M287.74099,331.90689l-10.3039,-1.26496" fill="none" stroke="#0a0908" stroke-width="1.5" stroke-linecap="round"/><path d="M251.90142,300.20301c-0.01384,-2.16406 10.66691,-38.93052 10.66691,-38.93052c0,0 1.5906,-27.08754 10.40564,-37.95887c4.77551,-5.88951 14.05841,-9.87833 18.452,-9.53043c6.9742,0.55226 13.78099,3.27365 17.77579,8.70028c2.93792,3.99092 4.41555,9.42791 6.49291,15.77293c7.88133,24.07245 7.66638,55.59981 7.68951,59.21977c0.0668,10.44821 -16.72274,14.07065 -36.66576,14.23868c-19.94301,0.16804 -34.78156,-5.11197 -34.81909,-10.98347z" fill="#ffd599" stroke="#0a0908" stroke-width="1.5" stroke-linecap="butt"/><path d="M250.15567,306.27849c-0.01457,-1.02328 -0.59488,-5.60029 0.86936,-4.97092c0.284,0.12206 10.71163,5.50814 26.56089,5.95897c37.76752,1.07433 45.09697,-4.77471 45.10595,-4.14526c0.00348,0.24346 1.46572,2.66047 -0.05292,4.3072c-1.70458,1.84835 -6.53642,3.87044 -14.96888,5.28635c-15.63298,2.62497 -45.10628,2.06808 -56.14603,-4.65687c-0.63952,-0.38955 -1.35377,-0.75612 -1.36835,-1.77943z" fill="#f2c07a" stroke="#0a0908" stroke-width="1.5" stroke-linecap="butt"/><g stroke="#0a0908" stroke-width="1.5" stroke-linecap="butt"><path d="M321.33817,308.89682c-0.84651,-5.67948 1.24723,-12.89005 8.50877,-14.4661c7.26155,-1.57605 16.94108,3.07924 17.78759,8.75873c0.84652,5.6795 -4.35389,11.56127 -11.61543,13.13732c-7.26152,1.57605 -13.8344,-1.75044 -14.68091,-7.42993z" fill="#ffffff"/><path d="M317.48588,304.94123c-2.99511,-6.15591 -19.98763,-82.35237 -11.98511,-84.08924c9.22475,-2.00218 28.07396,37.06851 36.602,59.76367c2.40496,6.40017 3.83774,13.11924 4.13022,15.08164c0.00261,0.01742 0.00514,0.03487 0.0077,0.05228c-2.00764,0.31338 -4.02562,0.30334 -5.97786,0.72707c-2.7366,0.59395 -5.48763,0.99075 -8.21301,1.58225c-2.75591,0.59817 -5.67337,0.90875 -8.32151,2.01044c-1.00496,0.53125 -1.24456,1.96964 -2.12887,2.67836c-1.26826,1.01646 -2.39461,2.02333 -3.56132,3.28498c-0.1872,-0.35539 -0.37126,-0.71932 -0.55231,-1.09145z" fill="#ffd599"/><path d="M318.03063,304.06619c-0.17444,-1.17041 6.71818,-5.75108 13.38581,-8.04001c7.31426,-2.51091 14.48043,-2.63665 14.6718,-1.35275c0.28562,1.91626 1.06784,3.7177 -2.53252,5.73197c-0.41495,0.23213 -6.33362,1.98695 -9.64943,3.22889c-4.76203,1.78363 -10.24484,4.57969 -12.29535,4.67424c-2.62291,0.12096 -3.42302,-3.18722 -3.58027,-4.24233z" fill="#f2c07a"/></g><path d="M297.8407,232.28266c0.42899,-7.41665 3.043,-13.29795 5.83858,-13.13626c1.25368,0.07252 4.16961,1.84873 4.9379,3.90253c0.94492,2.52598 1.69336,5.85067 1.45676,9.94133c-0.429,7.41667 -2.5694,13.71971 -5.36498,13.55802c-2.79557,-0.16171 -7.29728,-6.84896 -6.86828,-14.26562z" fill="#ffd599" stroke="none" stroke-width="0" stroke-linecap="butt"/><path d="M264.17175,234.82796c2.75546,-4.87238 7.77156,-11.50142 9.19385,-10.60524c1.4223,0.89616 -1.66489,10.02656 -4.42036,14.89892c-2.75546,4.87239 -6.51924,9.14413 -7.94153,8.24795c-1.42227,-0.89615 0.41259,-7.66926 3.16805,-12.54162z" fill="#ffd599" stroke="none" stroke-width="0" stroke-linecap="butt"/><path d="M273.6113,221.84721c-0.14802,-3.40735 6.13569,-7.02238 14.82116,-7.44685c8.68545,-0.42449 15.84637,1.99362 15.9944,5.40097c0.14802,3.40733 -7.05377,9.25026 -17.01772,9.66968c-8.68784,0.3657 -13.64983,-4.21647 -13.79786,-7.62382z" fill="#f2c07a" stroke="#0a0908" stroke-width="1.5" stroke-linecap="butt"/><path d="M277.68107,226.29167c-0.01518,-0.14678 0.11528,-1.09238 0.12083,-1.24717c0.04352,-1.21428 2.41356,-0.84165 2.64656,-0.18041c1.262,1.17756 -0.83822,9.32273 -0.73577,10.10764c0.29957,2.29499 -0.48956,10.75079 -2.83656,8.61244c-1.5368,-1.40015 -0.9299,-3.4842 -0.54938,-5.08238c0.19844,-0.83345 0.42465,-9.94899 1.35432,-12.21012z" fill="#969696" stroke="#434242" stroke-width="1" stroke-linecap="butt"/><path d="M285.75246,236.95898c-0.40575,-1.88705 -0.61987,-5.37606 0.15036,-7.99979c-0.03518,-0.16179 -0.00448,-1.22975 -0.01728,-1.40277c-0.10046,-1.35737 2.61897,-1.21086 2.96324,-0.50078c1.56862,1.16857 -0.32239,7.30768 -0.06542,8.77318c0.16617,0.94777 0.268,1.70529 0.48025,2.56793c0.62056,2.5222 0.77179,12.02952 -2.1391,9.91381c-1.90602,-1.38538 -0.89097,-5.12978 -0.65859,-6.95293c0.12119,-0.95076 -0.49642,-3.38926 -0.71345,-4.39863z" fill="#969696" stroke="#434242" stroke-width="1" stroke-linecap="butt"/><path d="M279.64478,220.74073c0.00289,-0.73218 -3.44159,-9.29398 14.80932,-7.36572c5.08614,0.53736 3.79468,6.7071 3.79179,7.43928c-0.0029,0.7322 -5.62147,3.90204 -10.75801,3.88173c-5.13656,-0.02032 -7.84598,-3.22312 -7.84309,-3.9553z" fill="#ffffff" stroke="#0a0908" stroke-width="1.5" stroke-linecap="butt"/><path d="M246.50465,152.78505c-0.37794,-26.77861 10.89983,-33.45519 17.39216,-35.8469c1.88612,-0.69484 4.50873,-0.26125 4.91262,-0.80306c4.08891,-5.48508 12.14922,-9.20243 21.18235,-9.16671c12.36366,0.04888 19.07437,7.93303 19.07437,7.93303c0,0 7.53839,-3.01935 15.53029,4.95427c6.72021,6.70487 7.3173,12.81979 8.29756,13.98531c9.42055,11.2008 14.49,23.40424 7.40749,44.15237c-0.23349,0.68393 1.32303,6.19556 -0.71705,10.61333c-3.3954,7.35272 -8.2794,9.9436 -9.43254,9.33265c-0.32471,-0.17203 -1.25969,1.71497 -2.60557,2.71174c-1.3182,0.97631 -3.04741,1.06467 -3.39815,0.72978c-0.11972,-0.11431 -8.77915,4.6619 -16.88711,4.30101c-4.57956,-0.20383 -14.8827,-2.92129 -14.8827,-2.92129c0,0 -8.44736,2.33002 -16.49829,0.7586c-5.25123,-1.02495 -10.08567,-5.98091 -13.15273,-6.49757c-4.44634,-0.74902 -7.89629,-7.09106 -8.08404,-7.20662c-10.97507,-6.75613 -10.31972,-22.90674 -9.08344,-31.52779c0.45076,-3.14335 0.95036,-5.10531 0.94476,-5.50214z" fill="#0a0907" stroke="none" stroke-width="0" stroke-linecap="butt"/><path d="M255.20429,176.27898c0.26363,-2.1156 3.91232,-29.67763 38.64405,-26.31094c26.17008,2.53677 30.42691,23.37397 29.85932,40.1873c-0.5676,16.81333 -16.83186,29.45027 -37.85253,28.74064c-19.42514,-0.65577 -30.34575,-9.87652 -32.26033,-23.74044c-0.18097,-1.31044 0.18588,-12.26443 0.97039,-18.5602z" fill="#ffffff" stroke="#000000" stroke-width="1.5" stroke-linecap="butt"/><path d="M245.57927,150.00492c-0.05838,-27.35836 11.54331,-34.0403 18.20433,-36.40396c1.93512,-0.68668 4.60874,-0.21169 5.02794,-0.76019c4.24382,-5.55287 12.52275,-9.25143 21.74946,-9.10439c12.6286,0.20122 19.38697,8.33681 19.38697,8.33681c0,0 9.71311,-1.46027 17.77907,6.7824c6.7825,6.9311 5.81779,13.16077 6.80483,14.36331c7.00206,10.51693 12.54694,22.05257 7.05021,43.69146c-0.24686,0.69576 0.7757,6.33682 -1.36226,10.82453c-3.55828,7.46907 -8.57889,10.05585 -9.74931,9.41766c-0.32957,-0.17971 -1.30772,1.73638 -2.6947,2.73809c-1.35849,0.98113 -3.12592,1.05021 -3.48009,0.70385c-0.4173,-0.40812 -2.86876,-2.9236 -3.6389,-6.08246c-0.6606,-2.70955 0.42048,-5.82821 -0.64253,-9.22499c-1.33923,-4.27947 -3.17896,-5.26915 -4.49128,-8.77009c-1.55568,-4.15007 -2.47838,-10.45205 -2.47838,-10.45205c0,0 -7.109,-1.71346 -10.20554,-3.19884c-2.81362,-1.3497 -7.40395,-4.70428 -7.40395,-4.70428c0,0 -5.86736,0.88958 -9.25042,1.04256c-4.34286,0.19635 -14.85641,-0.60291 -14.85641,-0.60291c0,0 -3.86493,5.11577 -5.80119,6.44515c-1.83058,1.25678 -6.18876,3.44133 -6.18876,3.44133c0,0 -0.52206,3.5953 -1.88934,7.6566c-0.96898,2.87827 -2.67995,5.98553 -3.51834,8.23542c-0.76925,2.06439 -0.54651,0.94877 -1.50321,0.34393c-11.12812,-7.0355 -9.24891,-20.31916 -7.8806,-29.11024c0.49892,-3.20531 1.03324,-5.20333 1.03239,-5.60874z" fill="#0a0907" stroke="#000000" stroke-width="1" stroke-linecap="butt"/><path d="M286.08085,188.81101c0.03259,-8.24038 6.55598,-14.73174 14.5712,-14.70005c8.01523,0.0317 14.16803,4.77947 14.29206,14.65114c0.10352,8.2398 -6.06504,13.93064 -14.07944,14.04972c-8.66813,0.12878 -14.81642,-5.76042 -14.78383,-14.0008z" fill="#ffffff" stroke="#000000" stroke-width="1.5" stroke-linecap="butt"/><path d="M268.22044,172.54402c6.55401,0.02591 11.84228,6.31135 11.81096,14.23229c-0.03134,7.92094 -5.10001,13.53845 -12.18673,13.35367c-6.55228,-0.17086 -11.55605,-5.68432 -11.41343,-13.60375c0.17087,-9.48785 5.2352,-14.00816 11.7892,-13.98224z" fill="#ffffff" stroke="#000000" stroke-width="1.5" stroke-linecap="butt"/><path d="M293.75634,184.87797c1.71734,0.00678 3.10146,2.04703 3.09154,4.55697c-0.00994,2.50996 -1.41018,4.53917 -3.1275,4.53238c-1.71734,-0.00678 -3.10146,-2.04703 -3.09154,-4.55697c0.00994,-2.50996 1.41018,-4.53917 3.1275,-4.53238z" fill="#000000" stroke="#000000" stroke-width="1.5" stroke-linecap="butt"/><path d="M276.23005,184.31117c1.58523,0.00627 2.86226,2.04609 2.85234,4.55603c-0.00992,2.50995 -1.30307,4.53959 -2.8883,4.53332c-1.58523,-0.00627 -2.86226,-2.04609 -2.85234,-4.55603c0.00992,-2.50996 1.30307,-4.53959 2.8883,-4.53332z" fill="#000000" stroke="#000000" stroke-width="1.5" stroke-linecap="butt"/><g stroke="#0a0908" stroke-linecap="butt"><path d="M297.6095,159.81102c-0.01078,0.2366 -0.73911,2.6297 -0.75361,5.0606c-0.01656,2.77723 1.86638,6.00394 -0.39289,7.40688c-5.76828,3.58201 -19.78383,0.60308 -24.11832,0.23779c-3.99144,-0.33636 -2.99536,-4.09501 -2.41034,-7.83057c0.5169,-3.30059 0.42401,-6.6075 0.44962,-7.169c0.0546,-1.19702 6.1935,-1.65376 13.71162,-1.02022c7.51812,0.63353 13.56851,2.11753 13.5139,3.31449z" fill="#ffbc6f" stroke-width="1.5"/><path d="M272.23909,159.51869c0.03912,-0.76916 0.76492,-0.71055 0.76492,-0.71055l0.24908,0.02241c6.1504,1.00773 6.43149,11.82714 -0.17929,11.34504c0,0 -0.00331,-0.00025 -0.00937,-0.00098c-0.10847,0.07292 -0.25398,0.11704 -0.44918,0.10125c-0.72579,-0.05865 -0.68669,-0.82782 -0.68669,-0.82782l0.01389,-0.27345c0.1525,-2.99904 0.42402,-5.98761 0.58562,-8.98022c-0.16162,-0.11628 -0.30707,-0.32002 -0.28898,-0.67565zM273.42814,168.65305c4.11555,0.09298 3.97867,-6.49556 0.53349,-8.03094c-0.15354,2.67653 -0.38342,5.34955 -0.53349,8.03094z" fill="#0a0908" stroke-width="0.5"/><path d="M282.91661,160.1824c0.66403,-0.10403 0.7533,0.68406 0.7533,0.68406l0.04508,0.51378c-0.07653,1.4211 -0.15275,2.84217 -0.23018,4.26316c-0.17281,1.35872 -0.35586,3.56704 -1.37601,4.43633c-1.24758,1.06299 -2.83011,0.26891 -3.35629,-1.32471c-0.73307,-2.22021 0.0812,-5.95632 0.20823,-8.31481c0,0 0.04272,-0.79316 0.71139,-0.74061c0.66864,0.05255 0.62595,0.84572 0.62595,0.84572c-0.11521,2.13897 -0.89842,5.62808 -0.29335,7.64712c0.87434,2.91747 2.06252,-2.02182 2.14748,-2.71995c0.07436,-1.39916 0.15013,-2.79823 0.22546,-4.19732l-0.03585,-0.2006c0,0 -0.08923,-0.78808 0.57481,-0.89207z" fill="#0a0908" stroke-width="0.5"/><path d="M284.46524,169.91028c-0.70747,-0.05402 -0.65675,-0.94655 -0.65675,-0.94655l0.00904,-0.15867c0.16538,-2.79457 0.43858,-5.46692 1.17312,-8.11484c0,0 0.20692,-0.74547 0.78514,-0.60066c0.44174,0.03495 0.58684,0.39761 0.63363,0.66362c0.45271,0.91461 0.70906,1.92824 1.01903,2.92536c0.39885,-1.03168 0.70041,-2.15526 1.06519,-3.18987c0,0 0.28943,-0.82038 0.93698,-0.46461c0.01457,0.00799 0.02864,0.01621 0.04228,0.02469c0.57173,-0.02023 0.67688,0.73493 0.67688,0.73493l0.05316,0.40393c0.17238,2.75134 0.14022,5.73467 -0.53758,8.3609c0,0 -0.22079,0.85286 -0.89484,0.58398c-0.67405,-0.26883 -0.45329,-1.12169 -0.45329,-1.12169c0.37706,-1.4515 0.24557,-3.06363 0.4029,-4.6403c-0.16738,0.44496 -0.34899,0.87847 -0.55521,1.29112l-0.27135,0.33258c-0.05799,0.09821 -0.14114,0.19162 -0.25801,0.2728c-0.1802,0.12523 -0.33647,0.14909 -0.46759,0.11968c-0.13141,-0.02743 -0.27148,-0.11545 -0.40557,-0.30875c-0.07489,-0.10792 -0.12374,-0.21387 -0.15306,-0.31567c-0.32223,-0.79742 -0.53361,-1.67156 -0.79237,-2.50554c-0.43072,1.83982 -0.47985,3.72086 -0.58447,5.65643l-0.00902,0.15865c0,0 -0.05071,0.89258 -0.75817,0.83858z" fill="#0a0908" stroke-width="0.5"/><path d="M295.28923,169.61171c-0.02777,0.84298 -0.61691,0.80426 -0.61691,0.80426l-0.21658,-0.01671c-0.8956,0.03884 -3.41116,0.53507 -3.72941,-1.19353c-0.09081,-0.49331 0.30993,-0.91981 0.46398,-1.38034c0.2808,-0.83943 1.47339,-3.85296 2.35928,-4.97194c-0.67672,-0.07813 -1.35472,-0.10951 -2.03427,-0.15416c0,0 -0.58913,-0.03868 -0.56139,-0.88165c0.02777,-0.84298 0.61692,-0.80429 0.61692,-0.80429c0.94433,0.062 1.8803,0.11002 2.8192,0.27224l0.04959,0.04735l0.00586,-0.02595l0.55646,0.25698c0.25341,0.1081 0.43251,0.45223 0.41952,0.84741c-0.00957,0.28993 -0.12027,0.53895 -0.28102,0.68042l-0.4032,0.36532c-0.6528,1.19595 -1.24568,2.42546 -1.87566,3.6765c-0.20814,0.41333 -0.41731,1.27035 -0.74425,1.61648c0.12174,-0.04933 0.25486,-0.09235 0.3317,-0.09392c0.6593,-0.0135 1.31033,0.08601 1.97167,0.05614l0.30712,0.01768c0,0 0.58913,0.03868 0.56139,0.88165z" fill="#0a0908" stroke-width="0.5"/></g><path d="M254.80404,297.08003c0.00262,-0.66147 6.71109,-18.64518 9.68378,-19.73862c1.77278,-0.65207 12.63455,-0.75857 14.55309,-0.75098c2.50768,0.00993 15.20956,0.36732 16.96264,2.25037c3.90438,4.19386 8.39646,18.8473 8.39305,19.71109c-0.00419,1.05682 -1.68943,4.99224 -25.92775,4.36248c-19.59289,-0.50905 -23.66901,-4.77748 -23.66484,-5.83432z" fill="#f2c07a" stroke-opacity="0.5098" stroke="#000000" stroke-width="1.5" stroke-linecap="butt"/><path d="M286.04486,211.55597c7.73199,0 14,0.89543 14,2c0,1.10457 -6.26801,2 -14,2c-7.73199,0 -14,-0.89543 -14,-2c0,-1.10457 6.26801,-2 14,-2z" fill="#000000" stroke="#000000" stroke-width="1.5" stroke-linecap="butt"/></g></g></svg>