<svg version="1.1" xmlns="http://www.w3.org/2000/svg" xmlns:xlink="http://www.w3.org/1999/xlink" width="107.35841" height="292.33139" viewBox="0,0,107.35841,292.33139"><g transform="translate(-184.97231,-35.30268)"><g stroke-miterlimit="10"><path d="M254.4448,150.76971c-0.37687,5.7415 -10.37155,9.80572 -18.47389,9.82546c-2.72525,0.00664 -15.92825,-0.06366 -17.86164,-0.97833c-3.81472,-1.80468 -5.96654,-5.13817 -5.97584,-8.95668c-0.01402,-5.75385 8.03119,-10.43788 16.13356,-10.45762c8.10235,-0.01974 26.79287,1.19727 26.17784,10.56717z" fill="#ffd599" stroke="#0a0908" stroke-width="1.5" stroke-linecap="butt"/><g stroke="#0a0908" stroke-width="1.5" stroke-linecap="butt"><path d="M273.97418,221.75455c7.29187,-1.3833 16.87513,3.34888 17.60654,8.89457c0.73141,5.54569 -4.58688,11.16274 -11.87874,12.54605c-7.29187,1.3833 -13.79601,-1.99101 -14.52744,-7.53672c-0.73142,-5.54569 1.50775,-12.52061 8.79959,-13.90393z" fill="#ffffff"/><path d="M250.88131,148.81028c9.26329,-1.75728 27.55845,37.48444 35.62548,59.75184c2.27497,6.27955 3.57146,12.8493 3.8242,14.76547c0.00224,0.01701 0.00446,0.03403 0.00667,0.05106c-2.01354,0.26334 -4.03086,0.21169 -5.99129,0.58359c-2.748,0.5213 -5.50646,0.85039 -8.24322,1.36957c-2.7674,0.52498 -5.69053,0.76671 -8.36039,1.78407c-1.01549,0.49621 -1.28411,1.8913 -2.18258,2.56279c-1.28856,0.96303 -2.43504,1.91973 -3.62702,3.12351c-0.17999,-0.34982 -0.35661,-0.70785 -0.53012,-1.07385c-2.86991,-6.05405 -18.55766,-81.39357 -10.52173,-82.91801z" fill="#ffd599"/><path d="M275.51107,223.34009c7.36348,-2.29212 14.53068,-2.26575 14.69602,-1.01208c0.24679,1.87114 0.99239,3.64079 -2.64794,5.52663c-0.41955,0.21734 -6.37246,1.80251 -9.71268,2.94252c-4.79707,1.63722 -10.33528,4.24491 -12.38727,4.29439c-2.6248,0.06328 -3.3578,-3.17338 -3.49369,-4.20361c-0.15074,-1.14282 6.83307,-5.45833 13.54558,-7.54783z" fill="#f2c07a"/></g><path d="M247.19348,246.47163c4.44092,-24.18905 22.8166,-23.58078 28.8884,-23.25708c2.19395,0.11696 2.98432,1.22565 3.17346,12.32922c0.52075,30.56833 5.36575,48.62083 4.9902,79.19128c-0.07871,6.40775 -13.99722,7.87707 -21.49922,7.47716c-7.50201,-0.39993 -12.4237,-0.317 -12.34499,-6.72476c0.001,-0.08136 0.19272,-2.39554 0.16211,-2.96241c-0.42886,-7.94404 -4.34636,-60.73522 -3.36997,-66.05341z" fill="#382f25" stroke="#0a0908" stroke-width="1.5" stroke-linecap="butt"/><path d="M245.69922,314.08598c0.24954,6.21434 -9.07372,10.50153 -17.73146,10.87012c-8.65773,0.3686 -18.97853,-2.23989 -19.22807,-8.45421c-0.13716,-3.41608 0.49771,-64.45307 0.45945,-67.3272c-0.20987,-15.77071 0.39754,-22.66223 3.69511,-22.80261c7.00721,-0.29831 26.52151,-1.0495 32.25109,22.42c1.3496,5.52817 0.5063,64.10922 0.55388,65.29392z" fill="#382f25" stroke="#0a0908" stroke-width="1.5" stroke-linecap="butt"/><path d="M287.73319,315.69717c0.29866,4.80425 0.36371,8.08383 -6.40177,8.36774c-16.62538,0.69769 -27.17092,0.09506 -27.46961,-4.70917c-0.15739,-2.53161 5.78802,-6.79764 9.81992,-8.94886c3.61947,-1.93117 9.46073,-4.61682 12.6583,-4.80744c0.21847,-0.01302 -0.01734,0.30172 0.19542,0.30217c6.3695,0.01358 10.90872,5.14662 11.19773,9.79559z" fill="#686664" stroke="#0a0908" stroke-width="1.5" stroke-linecap="butt"/><path d="M239.08843,326.74339c-18.61375,0.75383 -30.06419,-1.65518 -30.39813,-6.83442c-0.17595,-2.72923 8.28208,-7.86111 12.79636,-10.18066c10.39057,-5.33893 24.03506,-2.38992 24.77254,9.04922c0,0 0.40384,7.65912 -7.17079,7.96587z" fill="#686664" stroke="#0a0908" stroke-width="1.5" stroke-linecap="butt"/><path d="M278.60763,231.43454c0.07458,11.28627 -13.34594,24.20305 -31.77781,24.32135c-18.43188,0.1183 -37.42938,-15.58114 -37.70177,-29.6268c-0.21884,-11.28383 17.53885,-14.79763 35.97071,-14.91593c18.43188,-0.1183 33.4343,8.93513 33.50886,20.2214z" fill="#39322b" stroke="#0a0908" stroke-width="1.5" stroke-linecap="butt"/><path d="M278.21552,242.88487c0.0626,9.4744 -14.98021,17.25177 -33.59908,17.37128c-18.61884,0.11949 -33.76315,-7.46414 -33.82574,-16.93855c-0.02722,-4.12196 -0.78965,-15.98448 3.95198,-18.97315c6.1571,-3.88085 19.12859,1.66935 29.6471,1.60184c13.40525,-0.08604 25.81384,-8.40999 31.28481,-2.67909c2.12777,2.22885 2.52341,16.96465 2.54093,19.61764z" fill="#382f25" stroke="none" stroke-width="0" stroke-linecap="butt"/><path d="M253.08101,259.80745l-10.30581,1.2493" fill="none" stroke="#0a0908" stroke-width="1.5" stroke-linecap="round"/><path d="M278.66416,229.93572c-0.04645,5.87144 -14.893,11.1289 -34.83574,10.93057c-19.94274,-0.19832 -36.72675,-3.84626 -36.6441,-14.29436c0.02863,-3.61992 -0.13843,-35.14757 7.77946,-59.20802c2.087,-6.34186 3.57289,-11.7766 6.51686,-15.76305c4.00305,-5.42055 10.81395,-8.13159 17.78898,-8.67327c4.39412,-0.34123 13.67094,3.66169 18.43751,9.55845c8.79851,10.88471 8.1003,21.35968 11.94496,33.92073c1.42577,4.65816 9.0279,40.83656 9.01078,43.00059z" fill="#ffd599" stroke="#0a0908" stroke-width="1.5" stroke-linecap="butt"/><path d="M280.39938,235.48552c-0.01613,1.02328 -0.73094,1.38877 -1.37105,1.77735c-11.04995,6.70817 -40.52406,7.22029 -56.15305,4.57157c-8.4303,-1.42871 -13.25906,-3.45815 -14.96083,-5.30908c-1.51614,-1.64903 -0.05022,-4.06382 -0.04638,-4.30728c0.00994,-0.62943 7.33049,5.23073 45.0996,4.21377c15.84992,-0.42676 26.28572,-5.79699 26.56991,-5.91862c1.46519,-0.62715 0.87794,3.94897 0.86181,4.97224z" fill="#f2c07a" stroke="#0a0908" stroke-width="1.5" stroke-linecap="butt"/><g stroke="#0a0908" stroke-width="1.5" stroke-linecap="butt"><path d="M216.39245,238.82801c-0.36702,5.73049 -6.63762,9.59672 -14.00578,8.63546c-7.36817,-0.96124 -13.04373,-6.38598 -12.6767,-12.11645c0.36702,-5.73049 9.62183,-11.18148 16.99001,-10.22025c7.36817,0.96124 10.05949,7.97072 9.69248,13.70121z" fill="#ffffff"/><path d="M219.89938,234.56313c-0.14919,0.38602 -0.30208,0.7641 -0.45879,1.13394c-1.26846,-1.15931 -2.47531,-2.06814 -3.82438,-2.9746c-0.94065,-0.63203 -1.30009,-2.04526 -2.34606,-2.49031c-2.73124,-0.87562 -5.66446,-0.94033 -8.46084,-1.30516c-2.76541,-0.36075 -5.54002,-0.52534 -8.3168,-0.88761c-1.98091,-0.25844 -3.99092,-0.07912 -6.01778,-0.22297c0.00108,-0.01757 0.00215,-0.03516 0.00329,-0.05275c0.12682,-1.98002 0.99079,-8.7956 2.8503,-15.37499c6.59384,-23.33065 22.09854,-63.84503 31.45877,-62.62388c8.12002,1.05934 -2.41968,78.4128 -4.88774,84.79832z" fill="#ffd599"/><path d="M219.28303,233.7369c-0.06817,1.06459 -0.58791,4.42823 -3.21171,4.52775c-2.05122,0.07783 -7.74928,-2.24837 -12.64418,-3.62616c-3.40832,-0.95936 -9.45336,-2.21141 -9.88632,-2.40792c-3.75666,-1.70509 -3.12836,-3.56582 -3.0045,-5.49927c0.08298,-1.29542 7.23444,-1.77138 14.73357,0.117c6.83615,1.72144 14.0888,5.70768 14.01317,6.88859z" fill="#f2c07a"/></g><path d="M233.12418,161.83197c0.0181,7.42904 -4.8466,13.85705 -7.64685,13.86387c-2.80024,0.00682 -4.58872,-6.40497 -4.60682,-13.83402c-0.00998,-4.09749 0.92123,-7.37568 2.00441,-9.84554c0.88072,-2.00817 3.89042,-3.62036 5.1462,-3.62342c2.80024,-0.00682 5.08494,6.01007 5.10304,13.4391z" fill="#ffd599" stroke="none" stroke-width="0" stroke-linecap="butt"/><path d="M266.49187,164.01375c2.74806,4.87655 4.57263,11.65243 3.14899,12.54642c-1.42365,0.89402 -5.18094,-3.38344 -7.92898,-8.26001c-2.74807,-4.87655 -5.82138,-14.01161 -4.39773,-14.90561c1.42365,-0.89402 6.42967,5.74263 9.17773,10.61919z" fill="#ffd599" stroke="none" stroke-width="0" stroke-linecap="butt"/><path d="M257.07207,151.01864c-0.1532,3.40712 -5.12215,7.98175 -13.80942,7.60285c-9.9633,-0.43455 -17.15621,-6.28841 -17.00301,-9.69552c0.1532,-3.40712 7.31779,-5.81434 16.00259,-5.37667c8.68481,0.43767 14.96303,4.06223 14.80983,7.46935z" fill="#f2c07a" stroke="#0a0908" stroke-width="1.5" stroke-linecap="butt"/><path d="M253.59424,168.16048c0.37808,1.59876 0.98182,3.68372 -0.5571,5.08154c-2.35024,2.13478 -3.12653,-6.3222 -2.82348,-8.61675c0.10364,-0.78476 -1.98421,-8.9331 -0.72042,-10.10875c0.23401,-0.66089 2.60461,-1.02991 2.64628,0.18442c0.00531,0.1548 0.13434,1.10059 0.11895,1.24735c0.92623,2.26253 1.1386,11.37841 1.33577,12.21216z" fill="#969696" stroke="#434242" stroke-width="1" stroke-linecap="butt"/><path d="M244.17088,166.35768c-0.21856,1.00905 -0.83988,3.4466 -0.72013,4.39754c0.22961,1.8235 1.23897,5.56944 -0.66914,6.95191c-2.9141,2.11129 -2.74843,-7.39579 -2.12404,-9.91705c0.21356,-0.86231 0.31653,-1.61969 0.48415,-2.56719c0.2592,-1.46511 -1.62249,-7.60708 -0.05209,-8.77326c0.34534,-0.70956 3.06499,-0.85193 2.96247,0.50529c-0.01307,0.173 0.01602,1.24101 -0.01941,1.40274c0.76625,2.6249 0.54682,6.11357 0.1382,8.00001z" fill="#969696" stroke="#434242" stroke-width="1" stroke-linecap="butt"/><path d="M251.04024,149.90301c0.00178,0.73219 -2.71251,3.93087 -7.84909,3.94338c-5.13657,0.01251 -10.75031,-3.16587 -10.7521,-3.89807c-0.00178,-0.73219 -1.28386,-6.90388 3.80308,-7.43351c18.25382,-1.90053 14.79633,6.65603 14.79811,7.3882z" fill="#ffffff" stroke="#0a0908" stroke-width="1.5" stroke-linecap="butt"/><path d="M284.2836,81.99777c-0.0062,0.39682 0.49042,2.35954 0.9364,5.50357c1.22318,8.62292 1.854,24.77451 -9.13133,31.51395c-0.18792,0.11528 -3.6475,6.45207 -8.09497,7.19433c-3.06783,0.512 -7.90979,5.46061 -13.16258,6.47759c-8.05331,1.55919 -16.49712,-0.78366 -16.49712,-0.78366c0,0 -10.30725,2.7018 -14.88712,2.89868c-8.1085,0.34857 -16.76066,-4.44079 -16.88056,-4.32666c-0.35124,0.33436 -2.08031,0.24337 -3.39704,-0.73493c-1.34436,-0.99881 -2.27647,-2.88723 -2.60144,-2.7157c-1.15406,0.6092 -6.03413,-1.9891 -9.41836,-9.34697c-2.03337,-4.42087 -0.46848,-9.93012 -0.70093,-10.61441c-7.05098,-20.75887 -1.963,-32.95459 7.47455,-44.14107c0.98203,-1.16403 1.58841,-7.27804 8.31879,-13.97268c8.004,-7.96148 15.5378,-4.93067 15.5378,-4.93067c0,0 6.72268,-7.87394 19.0864,-7.90405c9.03318,-0.022 17.08783,3.70759 21.1684,9.19888c0.40307,0.54242 3.02633,0.11282 4.91139,0.81052c6.48868,2.40158 17.7563,9.09527 17.33769,35.87328z" fill="#0a0907" stroke="none" stroke-width="0" stroke-linecap="butt"/><path d="M276.18687,105.79578c0.77494,6.29696 1.12516,17.2515 0.9422,18.56165c-1.93563,13.86099 -12.87024,23.06515 -32.29636,23.69141c-21.02173,0.6777 -37.26678,-11.98394 -37.80884,-28.79811c-0.54205,-16.81417 3.74643,-37.64488 29.92033,-40.1419c34.7368,-3.31393 38.34362,24.25361 38.60404,26.36961z" fill="#ffffff" stroke="#000000" stroke-width="1.5" stroke-linecap="butt"/><path d="M285.02635,80.03478c0.00366,0.39619 0.5681,2.343 1.1101,5.47002c1.48648,8.57633 3.54147,21.53754 -7.67086,28.53262c-0.96393,0.60137 -0.72548,1.6892 -1.52904,-0.31994c-0.87576,-2.18969 -2.64646,-5.20785 -3.66174,-8.0102c-1.43262,-3.95419 -2.00245,-7.46207 -2.00245,-7.46207c0,0 -4.44633,-2.08798 -6.31768,-3.29648c-1.97942,-1.27832 -5.95799,-6.23613 -5.95799,-6.23613c0,0 -10.65839,0.89413 -15.06696,0.74895c-3.43425,-0.11311 -9.39736,-0.91937 -9.39736,-0.91937c0,0 -4.62001,3.32762 -7.4597,4.67685c-3.12525,1.48489 -10.31909,3.23579 -10.31909,3.23579c0,0 -0.86583,6.1685 -2.39793,10.24087c-1.29243,3.43539 -3.148,4.42234 -4.45905,8.61883c-1.04063,3.33093 0.09107,6.367 -0.54895,9.02201c-0.74615,3.09526 -3.20537,5.57987 -3.62422,5.98318c-0.35549,0.34228 -2.14952,0.29379 -3.53884,-0.65042c-1.41844,-0.964 -2.43231,-2.82598 -2.76469,-2.64681c-1.18042,0.63626 -6.30334,-1.83768 -9.99705,-9.09854c-2.21934,-4.3626 -1.2448,-9.88631 -1.50303,-10.56359c-5.8187,-21.08742 -0.32152,-32.4202 6.66553,-42.77313c0.98805,-1.18579 -0.06032,-7.26333 6.744,-14.10967c8.0919,-8.14185 17.96339,-6.81927 17.96339,-6.81927c0,0 6.76639,-8.02314 19.57744,-8.3556c9.36001,-0.24291 17.80131,3.28247 22.16919,8.66335c0.43145,0.53151 3.13888,0.03858 5.10996,0.68882c6.78482,2.23824 18.63079,8.6434 18.87702,35.37988z" fill="#0a0907" stroke="#000000" stroke-width="1" stroke-linecap="butt"/><path d="M244.65271,117.96357c0.02007,8.24042 -6.13715,14.12028 -14.80509,13.97833c-8.01422,-0.13125 -14.17413,-5.83146 -14.05808,-14.07109c0.13902,-9.87148 6.29903,-14.60989 14.3143,-14.62941c8.01527,-0.01952 14.52879,6.48175 14.54886,14.72217z" fill="#ffffff" stroke="#000000" stroke-width="1.5" stroke-linecap="butt"/><path d="M262.5378,101.72369c6.55403,-0.01596 11.61149,4.51203 11.76795,14.00013c0.13059,7.91964 -4.88155,13.42549 -11.43408,13.58639c-7.087,0.17401 -12.14713,-5.45119 -12.16643,-13.37216c-0.01929,-7.92097 5.27853,-14.19838 11.83256,-14.21434z" fill="#ffffff" stroke="#000000" stroke-width="1.5" stroke-linecap="butt"/><path d="M241.01938,118.82348c0.00498,2.04587 -1.12576,3.70716 -2.52556,3.71057c-1.39981,0.00341 -2.53863,-1.65234 -2.54361,-3.69822c-0.00498,-2.04587 1.12576,-3.70716 2.52556,-3.71057c1.39981,-0.00341 2.53863,1.65234 2.54361,3.69822z" fill="#000000" stroke="#000000" stroke-width="1.5" stroke-linecap="butt"/><path d="M256.30796,118.38042c0.00507,2.08132 -1.05645,3.77119 -2.37099,3.77439c-1.31453,0.0032 -2.38428,-1.68146 -2.38935,-3.76279c-0.00507,-2.08132 1.05645,-3.77119 2.37099,-3.77439c1.31453,-0.0032 2.38428,1.68145 2.38935,3.76279z" fill="#000000" stroke="#000000" stroke-width="1.5" stroke-linecap="butt"/><g stroke="#0a0908" stroke-linecap="butt"><path d="M261.39927,87.6395c0.01355,0.24315 -0.46538,2.76782 -0.23037,5.25585c0.26849,2.84251 2.47257,5.94432 0.36918,7.61775c-5.3703,4.27255 -19.61753,2.70427 -23.96662,2.78797c-4.00489,0.07709 -3.39972,-3.87262 -3.20108,-7.75535c0.17551,-3.43061 -0.25621,-6.80337 -0.28835,-7.38041c-0.06851,-1.23015 5.99112,-2.34507 13.53457,-2.49027c7.54344,-0.14522 13.71417,0.73433 13.78267,1.96444z" fill="#ffbc6f" stroke-width="1.5"/><path d="M236.13277,90.01733c-0.04001,-0.79087 0.68797,-0.8075 0.68797,-0.8075l0.25007,-0.00336c6.22134,0.38185 7.61109,11.41905 0.98574,11.62344c0,0 -0.00332,0.00009 -0.00942,-0.00001c-0.10041,0.08603 -0.24063,0.14651 -0.43643,0.15096c-0.72797,0.0166 -0.768,-0.7743 -0.768,-0.7743l-0.01424,-0.28117c-0.15603,-3.08372 -0.19258,-6.1693 -0.33891,-9.24741c-0.17269,-0.10189 -0.33829,-0.29494 -0.35679,-0.66061zM238.2528,99.23515c4.10336,-0.33913 3.29119,-7.06392 -0.29337,-8.27091c0.1219,2.75395 0.16751,5.51236 0.29337,8.27091z" fill="#0a0908" stroke-width="0.5"/><path d="M246.82204,89.56961c0.64986,-0.17647 0.81952,0.62022 0.81952,0.62022l0.09755,0.52077c0.06969,1.46166 0.13969,2.92329 0.20847,4.38495c-0.03248,1.40804 0.01203,3.68617 -0.91355,4.68299c-1.13192,1.21894 -2.78758,0.57367 -3.4745,-1.00088c-0.95701,-2.19364 -0.53038,-6.10111 -0.64602,-8.52695c0,0 -0.03888,-0.81581 0.63164,-0.8326c0.67051,-0.01679 0.70942,0.79901 0.70942,0.79901c0.10488,2.20005 -0.3162,5.85159 0.49285,7.85297c1.16907,2.89195 1.84417,-2.28568 1.85706,-3.00874c-0.06959,-1.43901 -0.13778,-2.87806 -0.20639,-4.31711l-0.05624,-0.2014c0,0 -0.16962,-0.7967 0.48025,-0.97313z" fill="#0a0908" stroke-width="0.5"/><path d="M249.36065,99.35659c-0.70928,0.01939 -0.75041,-0.89892 -0.75041,-0.89892l-0.00729,-0.16325c-0.12223,-2.87594 -0.12469,-5.63823 0.33428,-8.42421c0,0 0.12934,-0.78436 0.71936,-0.69724c0.443,-0.01086 0.62455,0.34479 0.69838,0.61194c0.54418,0.88775 0.90317,1.89752 1.31381,2.88475c0.2909,-1.09735 0.47557,-2.27845 0.73227,-3.37522c0,0 0.20373,-0.86968 0.88435,-0.5741c0.01532,0.00663 0.03015,0.01355 0.04459,0.02079c0.56664,-0.08102 0.74872,0.68032 0.74872,0.68032l0.09432,0.40756c0.45378,2.79608 0.72789,5.85103 0.32314,8.60885c0,0 -0.13212,0.89566 -0.83019,0.69174c-0.69808,-0.20387 -0.56598,-1.09952 -0.56598,-1.09952c0.22613,-1.52448 -0.07008,-3.15961 -0.07535,-4.78894c-0.12084,0.4728 -0.25701,0.93538 -0.4198,1.37924l-0.23579,0.36882c-0.04761,0.10657 -0.12073,0.21089 -0.22865,0.30627c-0.1664,0.14711 -0.31939,0.18799 -0.45284,0.17176c-0.13353,-0.01419 -0.2819,-0.08946 -0.43511,-0.273c-0.08556,-0.10249 -0.14503,-0.2057 -0.18465,-0.30673c-0.40235,-0.78166 -0.7023,-1.65348 -1.04527,-2.47924c-0.23966,1.92735 -0.09553,3.85658 -0.001,5.84746l0.0073,0.16323c0,0 0.04115,0.91835 -0.66813,0.93776z" fill="#0a0908" stroke-width="0.5"/><path d="M260.09687,97.90915c0.05887,0.86519 -0.53113,0.88775 -0.53113,0.88775l-0.21715,0.00576c-0.88688,0.13422 -3.33825,0.90724 -3.8322,-0.82733c-0.14095,-0.49501 0.21392,-0.97355 0.3199,-1.46087c0.19318,-0.88825 1.07027,-4.09655 1.83667,-5.33458c-0.68117,-0.00851 -1.3588,0.03092 -2.03935,0.05695c0,0 -0.58999,0.02259 -0.64888,-0.84259c-0.05887,-0.86519 0.53113,-0.88778 0.53113,-0.88778c0.94571,-0.03622 1.88167,-0.08585 2.83226,-0.01899l0.05419,0.04321l0.00318,-0.02716l0.57989,0.20416c0.26317,0.08384 0.47663,0.41694 0.50425,0.82253c0.02024,0.29757 -0.06433,0.56396 -0.20973,0.72563l-0.36359,0.41621c-0.52664,1.29217 -0.99024,2.61236 -1.48853,3.95849c-0.16463,0.44474 -0.28476,1.34344 -0.57446,1.73196c0.11603,-0.0633 0.24405,-0.12135 0.32031,-0.13107c0.65443,-0.08336 1.31223,-0.05028 1.96703,-0.1506l0.30731,-0.01431c0,0 0.58999,-0.02259 0.64888,0.84259z" fill="#0a0908" stroke-width="0.5"/></g><path d="M274.29089,226.64852c0.00257,1.05684 -4.08003,5.31907 -23.67367,5.79836c-24.23925,0.59294 -25.91851,-3.34503 -25.92109,-4.40186c-0.0021,-0.86379 4.51223,-15.51039 8.42298,-19.69831c1.75594,-1.88038 14.45834,-2.21848 16.96604,-2.22459c1.91854,-0.00467 12.78015,0.11832 14.55193,0.77309c2.97102,1.09795 9.65217,19.09183 9.65378,19.7533z" fill="#f2c07a" stroke-opacity="0.5098" stroke="#000000" stroke-width="1.5" stroke-linecap="butt"/><path d="M239.56619,142.466l7.14257,-2.2408l5.18186,2.66096" fill="none" stroke="#000000" stroke-width="1.5" stroke-linecap="round"/></g></g></svg>