<svg version="1.1" xmlns="http://www.w3.org/2000/svg" xmlns:xlink="http://www.w3.org/1999/xlink" width="225.1523" height="296.50534" viewBox="0,0,225.1523,296.50534"><g transform="translate(-121.63249,-105.17267)"><g stroke-miterlimit="10"><g stroke="#0a0908" stroke-width="1.5" stroke-linecap="butt"><path d="M236.11693,250.6755c-2.9564,5.03756 -10.653,7.11496 -14.25702,3.67757c-3.60401,-3.43739 -4.12902,-10.30769 -1.17264,-15.34524c2.95639,-5.03756 8.27466,-6.33475 11.8787,-2.89734c3.60404,3.43739 6.50738,9.52744 3.55101,14.56499z" fill="#ffffff"/><path d="M277.97128,249.71061c0,0 -5.74283,17.18097 -13.50996,23.69602c-3.13203,2.62713 -9.05043,2.5416 -9.8652,2.12063c-7.11778,-3.67762 -11.82895,-5.21878 -17.26773,-8.69253c-4.82719,-3.08313 -9.31854,-6.91476 -10.56382,-8.10247c-0.01104,-0.01053 -0.02211,-0.02111 -0.03315,-0.03168c0.88539,-1.30877 1.95602,-2.40117 2.75085,-3.75552c1.11416,-1.89842 2.34553,-3.6694 3.45511,-5.56009c1.12201,-1.91183 2.48915,-3.71431 3.27436,-5.91311c0.23509,-0.91209 -0.43808,-2.02996 -0.36535,-2.99818c0.10431,-1.3886 0.13904,-2.69335 0.05346,-4.19492c0.29639,0.14199 0.5958,0.29152 0.89826,0.44834c2.09089,1.08413 7.5183,6.63009 16.98068,9.55794c1.08841,0.33679 14.26783,-18.54877 15.35518,-18.25586c12.07817,3.25371 10.57712,18.71696 8.83735,21.68145z" fill="#ffd599"/><path d="M234.40163,250.43529c-2.46453,5.70796 -6.17683,9.69806 -6.99156,8.92099c-1.216,-1.1598 -2.63026,-1.97021 -1.84979,-5.31415c0.08994,-0.38539 2.23822,-4.81411 3.29785,-7.47291c1.5218,-3.81843 2.86121,-8.72443 3.89087,-9.90637c1.31708,-1.51185 3.57842,0.32314 4.24795,0.96169c0.7427,0.70834 -0.34868,7.60737 -2.59533,12.81073z" fill="#f2c07a"/></g><path d="M274.43489,222.57998c-0.71352,-9.36293 17.96317,-10.7764 26.06528,-10.84185c8.10213,-0.06546 16.19615,4.53372 16.24263,10.2874c0.03084,3.8184 -2.08579,7.17432 -5.88133,9.01902c-1.92367,0.93494 -15.1252,1.14406 -17.85037,1.16608c-8.1021,0.06546 -18.13896,-3.89344 -18.57618,-9.63066z" fill="#ffd599" stroke="#0a0908" stroke-width="1.5" stroke-linecap="butt"/><path d="M282.92374,319.31092c1.03226,5.30764 -2.32993,58.13709 -2.67524,66.0852c-0.02465,0.56716 0.19139,2.8792 0.19325,2.96054c0.14607,6.40659 -4.77622,6.37542 -12.27361,6.85421c-7.49738,0.47877 -21.43057,-0.84411 -21.57666,-7.25068c-0.69698,-30.56481 3.95793,-48.66727 4.15723,-79.23938c0.07238,-11.10494 0.85105,-12.22188 3.04365,-12.36191c6.06806,-0.38753 24.43634,-1.18899 29.13135,22.95203z" fill="#382f25" stroke="#0a0908" stroke-width="1.5" stroke-linecap="butt"/><path d="M285.12886,386.90586c0.03511,-1.18514 -1.42412,-59.75409 -0.13272,-65.29614c5.48248,-23.52846 25.00361,-22.9825 32.01356,-22.75789c3.29886,0.1057 3.9787,6.99046 3.93467,22.7625c-0.00803,2.87438 1.2686,63.90132 1.16737,67.31865c-0.18418,6.21661 -10.47698,8.93347 -19.13811,8.65593c-8.66114,-0.27753 -18.02896,-4.46646 -17.84478,-10.68308z" fill="#382f25" stroke="#0a0908" stroke-width="1.5" stroke-linecap="butt"/><path d="M201.4653,390.29225c0.24813,4.80712 0.27869,8.08722 -6.4894,8.29997c-16.6318,0.52283 -27.17041,-0.19065 -27.41858,-4.99775c-0.13077,-2.53313 5.85918,-6.7364 9.91347,-8.84511c3.63957,-1.893 9.50876,-4.51709 12.70815,-4.67408c0.2186,-0.01072 -0.02052,0.30151 0.19222,0.30421c6.369,0.08055 10.85399,5.26105 11.0941,9.9128z" fill="#686664" stroke="#0a0908" stroke-width="1.5" stroke-linecap="butt"/><path d="M152.70708,400.82636c-18.62065,0.55806 -30.04512,-1.97121 -30.32459,-7.15367c-0.14725,-2.73093 8.36428,-7.77359 12.9027,-10.04554c10.44614,-5.22937 24.05886,-2.13706 24.67602,9.30919c0,0 0.32329,7.66295 -7.25415,7.89003z" fill="#686664" stroke="#0a0908" stroke-width="1.5" stroke-linecap="butt"/><path d="M251.35316,304.60502c-0.0441,-11.28643 14.86228,-20.4971 33.29439,-20.57263c18.43208,-0.07553 36.22573,3.25137 36.12556,14.53687c-0.12469,14.04774 -18.95605,29.94606 -37.38816,30.02159c-18.43209,0.07551 -31.98768,-12.69942 -32.03178,-23.98586z" fill="#39322b" stroke="#0a0908" stroke-width="1.5" stroke-linecap="butt"/><path d="M251.86565,316.05054c-0.01037,-2.65303 0.2303,-17.39217 2.33451,-19.64327c5.41041,-5.78812 17.90584,2.40489 31.31125,2.34997c10.51864,-0.0431 23.43107,-5.72938 29.62863,-1.91349c4.77279,2.93864 4.13514,14.80853 4.15126,18.93054c0.03704,9.47454 -15.02669,17.217 -33.64576,17.29329c-18.6191,0.07627 -33.74285,-7.54249 -33.77988,-17.01702z" fill="#382f25" stroke="none" stroke-width="0" stroke-linecap="butt"/><path d="M287.4951,333.84879l-10.31838,-1.14087" fill="none" stroke="#0a0908" stroke-width="1.5" stroke-linecap="round"/><path d="M251.28062,302.9118c-0.03988,-2.16374 10.19765,-39.05607 10.19765,-39.05607c0,0 1.26451,-27.10472 9.94809,-38.08134c4.70429,-5.94655 13.93852,-10.04679 18.33598,-9.75179c6.98034,0.4683 13.81939,3.10758 17.8792,8.48574c2.98573,3.95527 4.52868,9.37409 6.68225,15.69365c8.17045,23.97587 8.33491,55.50353 8.4016,59.12295c0.19253,10.44665 -16.55221,14.27087 -36.49176,14.67888c-19.93954,0.40803 -34.84056,-4.69304 -34.94874,-10.56366z" fill="#ffd599" stroke="#0a0908" stroke-width="1.5" stroke-linecap="butt"/><path d="M249.60408,308.67455c-0.02688,-1.02303 -0.66223,-5.59272 0.80948,-4.98102c0.28545,0.11864 10.77714,5.37884 26.63068,5.63891c37.77771,0.61976 45.03625,-5.31706 45.0528,-4.68776c0.00641,0.2434 1.49763,2.64263 -0.00108,4.30752c-1.68221,1.86873 -6.48937,3.94882 -14.90418,5.4661c-15.60025,2.8129 -45.07812,2.61073 -56.198,-3.98088c-0.64416,-0.38182 -1.36277,-0.73977 -1.38966,-1.76283z" fill="#f2c07a" stroke="#0a0908" stroke-width="1.5" stroke-linecap="butt"/><g stroke="#0a0908" stroke-width="1.5" stroke-linecap="butt"><path d="M319.80902,310.1148c-0.9148,-5.66889 1.09202,-12.90413 8.33407,-14.56745c7.24205,-1.66332 16.9769,2.87515 17.8917,8.54404c0.9148,5.6689 -4.21445,11.61283 -11.4565,13.27615c-7.24203,1.66332 -13.85446,-1.58383 -14.76926,-7.25272z" fill="#ffffff"/><path d="M315.90939,306.20586c-3.06898,-6.11942 -20.97721,-82.10587 -12.99617,-83.93892c9.19999,-2.11304 28.51801,36.72799 37.31854,59.31888c2.4818,6.37077 3.99534,13.07211 4.31141,15.03085c0.00282,0.01738 0.00556,0.0348 0.00833,0.05218c-2.00373,0.33751 -4.02168,0.35176 -5.96868,0.79895c-2.72925,0.62684 -5.47531,1.05672 -8.19337,1.68097c-2.74851,0.63129 -5.66202,0.97695 -8.29671,2.11043c-0.99849,0.5433 -1.22076,1.98447 -2.09648,2.70378c-1.25594,1.03165 -2.37009,2.052 -3.52153,3.3276c-0.19146,-0.35311 -0.37988,-0.7148 -0.5654,-1.08472z" fill="#ffd599"/><path d="M316.44358,305.32432c-0.18851,-1.16822 6.64849,-5.83151 13.28809,-8.20051c7.28352,-2.59875 14.44765,-2.81071 14.65446,-1.52921c0.30866,1.91268 1.1125,3.70458 -2.46336,5.76203c-0.41213,0.23711 -6.30926,2.06303 -9.60988,3.34478c-4.74022,1.8408 -10.18899,4.70264 -12.23821,4.82186c-2.62126,0.15251 -3.46112,-3.1458 -3.63106,-4.19894z" fill="#f2c07a"/></g><path d="M296.3952,234.11023c0.33971,-7.42128 2.88276,-13.33361 5.68008,-13.20557c1.25447,0.05743 4.19156,1.79842 4.98451,3.84283c0.97525,2.51443 1.76365,5.82987 1.57629,9.92308c-0.33972,7.4213 -2.40412,13.74964 -5.20144,13.6216c-2.79731,-0.12805 -7.37917,-6.76064 -7.03945,-14.18193z" fill="#ffd599" stroke="none" stroke-width="0" stroke-linecap="butt"/><path d="M262.75933,237.06052c2.69662,-4.90519 7.63259,-11.59411 9.06556,-10.71511c1.43298,0.87898 -1.54411,10.04587 -4.24075,14.95104c-2.69663,4.9052 -6.40873,9.22192 -7.8417,8.34292c-1.43295,-0.87897 0.32027,-7.67367 3.0169,-12.57884z" fill="#ffd599" stroke="none" stroke-width="0" stroke-linecap="butt"/><path d="M272.04199,223.96713c-0.18902,-3.40532 6.05074,-7.09571 14.73047,-7.62467c8.67972,-0.52898 15.86922,1.80278 16.05824,5.2081c0.18902,3.4053 -6.94194,9.33448 -16.90012,9.87377c-8.68281,0.47022 -13.69959,-4.05191 -13.88861,-7.45723z" fill="#f2c07a" stroke="#0a0908" stroke-width="1.5" stroke-linecap="butt"/><path d="M276.45955,240.73641c0.1884,-0.83577 0.3049,-9.95338 1.20729,-12.22553c-0.01695,-0.14658 0.10212,-1.09368 0.10581,-1.24853c0.02891,-1.21472 2.40326,-0.87064 2.6442,-0.21225c1.27608,1.16229 -0.72597,9.33214 -0.61408,10.11576c0.32717,2.29122 -0.36015,10.7559 -2.73271,8.64595c-1.55354,-1.38155 -0.97176,-3.47276 -0.6105,-5.0754z" fill="#969696" stroke="#434242" stroke-width="1" stroke-linecap="butt"/><path d="M285.19738,238.92167c-0.42843,-1.88203 -0.68452,-5.36821 0.05408,-8.00102c-0.03712,-0.16135 -0.01928,-1.22961 -0.03416,-1.40246c-0.11679,-1.35606 2.60421,-1.24229 2.957,-0.5364c1.58257,1.14961 -0.23443,7.31103 0.04016,8.77333c0.17757,0.9457 0.2885,1.70194 0.51112,2.56196c0.65087,2.51455 0.9165,12.01936 -2.01964,9.93883c-1.92255,-1.36234 -0.95263,-5.11869 -0.74221,-6.9445c0.10974,-0.95215 -0.53717,-3.38304 -0.76633,-4.38973z" fill="#969696" stroke="#434242" stroke-width="1" stroke-linecap="butt"/><path d="M278.06172,222.78811c-0.00592,-0.73216 -3.55318,-9.25189 14.71961,-7.5434c5.09224,0.47611 3.87512,6.66095 3.88104,7.39311c0.00591,0.73218 -5.57411,3.96941 -10.71052,4.01091c-5.13643,0.04149 -7.8842,-3.12847 -7.89012,-3.86063z" fill="#ffffff" stroke="#0a0908" stroke-width="1.5" stroke-linecap="butt"/><path d="M244.10624,155.23616c-0.70017,-26.77212 10.49644,-33.58394 16.95952,-36.0536c1.87762,-0.71749 4.50526,-0.31549 4.9026,-0.86212c4.0226,-5.53389 12.03759,-9.34796 21.0705,-9.42095c12.36335,-0.0999 19.16845,7.70292 19.16845,7.70292c0,0 7.5015,-3.10985 15.58878,4.76702c6.80041,6.62352 7.47105,12.73081 8.46526,13.88445c9.55466,11.08662 14.7706,23.22817 7.93828,44.06003c-0.22524,0.68669 1.39749,6.17919 -0.58928,10.62119c-3.30667,7.39304 -8.15914,10.04251 -9.31955,9.44548c-0.32676,-0.16811 -1.23896,1.73001 -2.57275,2.7429c-1.30635,0.9921 -3.03438,1.10126 -3.38912,0.77062c-0.12109,-0.11286 -8.72241,4.76721 -16.83413,4.50392c-4.58168,-0.1487 -14.91678,-2.74198 -14.91678,-2.74198c0,0 -8.41871,2.4315 -16.48797,0.95708c-5.26319,-0.96168 -10.15691,-5.85911 -13.22997,-6.33882c-4.45503,-0.69546 -7.98105,-6.99553 -8.17018,-7.10882c-11.05558,-6.62357 -10.59464,-22.7809 -9.46219,-31.4162c0.4129,-3.14855 0.88886,-5.11638 0.87848,-5.51311z" fill="#0a0907" stroke="none" stroke-width="0" stroke-linecap="butt"/><path d="M253.08794,178.62368c0.23815,-2.11862 3.5549,-29.72256 38.32463,-26.77407c26.19871,2.22166 30.70599,23.00613 30.34077,39.82507c-0.36523,16.81894 -16.47624,29.65069 -37.50393,29.19407c-19.43162,-0.42196 -30.4624,-9.51062 -32.54368,-23.3505c-0.19672,-1.30816 0.03828,-12.26578 0.74697,-18.57053z" fill="#ffffff" stroke="#000000" stroke-width="1.5" stroke-linecap="butt"/><path d="M242.14751,152.47942c-0.3876,-27.35567 11.13284,-34.17674 17.76493,-36.62039c1.92672,-0.70992 4.60586,-0.26714 5.01843,-0.82064c4.17669,-5.60354 12.41051,-9.40146 21.63832,-9.36546c12.63011,0.04924 19.48589,8.10291 19.48589,8.10291c0,0 9.69483,-1.57705 17.8594,6.56796c6.86541,6.84898 5.97574,13.08981 6.97718,14.28038c7.12811,10.4319 12.81141,21.89998 7.57548,43.60345c-0.23847,0.69868 0.8519,6.32703 -1.2319,10.84014c-3.46814,7.51135 -8.45725,10.15836 -9.63527,9.5343c-0.3317,-0.17573 -1.28672,1.75199 -2.66155,2.77032c-1.34659,0.99741 -3.11306,1.08775 -3.47137,0.74568c-0.42218,-0.40307 -2.90373,-2.88887 -3.71183,-6.03823c-0.69316,-2.7014 0.35031,-5.83285 -0.7535,-9.21659c-1.39063,-4.26305 -3.24214,-5.23052 -4.59649,-8.71541c-1.60551,-4.13105 -2.60398,-10.42147 -2.60398,-10.42147c0,0 -7.12911,-1.62779 -10.2433,-3.0758c-2.82965,-1.31574 -7.46002,-4.61484 -7.46002,-4.61484c0,0 -5.85623,0.96012 -9.2372,1.1538c-4.34018,0.24859 -14.86259,-0.42409 -14.86259,-0.42409c0,0 -3.80309,5.16191 -5.72321,6.51449c-1.81532,1.27872 -6.1469,3.51556 -6.1469,3.51556c0,0 -0.47875,3.60132 -1.79706,7.67878c-0.93427,2.88972 -2.60773,6.01734 -3.41898,8.27716c-0.74435,2.07349 -0.53505,0.95527 -1.49896,0.36199c-11.21198,-6.90108 -9.49276,-20.20639 -8.23034,-29.0133c0.46031,-3.21108 0.97055,-5.21539 0.96482,-5.62076z" fill="#0a0907" stroke="#000000" stroke-width="1" stroke-linecap="butt"/><path d="M284.11307,190.78325c-0.06657,-8.24017 6.37823,-14.80956 14.39325,-14.87433c8.01504,-0.06476 14.22452,4.60863 14.46734,14.47809c0.20267,8.23795 -5.89696,14.00261 -13.90935,14.21813c-8.66595,0.23308 -14.88466,-5.5817 -14.95124,-13.82188z" fill="#ffffff" stroke="#000000" stroke-width="1.5" stroke-linecap="butt"/><path d="M266.05821,174.73237c6.55384,-0.05296 11.91737,6.16839 11.98137,14.08913c0.06398,7.92075 -4.93672,13.59885 -12.02515,13.49936c-6.55386,-0.092 -11.62362,-5.54485 -11.57631,-13.46542c0.05669,-9.48922 5.06625,-14.07015 11.62009,-14.1231z" fill="#ffffff" stroke="#000000" stroke-width="1.5" stroke-linecap="butt"/><path d="M291.74068,186.75813c1.71729,-0.01388 3.12586,2.00956 3.14615,4.51944c0.02027,2.5099 -1.35545,4.55581 -3.07273,4.56969c-1.71729,0.01388 -3.12586,-2.00956 -3.14615,-4.51944c-0.02027,-2.5099 1.35545,-4.55581 3.07273,-4.56969z" fill="#000000" stroke="#000000" stroke-width="1.5" stroke-linecap="butt"/><path d="M274.20885,186.40228c1.58519,-0.0128 2.88667,2.0115 2.90696,4.52138c0.02028,2.50989 -1.24835,4.55494 -2.83354,4.56775c-1.58519,0.0128 -2.88667,-2.0115 -2.90696,-4.52138c-0.02028,-2.5099 1.24835,-4.55494 2.83354,-4.56775z" fill="#000000" stroke="#000000" stroke-width="1.5" stroke-linecap="butt"/><g stroke="#0a0908" stroke-linecap="butt"><path d="M293.93754,161.68212c-0.0083,0.2367 -0.71139,2.63733 -0.7003,5.06825c0.01268,2.77725 1.92947,5.98395 -0.31491,7.4106c-5.73026,3.64253 -19.77639,0.81129 -24.11448,0.49166c-3.99477,-0.29433 -3.0383,-4.06325 -2.49263,-7.80476c0.48213,-3.30585 0.35444,-6.6116 0.37413,-7.17333c0.04199,-1.19753 6.17575,-1.71887 13.70012,-1.16449c7.52437,0.55437 13.59005,1.97458 13.54804,3.17206z" fill="#ffbc6f" stroke-width="1.5"/><path d="M268.56545,161.65686c0.03102,-0.76953 0.75739,-0.71856 0.75739,-0.71856l0.24931,0.01978c6.16067,0.94294 6.55562,11.75879 -0.05986,11.3463c0,0 -0.00331,-0.00021 -0.00938,-0.00088c-0.1077,0.07406 -0.25273,0.11971 -0.44809,0.10597c-0.72636,-0.051 -0.69537,-0.82054 -0.69537,-0.82054l0.01101,-0.27358c0.12093,-3.00049 0.36097,-5.99174 0.49106,-8.98589c-0.16284,-0.11457 -0.31042,-0.31678 -0.29608,-0.67257zM269.85059,170.7782c4.1163,0.04965 3.91007,-6.53708 0.44892,-8.03611c-0.12536,2.678 -0.32709,5.3533 -0.44892,8.03611z" fill="#0a0908" stroke-width="0.5"/><path d="M279.24938,162.20814c0.6629,-0.11101 0.76046,0.67609 0.76046,0.67609l0.05049,0.51328c-0.06156,1.42182 -0.12283,2.84363 -0.1853,4.26535c-0.1585,1.36047 -0.31829,3.57058 -1.32923,4.45057c-1.23631,1.07606 -2.82712,0.29868 -3.37005,-1.28931c-0.7564,-2.21237 0.0185,-5.95684 0.12069,-8.31655c0,0 0.03437,-0.79356 0.70355,-0.74805c0.66916,0.04551 0.63481,0.83909 0.63481,0.83909c-0.09269,2.14007 -0.83912,5.63723 -0.21284,7.64979c0.905,2.90811 2.04112,-2.04343 2.11873,-2.7424c0.05963,-1.39987 0.12067,-2.79966 0.18126,-4.19946l-0.03796,-0.20022c0,0 -0.09752,-0.7871 0.56539,-0.89807z" fill="#0a0908" stroke-width="0.5"/><path d="M280.90032,171.91918c-0.708,-0.04658 -0.66667,-0.93959 -0.66667,-0.93959l0.00737,-0.15876c0.13595,-2.79616 0.38101,-5.47123 1.08763,-8.12674c0,0 0.19906,-0.7476 0.77877,-0.60889c0.44208,0.0303 0.59099,0.39141 0.64058,0.65691c0.46231,0.90979 0.72931,1.92067 1.04976,2.91447c0.38798,-1.03582 0.67768,-2.16251 1.03156,-3.20091c0,0 0.28078,-0.82338 0.93203,-0.47445c0.01465,0.00783 0.02881,0.01591 0.04253,0.02424c0.57149,-0.02625 0.68458,0.72776 0.68458,0.72776l0.05742,0.40335c0.20133,2.74937 0.20058,5.73287 -0.44955,8.3661c0,0 -0.21179,0.85513 -0.88864,0.59336c-0.67685,-0.26172 -0.46507,-1.11685 -0.46507,-1.11685c0.36176,-1.45539 0.21331,-3.06605 0.35403,-4.64428c-0.16269,0.4467 -0.33972,0.8821 -0.54159,1.2969l-0.26783,0.33542c-0.05695,0.09881 -0.13911,0.1931 -0.25512,0.2755c-0.17887,0.12712 -0.33488,0.15262 -0.46631,0.12459c-0.13169,-0.02605 -0.27269,-0.11259 -0.40879,-0.30446c-0.07603,-0.10713 -0.12598,-0.21255 -0.15638,-0.31405c-0.3306,-0.79399 -0.55118,-1.66585 -0.8187,-2.49706c-0.41133,1.84425 -0.44066,3.72571 -0.5249,5.66227l-0.00735,0.15874c0,0 -0.04131,0.89307 -0.7493,0.84651z" fill="#0a0908" stroke-width="0.5"/><path d="M291.72056,171.50669c-0.0189,0.84322 -0.60841,0.81071 -0.60841,0.81071l-0.21675,-0.01443c-0.89514,0.04827 -3.40534,0.57095 -3.74177,-1.1542c-0.096,-0.49232 0.30023,-0.92302 0.44943,-1.38515c0.27194,-0.84234 1.43275,-3.86826 2.30681,-4.9965c-0.6775,-0.07101 -1.3558,-0.09524 -2.03578,-0.13274c0,0 -0.58951,-0.03247 -0.57063,-0.87569c0.0189,-0.84322 0.60842,-0.81074 0.60842,-0.81074c0.94493,0.05205 1.88136,0.09022 2.82191,0.24254l0.05008,0.04683l0.00559,-0.02601l0.55913,0.25111c0.25453,0.10543 0.43724,0.44765 0.42842,0.84294c-0.00651,0.29002 -0.11459,0.54019 -0.27384,0.68334l-0.39933,0.36954c-0.64017,1.20275 -1.22009,2.43845 -1.83686,3.69604c-0.20378,0.4155 -0.40392,1.27467 -0.72719,1.62422c0.12121,-0.05061 0.25388,-0.09503 0.3307,-0.09741c0.65912,-0.02044 1.31116,0.0722 1.97216,0.03539l0.30729,0.01445c0,0 0.58951,0.03247 0.57063,0.87569z" fill="#0a0908" stroke-width="0.5"/></g><path d="M255.64734,299.90273c-0.00534,-0.66145 6.48623,-18.72459 9.44555,-19.85372c1.76481,-0.67336 12.62451,-0.91056 14.543,-0.92606c2.50762,-0.02025 15.21288,0.18426 16.98849,2.04608c3.95456,4.14657 8.62265,18.74489 8.62964,19.60866c0.00853,1.0568 -1.62923,5.01221 -25.87337,4.67418c-19.5976,-0.27324 -23.72479,-4.49231 -23.73334,-5.54912z" fill="#f2c07a" stroke-opacity="0.5098" stroke="#000000" stroke-width="1.5" stroke-linecap="butt"/><path d="M285.60271,213.6786c5.93663,-0.07145 10.76,0.766 10.77329,1.87049c0.0133,1.10449 -4.78852,2.05777 -10.72515,2.12922c-5.93663,0.07145 -10.76,-0.766 -10.77329,-1.87049c-0.0133,-1.10449 4.78852,-2.05777 10.72515,-2.12922z" fill="#000000" stroke="#000000" stroke-width="1.5" stroke-linecap="butt"/></g></g></svg>