<svg version="1.1" xmlns="http://www.w3.org/2000/svg" xmlns:xlink="http://www.w3.org/1999/xlink" width="115.0518" height="294.67568" viewBox="0,0,115.0518,294.67568"><g transform="translate(-183.17872,-32.68758)"><g stroke-miterlimit="10"><g stroke="#0a0908" stroke-width="1.5" stroke-linecap="butt"><path d="" fill="#ffffff"/><path d="M254.67155,177.92538c-2.94028,-2.03301 -3.1019,-13.94335 8.55524,-21.99793c0.56171,-0.38812 17.18845,12.65727 24.46993,21.84399c6.32245,7.97674 5.23328,12.68725 2.89325,15.08772c-0.71236,0.73075 -6.13759,7.87232 -10.43545,6.7327c-10.65828,-2.82615 -25.48294,-21.66647 -25.48294,-21.66647z" fill="#ffd599"/><path d="" fill="#f2c07a"/></g><path d="M255.64688,150.10903c-0.44302,5.73677 -10.48388,9.68552 -18.58591,9.61187c-2.72515,-0.02477 -15.92646,-0.24725 -17.84918,-1.18414c-3.79367,-1.84853 -5.90692,-5.2066 -5.87221,-9.02496c0.0523,-5.75363 8.15097,-10.34462 16.25303,-10.27097c8.10204,0.07365 26.77729,1.50601 26.0543,10.8682z" fill="#ffd599" stroke="#0a0908" stroke-width="1.5" stroke-linecap="butt"/><path d="M247.90007,246.34227c4.71943,-24.13626 23.08688,-23.31622 29.15455,-22.92256c2.19246,0.14224 2.96999,1.25997 3.03114,12.36498c0.16838,30.5723 4.80498,48.67945 4.07709,79.24354c-0.15256,6.40642 -14.08708,7.71521 -21.58398,7.22886c-7.4969,-0.48637 -12.41922,-0.46018 -12.26666,-6.86661c0.00194,-0.08134 0.22032,-2.39316 0.19624,-2.96034c-0.33727,-7.94846 -3.64602,-60.78128 -2.6084,-66.08787z" fill="#382f25" stroke="#0a0908" stroke-width="1.5" stroke-linecap="butt"/><path d="M245.62657,313.93491c0.1779,6.2168 -9.19416,10.39625 -17.85557,10.66502c-8.6614,0.26878 -18.95145,-2.45849 -19.12935,-8.67528c-0.09778,-3.41743 1.24058,-64.44305 1.23545,-67.31743c-0.02808,-15.77208 0.65872,-22.65614 3.95769,-22.7585c7.01018,-0.21752 26.53185,-0.74374 31.99053,22.79025c1.28579,5.54336 -0.23267,64.1108 -0.19875,65.29597z" fill="#382f25" stroke="#0a0908" stroke-width="1.5" stroke-linecap="butt"/><path d="M287.63918,316.03049c0.24327,4.80737 0.27051,8.08749 -6.49779,8.2934c-16.63232,0.50601 -27.17021,-0.21813 -27.41351,-5.02548c-0.1282,-2.53326 5.86599,-6.73047 9.92241,-8.83508c3.64149,-1.88932 9.51332,-4.50747 12.71287,-4.66122c0.21861,-0.0105 -0.02082,0.3015 0.19192,0.3044c6.36892,0.087 10.84867,5.27202 11.08408,9.92401z" fill="#686664" stroke="#0a0908" stroke-width="1.5" stroke-linecap="butt"/><path d="M238.87033,326.51527c-18.6212,0.53923 -30.04311,-2.0016 -30.31734,-7.18434c-0.14448,-2.73108 8.37214,-7.76513 12.91286,-10.03249c10.45142,-5.21881 24.06101,-2.11273 24.66659,9.33415c0,0 0.31553,7.66327 -7.26213,7.88269z" fill="#686664" stroke="#0a0908" stroke-width="1.5" stroke-linecap="butt"/><path d="M279.48546,231.66827c-0.05551,11.28638 -13.62402,24.04761 -32.05603,23.95345c-18.43202,-0.09416 -37.2473,-16.01153 -37.35778,-30.05939c-0.08876,-11.2856 17.70825,-14.59449 36.14025,-14.50033c18.43202,0.09416 33.32909,9.31991 33.27356,20.60629z" fill="#39322b" stroke="#0a0908" stroke-width="1.5" stroke-linecap="butt"/><path d="M278.96139,243.11332c-0.04661,9.47449 -15.17806,17.07796 -33.79707,16.98285c-18.61898,-0.09512 -33.67487,-7.85281 -33.62825,-17.32731c0.02029,-4.122 -0.60536,-15.99252 4.17041,-18.92634c6.20142,-3.80962 19.10808,1.88972 29.62667,1.94345c13.40535,0.06848 25.90906,-8.11189 31.31361,-2.31831c2.10194,2.25323 2.3277,16.99261 2.31464,19.64562z" fill="#382f25" stroke="none" stroke-width="0" stroke-linecap="butt"/><path d="M243.31397,260.8755l10.31953,-1.13043" fill="none" stroke="#0a0908" stroke-width="1.5" stroke-linecap="round"/><path d="M279.55926,230.1702c-0.11412,5.87051 -15.02029,10.9565 -34.95941,10.52832c-19.93913,-0.42817 -36.67998,-4.26933 -36.4769,-14.71578c0.07035,-3.61935 0.2667,-35.14683 8.46139,-59.11442c2.15996,-6.31738 3.70839,-11.73464 6.69812,-15.68689c4.06526,-5.37405 10.90696,-8.00641 17.88777,-8.46765c4.39776,-0.29056 13.62783,3.81902 18.32611,9.77033c3.77844,4.78615 5.84091,20.05726 9.49098,35.47336c4.72776,19.96771 10.60049,40.46338 10.57675,41.68439z" fill="#ffd599" stroke="#0a0908" stroke-width="1.5" stroke-linecap="butt"/><path d="M281.2304,235.73963c-0.02792,1.02303 -0.7469,1.38025 -1.39145,1.76143c-11.12654,6.58036 -40.60459,6.75272 -56.20201,3.92403c-8.41327,-1.52579 -13.21832,-3.61075 -14.89864,-5.48117c-1.49703,-1.6664 -0.00338,-4.06413 0.00327,-4.30753c0.01719,-0.62927 7.26971,5.31488 45.04803,4.73332c15.85379,-0.24404 26.35079,-5.49363 26.63636,-5.61197c1.47232,-0.61022 0.83236,3.95883 0.80444,4.98184z" fill="#f2c07a" stroke="#0a0908" stroke-width="1.5" stroke-linecap="butt"/><g stroke="#0a0908" stroke-width="1.5" stroke-linecap="butt"><path d="" fill="#ffffff"/><path d="M227.32876,149.47741c3.59286,0.92522 -2.04412,33.84905 -13.36758,47.94111c-6.21479,7.73431 -17.56772,4.41349 -22.0487,-0.41356c-3.02203,-3.25543 0.79103,-9.15332 0.50183,-9.31515c11.90267,-19.68924 27.20888,-40.19672 34.91445,-38.2124z" fill="#ffd599"/><path d="" fill="#f2c07a"/></g><path d="M234.51476,161.12799c0.33221,7.42163 -4.25635,14.04958 -7.0538,14.17481c-2.79745,0.12521 -4.85544,-6.20522 -5.18765,-13.62686c-0.18322,-4.0934 0.60854,-7.40804 1.58632,-9.92148c0.79502,-2.04361 3.73387,-3.78162 4.98839,-3.83778c2.79745,-0.12521 5.33452,5.78969 5.66672,13.21131z" fill="#ffd599" stroke="none" stroke-width="0" stroke-linecap="butt"/><path d="M268.14761,164.11231c2.69167,4.9079 4.43802,11.70436 3.00417,12.58188c-1.43386,0.87755 -5.1416,-3.44293 -7.83325,-8.35085c-2.69168,-4.9079 -5.65949,-14.07778 -4.22563,-14.95531c1.43386,-0.87755 6.36305,5.81636 9.05472,10.72427z" fill="#ffd599" stroke="none" stroke-width="0" stroke-linecap="butt"/><path d="M258.87823,151.00949c-0.19246,3.40513 -5.21381,7.92218 -13.89614,7.44317c-9.95763,-0.54936 -17.08259,-6.48574 -16.89013,-9.89086c0.19246,-3.40513 7.38432,-5.72961 16.0635,-5.19186c8.67919,0.53774 14.91521,4.23443 14.72275,7.63956z" fill="#f2c07a" stroke="#0a0908" stroke-width="1.5" stroke-linecap="butt"/><path d="M255.94573,167.62724c0.35963,1.60301 0.9393,3.69479 -0.61563,5.07478c-2.37469,2.10755 -3.05345,-6.35782 -2.72397,-8.64872c0.11268,-0.78351 -1.88111,-8.95538 -0.60386,-10.11638c0.24161,-0.65815 2.61631,-0.99982 2.64398,0.21491c0.00353,0.15485 0.12165,1.10207 0.10456,1.24864c0.90009,2.27306 1.00737,11.39078 1.19492,12.22675z" fill="#969696" stroke="#434242" stroke-width="1" stroke-linecap="butt"/><path d="M246.54094,165.96163c-0.23018,1.00646 -0.87955,3.43669 -0.77077,4.38895c0.20858,1.82603 1.17469,5.58335 -0.74923,6.94374c-2.93824,2.07756 -2.663,-7.42698 -2.00959,-9.94087c0.22349,-0.85979 0.33518,-1.61593 0.51371,-2.56144c0.27607,-1.46203 -1.5347,-7.62528 0.04904,-8.77328c0.3535,-0.70553 3.07461,-0.81655 2.95645,0.5394c-0.01506,0.17284 0.00171,1.24111 -0.03558,1.40242c0.73594,2.63356 0.47632,6.11947 0.04598,8.00107z" fill="#969696" stroke="#434242" stroke-width="1" stroke-linecap="butt"/><path d="M252.85966,149.82441c-0.00666,0.73216 -2.75764,3.89934 -7.89402,3.85265c-5.13637,-0.0467 -10.71311,-3.28957 -10.70646,-4.02174c0.00666,-0.73216 -1.2042,-6.91822 3.88851,-7.38918c18.27451,-1.69001 14.71863,6.82613 14.71197,7.55828z" fill="#ffffff" stroke="#0a0908" stroke-width="1.5" stroke-linecap="butt"/><path d="M286.8835,82.30685c-0.01077,0.39672 0.46319,2.36504 0.8729,5.514c1.12371,8.63645 1.56832,24.79423 -9.49396,31.40661c-0.18924,0.11311 -3.72163,6.4096 -8.17736,7.10055c-3.07353,0.47661 -7.97221,5.36908 -13.23637,6.32544c-8.07075,1.46626 -16.48699,-0.97376 -16.48699,-0.97376c0,0 -10.33771,2.58282 -14.91954,2.72689c-8.11198,0.25509 -16.70836,-4.63368 -16.82957,-4.52094c-0.35507,0.33029 -2.08298,0.21938 -3.38834,-0.77404c-1.33276,-1.01424 -2.24304,-2.91328 -2.56997,-2.7455c-1.16101,0.59586 -6.0108,-2.05852 -9.31,-9.45491c-1.98228,-4.44401 -0.35399,-9.93486 -0.57854,-10.62178c-6.81124,-20.83876 -1.58303,-32.97503 7.98284,-44.05198c0.99538,-1.15263 1.67219,-7.25925 8.47929,-13.87587c8.09523,-7.86869 15.5936,-4.75125 15.5936,-4.75125c0,0 6.81299,-7.79593 19.17624,-7.68353c9.03283,0.08212 17.04396,3.9043 21.06096,9.44226c0.39679,0.54703 3.02483,0.14769 4.90172,0.86708c6.46057,2.47621 17.65029,9.29933 16.92305,36.07074z" fill="#0a0907" stroke="none" stroke-width="0" stroke-linecap="butt"/><path d="M278.51301,106.00995c0.70231,6.30547 0.92624,17.26332 0.72819,18.57128c-2.09527,13.83776 -13.13524,22.91527 -32.56729,23.31758c-21.02814,0.43535 -37.12617,-12.41269 -37.47439,-29.23199c-0.34821,-16.8193 4.18009,-37.5992 30.38103,-39.79436c34.77269,-2.91332 38.06152,24.69396 38.29753,26.81282z" fill="#ffffff" stroke="#000000" stroke-width="1.5" stroke-linecap="butt"/><path d="M287.84506,79.53897c-0.00614,0.40536 0.50207,2.41018 0.95913,5.62173c1.25352,8.80818 2.95927,22.11523 -8.25968,29.00496c-0.9645,0.59231 -0.75634,1.71074 -1.4986,-0.36351c-0.80896,-2.26064 -2.47926,-5.38995 -3.41061,-8.28062c-1.31418,-4.07879 -1.7893,-7.68059 -1.7893,-7.68059c0,0 -4.32932,-2.24122 -6.14334,-3.52177c-1.91875,-1.35453 -5.71662,-6.52028 -5.71662,-6.52028c0,0 -10.52308,0.66204 -14.86301,0.40905c-3.38078,-0.19709 -9.23604,-1.16315 -9.23604,-1.16315c0,0 -4.6337,3.29442 -7.46468,4.60729c-3.11565,1.44486 -10.2464,3.06543 -10.2464,3.06543c0,0 -1.00483,6.2894 -2.61451,10.41883c-1.35788,3.48353 -3.21036,4.44912 -4.60531,8.71075c-1.10723,3.38263 -0.06693,6.51512 -0.76282,9.21583c-0.81129,3.14854 -3.29535,5.63183 -3.71794,6.03447c-0.35866,0.34171 -2.12503,0.24958 -3.47061,-0.74919c-1.37379,-1.01972 -2.32687,-2.94841 -2.65875,-2.77301c-1.17865,0.62287 -6.16509,-2.02919 -9.62563,-9.54404c-2.07924,-4.51522 -0.98317,-10.14246 -1.22093,-10.84138c-5.21398,-21.70875 0.48091,-33.17108 7.61957,-43.59577c1.00265,-1.18956 0.11928,-7.43128 6.99163,-14.27332c8.1728,-8.13675 17.86604,-6.5499 17.86604,-6.5499c0,0 6.86392,-8.04673 19.49407,-8.0832c9.22784,-0.02666 17.45782,3.77958 21.62884,9.38734c0.41201,0.55392 3.0916,0.11385 5.0176,0.82571c6.62962,2.45035 18.14315,9.28307 17.72789,36.63834z" fill="#0a0907" stroke="#000000" stroke-width="1" stroke-linecap="butt"/><path d="M246.84069,117.81346c-0.07491,8.2401 -6.2995,14.0486 -14.96522,13.80675c-8.01217,-0.22362 -14.10597,-5.99445 -13.89496,-14.23219c0.25279,-9.86922 6.46701,-14.53632 14.48197,-14.46345c8.01496,0.07287 14.45311,6.64878 14.3782,14.88889z" fill="#ffffff" stroke="#000000" stroke-width="1.5" stroke-linecap="butt"/><path d="M264.91177,101.78081c6.55378,0.05958 11.55871,4.64557 11.6058,14.13484c0.0393,7.92062 -5.03597,13.36833 -11.58992,13.4537c-7.08853,0.09231 -12.08349,-5.59084 -12.01149,-13.51151c0.07201,-7.92067 5.44183,-14.13659 11.99561,-14.07701z" fill="#ffffff" stroke="#000000" stroke-width="1.5" stroke-linecap="butt"/><path d="M242.84545,118.07331c-0.02282,2.50985 -1.43345,4.53187 -3.15072,4.51625c-1.71727,-0.01561 -3.09092,-2.06292 -3.0681,-4.57279c0.02282,-2.50985 1.43345,-4.53187 3.15072,-4.51625c1.71727,0.01561 3.09092,2.06292 3.0681,4.57279z" fill="#000000" stroke="#000000" stroke-width="1.5" stroke-linecap="butt"/><path d="M260.13846,117.87307c-0.02282,2.50985 -1.32635,4.53284 -2.91154,4.51843c-1.58518,-0.01441 -2.85174,-2.06075 -2.82892,-4.57061c0.02282,-2.50985 1.32635,-4.53284 2.91154,-4.51843c1.58518,0.01441 2.85174,2.06074 2.82892,4.57061z" fill="#000000" stroke="#000000" stroke-width="1.5" stroke-linecap="butt"/><g stroke="#0a0908" stroke-linecap="butt"><path d="M263.93629,87.62994c0.01082,0.2366 -0.49637,2.68611 -0.28927,5.10822c0.23661,2.76719 2.40578,5.80885 0.28377,7.41187c-5.41783,4.09279 -19.64654,2.40356 -23.99628,2.43482c-4.00549,0.0288 -3.35609,-3.80499 -3.11394,-7.57832c0.21395,-3.33396 -0.17993,-6.61865 -0.2056,-7.18015c-0.05472,-1.19701 6.01701,-2.21132 13.56158,-2.26558c7.54457,-0.05426 13.70503,0.87215 13.75973,2.06912z" fill="#ffbc6f" stroke-width="1.5"/><path d="M238.64482,89.65094c-0.03114,-0.76952 0.69698,-0.7773 0.69698,-0.7773l0.25009,-0.00039c6.21665,0.44302 7.48259,11.19179 0.85539,11.31417c0,0 -0.00332,0.00005 -0.00942,-0.00012c-0.10137,0.0825 -0.24226,0.1397 -0.43809,0.14177c-0.72811,0.00775 -0.75927,-0.76179 -0.75927,-0.76179l-0.01109,-0.27358c-0.12145,-3.00046 -0.12342,-6.00134 -0.23523,-8.99623c-0.17154,-0.10107 -0.33496,-0.2907 -0.34936,-0.6465zM240.66138,98.63893c4.10689,-0.28248 3.37015,-6.83113 -0.20064,-8.04614c0.09102,2.67939 0.10571,5.36223 0.20064,8.04614z" fill="#0a0908" stroke-width="0.5"/><path d="M249.3384,89.33879c0.65179,-0.16411 0.81251,0.61256 0.81251,0.61256l0.09171,0.50753c0.0533,1.42215 0.10691,2.84426 0.1593,4.2664c-0.04826,1.36882 -0.02929,3.58463 -0.96598,4.54328c-1.14551,1.17226 -2.79383,0.52571 -3.46305,-1.01332c-0.93236,-2.14416 -0.46196,-5.93893 -0.5504,-8.29919c0,0 -0.02973,-0.79376 0.64093,-0.80236c0.67065,-0.0086 0.70042,0.78515 0.70042,0.78515c0.08021,2.14057 -0.38177,5.68653 0.40479,7.64203c1.13658,2.82565 1.86967,-2.20138 1.89066,-2.90434c-0.05346,-1.40012 -0.10551,-2.80026 -0.15799,-4.2004l-0.05398,-0.1965c0,0 -0.16068,-0.77667 0.49113,-0.94075z" fill="#0a0908" stroke-width="0.5"/><path d="M251.76713,98.88506c-0.70945,0.01068 -0.74028,-0.88277 -0.74028,-0.88277l-0.00546,-0.15883c-0.08999,-2.79801 -0.06148,-5.48414 0.42869,-8.18798c0,0 0.13812,-0.76123 0.72713,-0.66971c0.44309,-0.00545 0.62064,0.34248 0.69147,0.60311c0.53419,0.86954 0.88184,1.85559 1.28139,2.82032c0.30318,-1.06373 0.50108,-2.21012 0.77005,-3.27367c0,0 0.21346,-0.84335 0.89073,-0.54807c0.01524,0.00663 0.03,0.01353 0.04435,0.02073c0.56751,-0.07225 0.74104,0.67019 0.74104,0.67019l0.08975,0.3974c0.42241,2.72418 0.66226,5.69802 0.22662,8.3751c0,0 -0.14215,0.86943 -0.83789,0.66309c-0.69575,-0.20629 -0.55362,-1.07571 -0.55362,-1.07571c0.2432,-1.47983 -0.03466,-3.07326 -0.02167,-4.65771c-0.12613,0.45837 -0.26748,0.90662 -0.43523,1.33635l-0.23991,0.35593c-0.0488,0.10308 -0.12309,0.20368 -0.23207,0.29518c-0.16804,0.14113 -0.32148,0.17913 -0.45474,0.1618c-0.13336,-0.01534 -0.28088,-0.09024 -0.43202,-0.27049c-0.08441,-0.10065 -0.14271,-0.2017 -0.1812,-0.3004c-0.39356,-0.76474 -0.68372,-1.61597 -1.01741,-2.4229c-0.26125,1.87142 -0.13875,3.7491 -0.06654,5.68615l0.00547,0.15881c0,0 0.03085,0.89349 -0.6786,0.90419z" fill="#0a0908" stroke-width="0.5"/><path d="M262.51887,97.60129c0.04917,0.842 -0.54105,0.85714 -0.54105,0.85714l-0.2172,0.0031c-0.88833,0.1203 -3.3482,0.84373 -3.82267,-0.84868c-0.13539,-0.48298 0.22482,-0.94423 0.33625,-1.41689c0.20312,-0.86153 1.11612,-3.97121 1.89634,-5.16626c-0.68103,-0.01613 -1.35906,0.01441 -2.03985,0.03187c0,0 -0.5902,0.01517 -0.63939,-0.82682c-0.04917,-0.842 0.54105,-0.85717 0.54105,-0.85717c0.94605,-0.02432 1.88251,-0.0618 2.83228,0.01418l0.0537,0.04264l0.00348,-0.02637l0.57756,0.20521c0.26221,0.08456 0.47192,0.41094 0.495,0.80565c0.0169,0.28959 -0.07065,0.54766 -0.21785,0.7032l-0.36823,0.40054c-0.54109,1.25046 -1.01946,2.52889 -1.5328,3.83214c-0.1696,0.43057 -0.2998,1.3031 -0.59384,1.67757c0.11673,-0.06022 0.24539,-0.11519 0.32176,-0.12376c0.65532,-0.07352 1.31271,-0.03377 1.96859,-0.12378l0.30745,-0.01038c0,0 0.5902,-0.01517 0.63939,0.82682z" fill="#0a0908" stroke-width="0.5"/></g><path d="M276.70246,226.4813c-0.00961,1.0568 -4.14107,5.27169 -23.73893,5.52511c-24.24447,0.31351 -25.87823,-3.64355 -25.86863,-4.70034c0.00786,-0.86376 4.69071,-15.45735 8.64947,-19.59992c1.7775,-1.86002 14.48295,-2.05168 16.99055,-2.02889c1.91847,0.01744 12.77794,0.26562 14.54205,0.94077c2.95817,1.13212 9.43147,19.20182 9.42546,19.86326z" fill="#f2c07a" stroke-opacity="0.5098" stroke="#000000" stroke-width="1.5" stroke-linecap="butt"/><path d="M264.65513,140.90437c0,0 -3.99785,4.27454 -22.76286,3.20313c-11.08377,-0.63284 -14.03305,-3.67972 -14.03305,-3.67972" fill="#000000" stroke="#000000" stroke-width="1.5" stroke-linecap="round"/><path d="" fill="#ffd599" stroke="#0a0908" stroke-width="1.5" stroke-linecap="butt"/><g stroke-linecap="butt"><g stroke="#0a0908" stroke-width="1.5"><path d="M284.70471,165.12461c-6.07318,-0.12431 -9.15477,-6.32671 -9.60144,-11.66378c-0.44668,-5.33708 4.11451,-9.56289 10.18771,-9.43859c6.07319,0.1243 11.35858,4.5516 11.80526,9.88866c0.44668,5.33706 -6.31829,11.33796 -12.39148,11.21367z" fill="#ffffff"/><path d="M272.83676,157.61811c0.06642,-0.32145 0.13689,-0.63677 0.21161,-0.94588c1.18332,0.82587 2.28216,1.45608 3.49521,2.07281c0.84582,0.43003 1.33224,1.53321 2.23686,1.80485c2.32219,0.47976 4.69413,0.29334 6.99761,0.3585c2.27798,0.06445 4.53605,-0.02906 6.82338,0.03563c1.63178,0.04616 3.226,-0.26079 4.87881,-0.31017c0.00157,0.01418 0.00313,0.02837 0.00468,0.04255c0.1737,1.59684 -5.38688,26.4141 -6.72432,31.98299c-2.81956,1.7419 -16.06864,-9.17605 -19.76897,-19.17075c-0.93007,-2.51214 1.76077,-15.46216 1.84514,-15.87051z" fill="#ffd599"/><path d="M285.77618,161.70362c-5.74225,-0.88245 -12.25441,-2.13533 -12.34645,-3.23516c-0.08296,-0.99147 -0.09949,-4.15581 2.00589,-4.52011c1.64593,-0.28479 6.54776,1.27494 10.67819,2.04106c2.87605,0.53346 7.91872,1.06394 8.29374,1.20074c3.25396,1.18689 2.98792,2.97267 3.13865,4.77342c0.10099,1.20651 -5.19079,1.2683 -11.48992,0.30029z" fill="#f2c07a"/></g><path d="M272.19791,170.50034c0.94937,0.5425 1.76164,1.31475 2.48505,2.22498c2.26299,2.84741 3.65639,7.04501 5.6569,9.7832c1.01299,1.38652 2.79407,2.54008 3.94207,3.86373c1.00079,1.15392 5.4721,3.09653 5.4721,4.73192c0,1.49895 -0.61097,3.12619 -1.76402,3.50051c-0.66006,0.21427 -1.59191,-0.54697 -2.44998,-0.54697c-1.26028,0 -2.32017,-2.43196 -3.42821,-2.84622c-4.14348,-1.54907 -8.13164,-9.21214 -10.18927,-12.89162c-0.53024,-0.94818 -3.70304,-5.54616 -1.87918,-6.58837z" fill="#ffd599" stroke="none" stroke-width="0.5"/></g><g stroke-linecap="butt"><g stroke="#0a0908" stroke-width="1.5"><path d="M197.46567,169.53165c-6.35886,0.29114 -13.60475,-5.81601 -13.27824,-11.41885c0.3265,-5.60284 5.74605,-10.38086 12.10492,-10.67201c6.35887,-0.29115 11.24908,4.01485 10.92258,9.61771c-0.32649,5.60285 -3.39034,12.18203 -9.7492,12.47319z" fill="#ffffff"/><path d="M209.69943,161.35355c0.09921,0.42554 3.26125,13.92043 2.3535,16.57675c-3.61153,10.56832 -17.20169,22.35685 -20.20157,20.60679c-1.54865,-5.79842 -8.03147,-31.64916 -7.89182,-33.32658c0.00125,-0.01489 0.00251,-0.0298 0.00377,-0.0447c1.73276,0.00793 3.41097,0.28724 5.11917,0.19564c2.39445,-0.12838 4.76244,-0.09026 7.1471,-0.21814c2.41136,-0.1293 4.90109,0.00313 7.32106,-0.561c0.94047,-0.30854 1.42079,-1.47709 2.29546,-1.95c1.25442,-0.67822 2.38885,-1.36754 3.60659,-2.26406c0.08647,0.32184 0.16865,0.6503 0.24675,0.98528z" fill="#ffd599"/><path d="M195.97403,166.57065c-6.5732,1.18099 -12.1184,1.25649 -12.04458,-0.0101c0.11018,-1.89043 -0.21584,-3.75413 3.16149,-5.08372c0.38924,-0.15325 5.65779,-0.8426 8.65655,-1.47766c4.30666,-0.91203 9.40039,-2.67587 11.13218,-2.42115c2.21521,0.32584 2.28175,3.64118 2.22111,4.68202c-0.06727,1.1546 -6.85609,2.63967 -12.84818,3.71628z" fill="#f2c07a"/></g><path d="M212.99975,176.06442c1.93826,1.04347 -1.26365,5.9443 -1.794,6.95165c-2.05803,3.90908 -6.03288,12.04244 -10.33246,13.77503c-1.14978,0.46332 -2.19566,3.03909 -3.5159,3.07249c-1.26337,0.03196 -2.31297,1.30506 -3.25679,0.93754c-0.90082,-0.35078 -1.72459,-2.3121 -1.75509,-3.5179c-0.04334,-1.7132 5.10836,-4.26877 6.12619,-5.50412c1.16755,-1.41706 3.00281,-2.67271 4.02725,-4.15204c2.02314,-2.92149 3.3716,-7.35574 5.66681,-10.3986c0.7337,-0.9727 1.56416,-1.80322 2.54433,-2.39669z" fill="#ffd599" stroke="none" stroke-width="0.5"/></g></g></g></svg>