<svg version="1.1" xmlns="http://www.w3.org/2000/svg" xmlns:xlink="http://www.w3.org/1999/xlink" width="103.50136" height="294.73889" viewBox="0,0,103.50136,294.73889"><g transform="translate(-187.66514,-33.01235)"><g stroke-miterlimit="10"><path d="M254.97712,150.23315c-0.39085,5.74057 -10.3954,9.78043 -18.49777,9.78043c-2.72526,0 -15.92805,-0.10246 -17.8592,-1.02183c-3.81031,-1.81397 -5.95401,-5.15269 -5.95401,-8.97121c0,-5.75387 8.05659,-10.41829 16.15898,-10.41829c8.10237,0 26.78987,1.26253 26.15202,10.6309z" fill="#ffd599" stroke="#0a0908" stroke-width="1.5" stroke-linecap="butt"/><g stroke="#0a0908" stroke-width="1.5" stroke-linecap="butt"><path d="M272.88545,219.77688c7.30326,-1.32187 16.84634,3.49081 17.53105,9.04246c0.68471,5.55165 -4.68068,11.12374 -11.98392,12.44561c-7.30326,1.32187 -13.77876,-2.10707 -14.46348,-7.65874c-0.68472,-5.55165 1.61309,-12.50747 8.91632,-13.82936z" fill="#ffffff"/><path d="M250.40741,146.64081c9.27776,-1.67924 27.24196,37.71508 35.12126,60.04959c2.22203,6.29848 3.46318,12.8789 3.69977,14.79714c0.0021,0.01703 0.00417,0.03407 0.00624,0.05111c-2.01569,0.24639 -4.0325,0.17775 -5.99599,0.53314c-2.75229,0.49815 -5.51342,0.80401 -8.25446,1.30014c-2.77172,0.50167 -5.69678,0.71879 -8.37511,1.71363c-1.01963,0.48764 -1.29999,1.88043 -2.20407,2.54433c-1.29662,0.95215 -2.45111,1.89916 -3.65318,3.09287c-0.17704,-0.35133 -0.35064,-0.71082 -0.52106,-1.07827c-2.81885,-6.078 -17.87188,-81.54689 -9.82341,-83.00364z" fill="#ffd599"/><path d="M274.40895,221.37531c7.38251,-2.23006 14.54924,-2.14336 14.70402,-0.88834c0.23103,1.87315 0.96171,3.64901 -2.69437,5.50415c-0.42137,0.2138 -6.3874,1.7488 -9.73711,2.86066c-4.81068,1.59678 -10.37065,4.15777 -12.42298,4.18997c-2.62524,0.04118 -3.33097,-3.20153 -3.45818,-4.23287c-0.14111,-1.14405 6.87877,-5.40062 13.60863,-7.43354z" fill="#f2c07a"/></g><path d="M248.01401,246.61799c4.49983,-24.17816 22.87397,-23.52513 28.94496,-23.18665c2.19366,0.1223 2.98133,1.23292 3.14342,12.33691c0.44629,30.56951 5.2473,48.63376 4.79729,79.2032c-0.09432,6.40754 -14.01637,7.84295 -21.51737,7.42477c-7.50101,-0.4182 -12.42289,-0.34726 -12.32857,-6.75481c0.0012,-0.08136 0.19855,-2.39506 0.16933,-2.96201c-0.40951,-7.94506 -4.19841,-60.74563 -3.20907,-66.06142z" fill="#382f25" stroke="#0a0908" stroke-width="1.5" stroke-linecap="butt"/><path d="M246.35507,314.2285c0.2344,6.21493 -9.09927,10.4794 -17.75788,10.8269c-8.6586,0.34751 -18.97302,-2.28611 -19.20742,-8.50102c-0.12884,-3.4164 0.6547,-64.45167 0.62344,-67.32588c-0.17146,-15.77117 0.45274,-22.66119 3.75064,-22.79354c7.00792,-0.28124 26.52399,-0.9849 32.19638,22.49849c1.33613,5.53144 0.35014,64.11026 0.39484,65.29508z" fill="#382f25" stroke="#0a0908" stroke-width="1.5" stroke-linecap="butt"/><path d="M288.38498,315.94207c0.28696,4.80496 0.34402,8.08469 -6.42213,8.35212c-16.62703,0.65719 -27.17107,0.02888 -27.45806,-4.77607c-0.15122,-2.53199 5.80456,-6.78352 9.84169,-8.92491c3.62416,-1.92235 9.47195,-4.59376 12.66997,-4.77659c0.2185,-0.01249 -0.01807,0.30168 0.19468,0.30265c6.36945,0.02909 10.89615,5.17318 11.17384,9.82284z" fill="#686664" stroke="#0a0908" stroke-width="1.5" stroke-linecap="butt"/><path d="M239.71346,326.86977c-18.61553,0.70849 -30.06007,-1.7284 -30.38139,-6.90844c-0.1693,-2.72965 8.3012,-7.84091 12.82112,-10.14946c10.40354,-5.31361 24.04081,-2.33137 24.75042,9.10953c0,0 0.38518,7.66008 -7.19017,7.94838z" fill="#686664" stroke="#0a0908" stroke-width="1.5" stroke-linecap="butt"/><path d="M279.4647,231.65746c0.04709,11.28642 -13.40485,24.17047 -31.83696,24.24387c-18.43211,0.0734 -37.39132,-15.67226 -37.62949,-29.71855c-0.19135,-11.28433 17.57484,-14.75487 36.00694,-14.82827c18.43211,-0.0734 33.41244,9.01654 33.45951,20.30296z" fill="#39322b" stroke="#0a0908" stroke-width="1.5" stroke-linecap="butt"/><path d="M279.0447,243.1068c0.03952,9.47452 -15.02219,17.21523 -33.64129,17.28939c-18.61908,0.07414 -33.74487,-7.54636 -33.78438,-17.02089c-0.01718,-4.12201 -0.75071,-15.98636 3.99818,-18.96347c6.16653,-3.86584 19.12447,1.71594 29.64311,1.67405c13.40542,-0.05339 25.83425,-8.34709 31.29124,-2.60288c2.12233,2.23403 2.48208,16.97075 2.49314,19.62377z" fill="#382f25" stroke="none" stroke-width="0" stroke-linecap="butt"/><path d="M253.86904,259.96811l-10.30882,1.22419" fill="none" stroke="#0a0908" stroke-width="1.5" stroke-linecap="round"/><path d="M279.64772,230.15908c-0.06075,5.87131 -14.92006,11.09259 -34.86226,10.84569c-19.9422,-0.2469 -36.71727,-3.93571 -36.60917,-14.38357c0.03745,-3.61984 -0.05282,-35.1478 7.92365,-59.1889c2.10244,-6.33676 3.60156,-11.76786 6.55524,-15.74713c4.01624,-5.41078 10.83372,-8.10523 17.81005,-8.62991c4.39494,-0.33053 13.66198,3.69498 18.41417,9.60333c8.77197,10.90611 8.04825,21.37935 11.8623,33.94972c1.41442,4.66162 8.9284,40.85843 8.90601,43.02241z" fill="#ffd599" stroke="#0a0908" stroke-width="1.5" stroke-linecap="butt"/><path d="M281.24658,235.71279c-0.01862,1.02324 -0.73432,1.38699 -1.37538,1.77401c-11.06626,6.68123 -40.54153,7.12156 -56.16402,4.43478c-8.42679,-1.44924 -13.2506,-3.49044 -14.94785,-5.34551c-1.51212,-1.65272 -0.04032,-4.06393 -0.03589,-4.30738c0.01147,-0.6294 7.31773,5.24857 45.0892,4.32361c15.85091,-0.38815 26.29976,-5.73295 26.58425,-5.85388c1.46671,-0.62358 0.86832,3.9511 0.8497,4.97432z" fill="#f2c07a" stroke="#0a0908" stroke-width="1.5" stroke-linecap="butt"/><g stroke="#0a0908" stroke-width="1.5" stroke-linecap="butt"><path d="M216.26422,237.20714c-0.54344,5.71646 -6.93021,9.38762 -14.26524,8.19976c-7.33505,-1.18784 -12.84074,-6.78489 -12.2973,-12.50134c0.54344,-5.71646 9.96183,-10.87966 17.29689,-9.69183c7.33505,1.18784 9.80909,8.27693 9.26566,13.99338z" fill="#ffffff"/><path d="M219.90091,233.05235c-0.16102,0.38123 -0.32547,0.75443 -0.49352,1.11927c-1.23213,-1.19785 -2.4104,-2.14344 -3.7309,-3.09104c-0.92073,-0.66072 -1.23645,-2.08435 -2.26821,-2.56142c-2.70296,-0.95938 -5.6328,-1.11445 -8.4166,-1.56527c-2.75298,-0.4458 -5.5212,-0.69581 -8.2855,-1.14347c-1.972,-0.31936 -3.98659,-0.20206 -6.00805,-0.4083c0.00162,-0.01753 0.00324,-0.03508 0.00491,-0.05262c0.18777,-1.97518 1.26137,-8.76089 3.32274,-15.27986c7.30966,-23.11638 24.05548,-63.13372 33.37364,-61.62471c8.08352,1.30906 -4.83489,78.301 -7.49855,84.60742z" fill="#ffd599"/><path d="M219.31032,232.20753c-0.10094,1.06198 -0.72408,4.40801 -3.34971,4.42663c-2.05265,0.01458 -7.67632,-2.4861 -12.52643,-4.01408c-3.37714,-1.06394 -9.38072,-2.50167 -9.80742,-2.71143c-3.70233,-1.82005 -3.01699,-3.66052 -2.83361,-5.58925c0.12285,-1.29225 7.28559,-1.5476 14.72297,0.57097c6.77986,1.93129 13.90622,6.13913 13.79424,7.31715z" fill="#f2c07a"/></g><path d="M234.15092,161.94431c0,7.42906 -4.88034,13.8452 -7.6806,13.8452c-2.80025,0 -4.57311,-6.41613 -4.57311,-13.8452c0,-4.0975 0.93919,-7.37341 2.02839,-9.84063c0.88561,-2.00602 3.89923,-3.61087 5.15501,-3.61087c2.80025,0 5.07029,6.02244 5.07029,13.45149z" fill="#ffd599" stroke="none" stroke-width="0" stroke-linecap="butt"/><path d="M267.5132,164.20736c2.73617,4.88323 4.54423,11.66353 3.11842,12.55405c-1.42582,0.89055 -5.17268,-3.39605 -7.90884,-8.2793c-2.73618,-4.88323 -5.78723,-14.02575 -4.36141,-14.91628c1.42582,-0.89055 6.41566,5.75827 9.15184,10.64151z" fill="#ffd599" stroke="none" stroke-width="0" stroke-linecap="butt"/><path d="M258.12507,151.18934c-0.1615,3.40674 -5.14158,7.96925 -13.8279,7.56919c-9.96221,-0.45882 -17.14084,-6.33018 -16.97934,-9.73691c0.1615,-3.40674 7.33193,-5.7965 16.01564,-5.33768c8.68372,0.45882 14.95309,4.09866 14.79159,7.5054z" fill="#f2c07a" stroke="#0a0908" stroke-width="1.5" stroke-linecap="butt"/><path d="M254.18085,168.61998c0.37418,1.59968 0.97284,3.6861 -0.56948,5.08017c-2.35543,2.12905 -3.11112,-6.3298 -2.80248,-8.6236c0.10555,-0.78451 -1.96245,-8.93791 -0.6958,-10.11047c0.23562,-0.66032 2.60711,-1.02356 2.64582,0.19087c0.00493,0.15481 0.13166,1.10091 0.11591,1.24764c0.92072,2.26478 1.11088,11.38115 1.30602,12.21538z" fill="#969696" stroke="#434242" stroke-width="1" stroke-linecap="butt"/><path d="M245.3251,166.12598c-0.22102,1.00851 -0.84827,3.44454 -0.73084,4.39577c0.22517,1.82405 1.2254,5.57244 -0.68607,6.95026c-2.91923,2.10419 -2.73041,-7.40246 -2.09988,-9.92219c0.21566,-0.86179 0.32047,-1.61891 0.4904,-2.566c0.26277,-1.46447 -1.60396,-7.61101 -0.03072,-8.77336c0.34707,-0.70872 3.06706,-0.84446 2.96123,0.5125c-0.01349,0.17297 0.013,1.24105 -0.02283,1.40269c0.75985,2.62676 0.53193,6.11488 0.11871,8.00032z" fill="#969696" stroke="#434242" stroke-width="1" stroke-linecap="butt"/><path d="M252.09598,150.05902c0,0.73219 -2.72208,3.92425 -7.85867,3.92425c-5.13659,0 -10.74257,-3.19205 -10.74257,-3.92425c0,-0.73219 -1.26704,-6.90699 3.82118,-7.42422c18.2584,-1.85606 14.78007,6.69205 14.78007,7.42422z" fill="#ffffff" stroke="#0a0908" stroke-width="1.5" stroke-linecap="butt"/><path d="M285.50465,82.23496c-0.00717,0.3968 0.48467,2.36073 0.92299,5.50583c1.20217,8.62587 1.79365,24.77895 -9.20806,31.49161c-0.1882,0.11482 -3.6632,6.44317 -8.11247,7.17459c-3.06907,0.50453 -7.92307,5.44133 -13.17832,6.44551c-8.05708,1.53957 -16.49516,-0.82384 -16.49516,-0.82384c0,0 -10.3138,2.67669 -14.89414,2.86241c-8.10932,0.32882 -16.74979,-4.4816 -16.86997,-4.36776c-0.35205,0.3335 -2.0809,0.2383 -3.39524,-0.7432c-1.34192,-1.00208 -2.26943,-2.89277 -2.59482,-2.72203c-1.15554,0.60639 -6.02927,-2.00379 -9.39556,-9.36988c-2.0226,-4.42581 -0.44429,-9.93123 -0.67507,-10.61609c-7.0004,-20.77598 -1.88272,-32.95927 7.58205,-44.12273c0.98486,-1.16163 1.60613,-7.27415 8.3528,-13.95238c8.02337,-7.94196 15.54976,-4.89281 15.54976,-4.89281c0,0 6.74184,-7.85754 19.1056,-7.85754c9.03321,0 17.07875,3.7492 21.14593,9.25041c0.40175,0.5434 3.02605,0.12019 4.9094,0.82248c6.48281,2.41738 17.73409,9.13849 17.25026,35.9154z" fill="#0a0907" stroke="none" stroke-width="0" stroke-linecap="butt"/><path d="M277.34997,106.01318c0.7596,6.29883 1.08314,17.25419 0.89699,18.56389c-1.96939,13.85623 -12.92638,23.03373 -32.35397,23.61267c-21.02332,0.62649 -37.23748,-12.07468 -37.73858,-28.89012c-0.50109,-16.81544 3.83811,-37.63564 30.01802,-40.0689c34.74477,-3.22931 38.28443,24.34693 38.53969,26.46356z" fill="#ffffff" stroke="#000000" stroke-width="1.5" stroke-linecap="butt"/><path d="M286.441,79.45845c-0.00246,0.4054 0.52396,2.40551 1.01019,5.61278c1.33354,8.79642 3.16019,22.08741 -7.99566,29.07885c-0.95908,0.60106 -0.74076,1.71754 -1.50184,-0.34987c-0.82947,-2.2532 -2.52815,-5.36719 -3.48575,-8.24927c-1.35121,-4.06667 -1.85905,-7.66401 -1.85905,-7.66401c0,0 -4.34952,-2.20177 -6.1751,-3.46578c-1.93099,-1.33703 -5.77565,-6.46805 -5.77565,-6.46805c0,0 -10.51663,0.75768 -14.85868,0.54415c-3.38243,-0.16635 -9.24623,-1.07914 -9.24623,-1.07914c0,0 -4.60356,3.33641 -7.42249,4.67495c-3.10239,1.47313 -10.21811,3.15845 -10.21811,3.15845c0,0 -0.94761,6.29827 -2.51969,10.44216c-1.32616,3.49573 -3.16978,4.47812 -4.52593,8.75225c-1.07644,3.39256 -0.0077,6.51546 -0.67902,9.22238c-0.78264,3.15578 -3.24402,5.66156 -3.66293,6.06802c-0.35554,0.34496 -2.12267,0.26889 -3.47727,-0.71761c-1.383,-1.00719 -2.35358,-2.92713 -2.68385,-2.74873c-1.17294,0.63355 -6.18328,-1.97306 -9.712,-9.45614c-2.1202,-4.49613 -1.07533,-10.1331 -1.31943,-10.82984c-5.41111,-21.66045 0.17935,-33.17408 7.22295,-43.66324c0.99179,-1.19863 0.05172,-7.43206 6.86159,-14.33629c8.09849,-8.21071 17.80576,-6.71204 17.80576,-6.71204c0,0 6.79049,-8.10879 19.41979,-8.26008c9.22722,-0.11054 17.49145,3.62073 21.71328,9.19034c0.41703,0.55015 3.09251,0.08574 5.02489,0.78006c6.65162,2.38998 18.22679,9.11775 18.06023,36.47567z" fill="#0a0907" stroke="#000000" stroke-width="1" stroke-linecap="butt"/><path d="M247.8185,118.26257c0,8.24044 -6.17153,14.10529 -14.83909,13.94223c-8.01388,-0.15077 -14.15988,-5.86597 -14.02376,-14.10529c0.16306,-9.87111 6.3346,-14.5945 14.34989,-14.5945c8.01529,0 14.51296,6.51712 14.51296,14.75756z" fill="#ffffff" stroke="#000000" stroke-width="1.5" stroke-linecap="butt"/><path d="M265.67033,102.0663c6.28182,0 11.11864,4.5403 11.24644,14.02875c0.10668,7.91993 -4.71012,13.41356 -10.99085,13.5585c-6.79302,0.15675 -11.62984,-5.48076 -11.62984,-13.40176c0,-7.92099 5.09242,-14.18548 11.37424,-14.18548z" fill="#ffffff" stroke="#000000" stroke-width="1.5" stroke-linecap="butt"/><path d="M247.84122,119.04032c0,2.50996 -1.5176,4.54471 -3.38964,4.54471c-1.87205,0 -3.38964,-2.03474 -3.38964,-4.54471c0,-2.50996 1.5176,-4.54471 3.38964,-4.54471c1.87205,0 3.38964,2.03474 3.38964,4.54471z" fill="#000000" stroke="#000000" stroke-width="1.5" stroke-linecap="butt"/><path d="M276.14057,116.95255c0,2.50996 -1.22239,4.54471 -2.7303,4.54471c-1.50789,0 -2.7303,-2.03474 -2.7303,-4.54471c0,-2.50996 1.22239,-4.54471 2.7303,-4.54471c1.50789,0 2.7303,2.03473 2.7303,4.54471z" fill="#000000" stroke="#000000" stroke-width="1.5" stroke-linecap="butt"/><g stroke="#0a0908" stroke-linecap="butt"><path d="M263.04442,87.78333c0.01297,0.23649 -0.47193,2.69051 -0.24282,5.11063c0.26176,2.76493 2.45848,5.78674 0.35113,7.40899c-5.3804,4.14188 -19.62388,2.58206 -23.97315,2.65286c-4.00506,0.06521 -3.39054,-3.77432 -3.1827,-7.54969c0.18364,-3.33576 -0.24009,-6.61674 -0.27087,-7.17798c-0.0656,-1.19646 5.99666,-2.26593 13.54043,-2.38877c7.54376,-0.12285 13.71239,0.74752 13.77798,1.94395z" fill="#ffbc6f" stroke-width="1.5"/><path d="M237.77237,90.03417c-0.03814,-0.76921 0.68988,-0.7836 0.68988,-0.7836l0.25008,-0.00266c6.22042,0.38649 7.58402,11.12331 0.9582,11.30593c0,0 -0.00332,0.00008 -0.00942,-0.00003c-0.10061,0.08342 -0.24098,0.14189 -0.43679,0.14575c-0.72801,0.01437 -0.76616,-0.75486 -0.76616,-0.75486l-0.01357,-0.27346c-0.14872,-2.99923 -0.17797,-5.99997 -0.317,-8.99372c-0.17245,-0.09951 -0.33759,-0.28764 -0.35522,-0.6433zM239.87056,99.00346c4.10415,-0.3198 3.30791,-6.86148 -0.27378,-8.04398c0.11538,2.67845 0.15445,5.36105 0.27378,8.04398z" fill="#0a0908" stroke-width="0.5"/><path d="M248.46267,89.62482c0.65028,-0.17003 0.81805,0.60514 0.81805,0.60514l0.09632,0.50668c0.06623,1.42161 0.13277,2.84317 0.19808,4.26478c-0.03582,1.36921 0.0033,3.58475 -0.92464,4.55187c-1.1348,1.18263 -2.78893,0.55109 -3.47212,-0.9818c-0.95181,-2.13559 -0.51593,-5.93448 -0.62582,-8.29384c0,0 -0.03695,-0.79345 0.63361,-0.80815c0.67055,-0.0147 0.70753,0.77875 0.70753,0.77875c0.09967,2.13975 -0.33006,5.68976 0.47425,7.63804c1.16222,2.8152 1.84958,-2.21828 1.86418,-2.92141c-0.06618,-1.39958 -0.13096,-2.79919 -0.19616,-4.19879l-0.05576,-0.196c0,0 -0.16773,-0.77518 0.48255,-0.94518z" fill="#0a0908" stroke-width="0.5"/><path d="M250.97809,99.14862c-0.70932,0.01713 -0.74828,-0.87601 -0.74828,-0.87601l-0.0069,-0.15878c-0.11542,-2.79708 -0.11133,-5.48336 0.35423,-8.19154c0,0 0.1312,-0.76245 0.72101,-0.6763c0.44302,-0.00948 0.62373,0.33682 0.69693,0.5968c0.54208,0.86464 0.89867,1.84749 1.30697,2.80855c0.2935,-1.06644 0.48097,-2.21459 0.74026,-3.28054c0,0 0.20579,-0.84525 0.88571,-0.55614c0.0153,0.00649 0.03012,0.01325 0.04454,0.02033c0.56683,-0.07741 0.74711,0.66342 0.74711,0.66342l0.09335,0.39657c0.44716,2.72023 0.71403,5.69177 0.30275,8.37269c0,0 -0.13424,0.87069 -0.83183,0.67068c-0.6976,-0.19996 -0.56337,-1.07064 -0.56337,-1.07064c0.22974,-1.48197 -0.0626,-3.07282 -0.06401,-4.65732c-0.12196,0.45949 -0.25922,0.90901 -0.42307,1.34025l-0.23666,0.35809c-0.04786,0.10352 -0.12123,0.2048 -0.22937,0.29728c-0.16675,0.14265 -0.31983,0.18204 -0.45325,0.16593c-0.1335,-0.01413 -0.28169,-0.08769 -0.43446,-0.26655c-0.08532,-0.09988 -0.14454,-0.20039 -0.18392,-0.29874c-0.4005,-0.76113 -0.69838,-1.60969 -1.03939,-2.41355c-0.24422,1.87372 -0.10466,3.75021 -0.01485,5.68652l0.00691,0.15876c0,0 0.03897,0.89318 -0.67035,0.91032z" fill="#0a0908" stroke-width="0.5"/><path d="M261.7177,97.76716c0.05682,0.84152 -0.53323,0.86202 -0.53323,0.86202l-0.21716,0.00507c-0.8872,0.12837 -3.34039,0.87414 -3.83023,-0.81389c-0.13978,-0.48173 0.21623,-0.94624 0.32336,-1.41989c0.19528,-0.86334 1.07997,-3.98119 1.8493,-5.18328c-0.68115,-0.00994 -1.35887,0.02676 -2.03948,0.05041c0,0 -0.59004,0.02053 -0.64688,-0.82098c-0.05682,-0.84152 0.53323,-0.86205 0.53323,-0.86205c0.94579,-0.03292 1.88187,-0.07891 2.8323,-0.01157l0.05409,0.04215l0.00324,-0.0264l0.5794,0.19995c0.26297,0.08217 0.47564,0.40663 0.5023,0.80112c0.01954,0.28943 -0.06567,0.54828 -0.21145,0.70515l-0.36457,0.40387c-0.5297,1.25532 -0.99643,2.53805 -1.4979,3.84591c-0.16568,0.4321 -0.28794,1.30577 -0.57856,1.6829c0.11618,-0.06128 0.24434,-0.11742 0.32062,-0.12668c0.65463,-0.07948 1.31235,-0.0457 1.96738,-0.14167l0.30734,-0.01317c0,0 0.59004,-0.02053 0.64688,0.82098z" fill="#0a0908" stroke-width="0.5"/></g><path d="M276.7862,226.99949c0,1.05684 -4.09297,5.30912 -23.68772,5.74068c-24.24062,0.5339 -25.91029,-3.40815 -25.91029,-4.46498c0,-0.86379 4.55,-15.49935 8.47094,-19.67774c1.76051,-1.8761 14.4637,-2.18326 16.97141,-2.18326c1.91855,0 12.77982,0.14945 14.55,0.80853c2.96834,1.10518 9.60564,19.11528 9.60564,19.77676z" fill="#f2c07a" stroke-opacity="0.5098" stroke="#000000" stroke-width="1.5" stroke-linecap="butt"/><path d="M265.66923,139.64232c0,0 -3.57356,3.72714 -20.5205,2.9483c-10.0099,-0.46003 -12.69706,-3.07114 -12.69706,-3.07114" fill="#000000" stroke="#000000" stroke-width="1.5" stroke-linecap="round"/></g></g></svg>