<svg version="1.1" xmlns="http://www.w3.org/2000/svg" xmlns:xlink="http://www.w3.org/1999/xlink" width="116.25945" height="292.10802" viewBox="0,0,116.25945,292.10802"><g transform="translate(-183.5495,-34.51752)"><g stroke-miterlimit="10"><path d="M253.58038,150.42828c-0.48048,5.73376 -10.54692,9.61684 -18.64829,9.49027c-2.72492,-0.04258 -15.92451,-0.35126 -17.84106,-1.3007c-3.78151,-1.87326 -5.87279,-5.24507 -5.81314,-9.06312c0.08988,-5.75316 8.21836,-10.29116 16.31976,-10.1646c8.10139,0.12657 26.76688,1.68087 25.98276,11.03814z" fill="#ffd599" stroke="#0a0908" stroke-width="1.5" stroke-linecap="butt"/><path d="M249.92019,150.15959c6.77321,-1.55926 19.31483,18.95387 29.01467,38.63264c-0.60009,-0.24575 -1.21622,-0.44889 -1.83591,-0.61195c-3.56383,-0.05968 -5.99405,0.14391 -9.24318,1.6463c-3.22429,1.51431 -5.41895,2.77158 -8.02828,5.329c-2.16407,3.00017 -2.64195,6.13374 -3.7037,9.57063c-0.02163,0.1852 -0.04657,0.3707 -0.07441,0.55646c-5.57619,-23.62323 -11.17391,-53.96169 -6.12919,-55.12303z" fill="#ffd599" stroke="#0a0908" stroke-width="1.5" stroke-linecap="butt"/><path d="M243.76706,245.68843c4.87698,-24.10491 23.23867,-23.16494 29.30364,-22.73166c2.19149,0.15656 2.9617,1.27933 2.95032,12.38451c-0.0313,30.57275 4.48694,48.7098 3.55943,79.26848c-0.1944,6.40529 -14.13717,7.62303 -21.63073,7.08773c-7.49357,-0.53533 -12.41595,-0.54129 -12.22155,-6.94658c0.00247,-0.08133 0.23595,-2.39167 0.21558,-2.95901c-0.28534,-7.95049 -3.24896,-60.8038 -2.1767,-66.10349z" fill="#382f25" stroke="#0a0908" stroke-width="1.5" stroke-linecap="butt"/><path d="M241.05214,313.26477c0.13729,6.21783 -9.26187,10.33597 -17.92486,10.54818c-8.66298,0.21221 -18.935,-2.58222 -19.07227,-8.80003c-0.07546,-3.418 1.66146,-64.43357 1.6751,-67.30793c0.07493,-15.77193 0.80669,-22.65135 4.10625,-22.73217c7.01145,-0.17173 26.53614,-0.57043 31.841,22.9987c1.24956,5.55164 -0.65139,64.1079 -0.62522,65.29328z" fill="#382f25" stroke="#0a0908" stroke-width="1.5" stroke-linecap="butt"/><path d="M283.05016,315.63471c0.21186,4.80886 0.21769,8.08907 -6.55182,8.25077c-16.63527,0.39737 -27.16821,-0.39558 -27.3801,-5.20442c-0.11165,-2.53404 5.90982,-6.69201 9.97991,-8.77008c3.65375,-1.8655 9.54255,-4.44524 12.74304,-4.57809c0.21867,-0.00907 -0.02279,0.30136 0.18993,0.30566c6.36822,0.12859 10.814,5.34276 11.01902,9.99618z" fill="#686664" stroke="#0a0908" stroke-width="1.5" stroke-linecap="butt"/><path d="M234.21387,325.80076c-18.62433,0.4176 -30.0294,-2.19777 -30.26977,-7.3822c-0.12664,-2.73196 8.42268,-7.71028 12.97811,-9.94794c10.48528,-5.15043 24.0743,-1.95553 24.6051,9.49506c0,0 0.26548,7.66517 -7.31346,7.83509z" fill="#686664" stroke="#0a0908" stroke-width="1.5" stroke-linecap="butt"/><path d="M283.30579,177.42949c-6.2106,-1.65527 -7.77847,-8.70427 -6.86108,-14.21449c0.91742,-5.51023 6.69581,-8.63534 12.90645,-6.98008c6.21062,1.65526 10.50163,7.46401 9.58425,12.97422c-0.91739,5.51023 -9.41892,9.87558 -15.62957,8.22032z" fill="#ffffff" stroke="#0a0908" stroke-width="1.5" stroke-linecap="butt"/><path d="M269.33963,204.10012c-1.76301,-2.93816 -2.08196,-5.9829 -2.92938,-9.33664c-0.04383,-0.55739 -0.11539,-1.11806 -0.20392,-1.68085c2.94636,-13.14627 5.79344,-23.97076 6.78548,-26.08488c0.16843,-0.35895 0.33916,-0.70983 0.51234,-1.05239c0.9646,1.24683 1.9028,2.24522 2.96307,3.25528c0.73928,0.70428 0.89845,2.10746 1.74765,2.6411c2.24752,1.11621 4.7534,1.4674 7.11045,2.09559c2.33096,0.62125 4.69045,1.0535 7.03098,1.67729c1.66975,0.44501 3.41042,0.46922 5.13155,0.80783c-0.00278,0.01693 -0.00559,0.03382 -0.00839,0.05073c-0.317,1.90392 -1.77427,8.4155 -4.05952,14.60053c-1.16251,3.14637 -6.25084,10.75805 -12.3687,13.66554c-4.72618,2.2461 -10.76725,0.4434 -11.71161,-0.63912z" fill="#ffd599" stroke="#0a0908" stroke-width="1.5" stroke-linecap="butt"/><path d="M284.71208,175.90395c-5.67491,-2.33868 -11.46826,-6.91034 -11.27919,-8.04585c0.17044,-1.02365 0.96959,-4.22808 3.22771,-4.06629c1.76532,0.12651 6.40167,2.93849 10.44977,4.75356c2.8187,1.26385 7.86531,3.07039 8.21552,3.30317c3.03864,2.01987 2.30461,3.75897 1.99508,5.61814c-0.20738,1.24566 -6.38363,1.00274 -12.60889,-1.56271z" fill="#f2c07a" stroke="#0a0908" stroke-width="1.5" stroke-linecap="butt"/><path d="M275.44761,231.22104c-0.12923,11.28577 -13.7808,23.95811 -32.2118,23.74358c-18.43101,-0.21454 -37.14193,-16.25446 -37.16066,-30.30275c-0.01505,-11.28594 17.80318,-14.47852 36.23418,-14.26397c18.43101,0.21454 33.26751,9.53739 33.13826,20.82316z" fill="#39322b" stroke="#0a0908" stroke-width="1.5" stroke-linecap="butt"/><path d="M274.8488,242.66242c-0.10849,9.47398 -15.28928,16.97846 -33.90728,16.76175c-18.61796,-0.21673 -33.62286,-8.07258 -33.51437,-17.54657c0.04721,-4.12178 -0.5009,-15.99613 4.29393,-18.8987c6.22618,-3.76904 19.09532,2.01449 29.61334,2.13691c13.40463,0.15603 25.96149,-7.9425 31.32809,-2.11375c2.08717,2.26691 2.21667,17.00745 2.18628,19.66033z" fill="#382f25" stroke="none" stroke-width="0" stroke-linecap="butt"/><path d="M249.41283,259.12839l-10.32668,1.063" fill="none" stroke="#0a0908" stroke-width="1.5" stroke-linecap="round"/><path d="M275.53119,229.72348c-0.15246,5.86964 -15.09152,10.85816 -35.02743,10.29976c-19.93591,-0.5584 -36.65131,-4.50881 -36.38001,-14.95371c0.09399,-3.61881 0.49625,-35.14434 8.8473,-59.05789c2.20117,-6.30315 3.78496,-11.71017 6.80043,-15.64281c4.10028,-5.34739 10.95902,-7.93499 17.94269,-8.35064c4.39956,-0.26183 13.6026,3.90794 18.26191,9.88981c8.60053,11.04181 7.7133,21.50246 11.33052,34.13088c1.34143,4.68314 8.28905,40.99292 8.23285,43.15629z" fill="#ffd599" stroke="#0a0908" stroke-width="1.5" stroke-linecap="butt"/><path d="M277.16592,235.30372c-0.0346,1.02283 -0.75589,1.37535 -1.40291,1.7523c-11.16928,6.50755 -40.64783,6.48738 -56.22645,3.55687c-8.40313,-1.5807 -13.19445,-3.697 -14.86253,-5.57836c-1.48612,-1.67614 0.02317,-4.06406 0.03141,-4.30742c0.0213,-0.62916 7.23484,5.36225 45.01616,5.02745c15.85504,-0.14049 26.3861,-5.3214 26.67245,-5.43789c1.47627,-0.60059 0.80649,3.96418 0.77189,4.98699z" fill="#f2c07a" stroke="#0a0908" stroke-width="1.5" stroke-linecap="butt"/><path d="M222.54502,149.49121c4.85269,0.7515 2.34133,28.76973 -1.01217,52.44659c-3.42215,-0.30736 -7.48472,1.12351 -9.67658,2.85996c-1.91904,1.52031 -5.1416,4.42329 -6.28338,6.57682c-0.08647,0.1631 0.10108,0.40457 -0.19525,0.2921c-2.86658,-1.08799 -6.65714,-6.01723 -8.09039,-11.87943c-1.32427,-5.41642 0.18502,-11.51087 0.23904,-12.07915c8.17854,-22.28376 17.45819,-39.38773 25.01874,-38.21688z" fill="#ffd599" stroke="#0a0908" stroke-width="1.5" stroke-linecap="butt"/><path d="M231.22839,160.80852c-0.11604,7.42815 -5.09603,13.76728 -7.89595,13.72353c-2.7999,-0.04374 -4.47232,-6.48678 -4.35626,-13.91495c0.06401,-4.097 1.05427,-7.35783 2.18187,-9.80774c0.91683,-1.99194 3.95516,-3.54953 5.21079,-3.52991c2.7999,0.04374 4.97559,6.10091 4.85954,13.52906z" fill="#ffd599" stroke="none" stroke-width="0" stroke-linecap="butt"/><path d="M264.55124,163.59246c2.65955,4.92537 4.36147,11.7331 2.92192,12.60123c-1.43956,0.86817 -5.11899,-3.47643 -7.77855,-8.40184c-2.65956,-4.92537 -5.56743,-14.11444 -4.12787,-14.98259c1.43956,-0.86817 6.32493,5.85779 8.98448,10.78317z" fill="#ffd599" stroke="none" stroke-width="0" stroke-linecap="butt"/><path d="M255.36762,150.42938c-0.2147,3.4038 -5.26544,7.88795 -13.94445,7.35226c-9.95384,-0.61438 -17.03986,-6.59717 -16.82517,-10.00096c0.2147,-3.4038 7.42158,-5.68126 16.09707,-5.08684c8.67549,0.59442 14.88724,4.33175 14.67254,7.73555z" fill="#f2c07a" stroke="#0a0908" stroke-width="1.5" stroke-linecap="butt"/><path d="M251.15315,167.91813c0.34915,1.60532 0.91515,3.70085 -0.64876,5.07065c-2.38841,2.092 -3.01185,-6.37762 -2.66742,-8.66633c0.1178,-0.78276 -1.82258,-8.96748 -0.53778,-10.12011c0.24591,-0.65656 2.62278,-0.98271 2.64252,0.23218c0.00251,0.15487 0.11444,1.10284 0.09641,1.24929c0.88522,2.27888 0.93295,11.39711 1.11503,12.23429z" fill="#969696" stroke="#434242" stroke-width="1" stroke-linecap="butt"/><path d="M241.49142,165.52033c-0.23675,1.00494 -0.90197,3.43087 -0.79941,4.38382c0.19664,1.82735 1.1382,5.59091 -0.79456,6.9387c-2.95175,2.05833 -2.61444,-7.44421 -1.94462,-9.95379c0.2291,-0.85831 0.34572,-1.61371 0.53043,-2.55803c0.28561,-1.46019 -1.48486,-7.63513 0.10634,-8.77278c0.3581,-0.70321 3.07988,-0.79645 2.95286,0.5587c-0.01619,0.17273 -0.00639,1.2411 -0.04474,1.40215c0.71873,2.63832 0.43634,6.12245 -0.00627,8.0012z" fill="#969696" stroke="#434242" stroke-width="1" stroke-linecap="butt"/><path d="M249.35692,149.20502c-0.01144,0.7321 -2.78304,3.88125 -7.91901,3.80101c-5.13596,-0.08024 -10.69139,-3.35948 -10.67996,-4.09159c0.01144,-0.7321 -1.15899,-6.92594 3.93668,-7.36363c18.28517,-1.57061 14.67372,6.92212 14.66228,7.65421z" fill="#ffffff" stroke="#0a0908" stroke-width="1.5" stroke-linecap="butt"/><path d="M282.91157,81.47164c-0.00847,0.39678 0.47691,2.36231 0.9049,5.50884c1.17382,8.62978 1.71223,24.78471 -9.31149,31.46119c-0.18857,0.1142 -3.68436,6.43109 -8.136,7.1479c-3.07071,0.49444 -7.9409,5.41527 -13.19942,6.40217c-8.0621,1.51309 -16.49237,-0.87803 -16.49237,-0.87803c0,0 -10.32254,2.64279 -14.90346,2.81346c-8.11036,0.30217 -16.73498,-4.53661 -16.85553,-4.42317c-0.35315,0.33234 -2.08167,0.23147 -3.39278,-0.75435c-1.33862,-1.00648 -2.25992,-2.90021 -2.58586,-2.73054c-1.15753,0.60258 -6.02265,-2.0236 -9.36473,-9.40071c-2.00804,-4.43243 -0.41166,-9.93264 -0.64019,-10.61825c-6.93209,-20.79887 -1.77442,-32.96528 7.72697,-44.09758c0.98867,-1.15839 1.63002,-7.26883 8.3986,-13.92486c8.04942,-7.91556 15.56576,-4.84169 15.56576,-4.84169c0,0 6.76762,-7.83535 19.13131,-7.79472c9.03315,0.02968 17.06633,3.8053 21.11542,9.31984c0.39996,0.54472 3.02563,0.13014 4.90667,0.83861c6.47484,2.43867 17.70397,9.19671 17.13216,35.97189z" fill="#0a0907" stroke="none" stroke-width="0" stroke-linecap="butt"/><path d="M274.67883,105.22294c0.7389,6.30129 1.02644,17.25766 0.83598,18.56674c-2.0149,13.84969 -13.002,22.99114 -32.43138,23.50624c-21.02527,0.55742 -37.1976,-12.19696 -37.64346,-29.01396c-0.44584,-16.817 3.96175,-37.62283 30.14951,-39.97006c34.75519,-3.11514 38.20423,24.47259 38.45254,26.59005z" fill="#ffffff" stroke="#000000" stroke-width="1.5" stroke-linecap="butt"/><path d="M283.66555,79.51294c0.00139,0.3962 0.55468,2.34621 1.07879,5.47629c1.43739,8.58469 3.41819,21.55745 -7.83398,28.48826c-0.96735,0.59584 -0.73513,1.68503 -1.52719,-0.32868c-0.86322,-2.19466 -2.61662,-5.2229 -3.61585,-8.03102c-1.40997,-3.96232 -1.95972,-7.47341 -1.95972,-7.47341c0,0 -4.43431,-2.11338 -6.29871,-3.33257c-1.97207,-1.28962 -5.92221,-6.27012 -5.92221,-6.27012c0,0 -10.66333,0.83313 -15.071,0.66274c-3.43355,-0.13276 -9.39194,-0.97312 -9.39194,-0.97312c0,0 -4.63897,3.30114 -7.48633,4.6341c-3.1337,1.46698 -10.33743,3.1767 -10.33743,3.1767c0,0 -0.90111,6.16345 -2.45649,10.22698c-1.31206,3.42794 -3.17325,4.40425 -4.50829,8.59317c-1.05967,3.32492 0.05464,6.36742 -0.60056,9.01872c-0.76385,3.09094 -3.23724,5.56144 -3.6584,5.96235c-0.35744,0.34024 -2.15116,0.28148 -3.53506,-0.67065c-1.4129,-0.9721 -2.41611,-2.83985 -2.7495,-2.66258c-1.18404,0.6295 -6.29273,-1.87371 -9.94483,-9.15559c-2.19434,-4.37522 -1.18821,-9.89327 -1.44257,-10.57201c-5.69796,-21.12037 -0.13603,-32.42151 6.91014,-42.73429c0.99482,-1.18012 -0.01876,-7.26356 6.82462,-14.07085c8.13835,-8.09542 18.00211,-6.71638 18.00211,-6.71638c0,0 6.81218,-7.9843 19.62492,-8.24346c9.36125,-0.18936 17.78224,3.38427 22.11926,8.79005c0.4284,0.53397 3.13861,0.05654 5.10593,0.71804c6.7719,2.27702 18.58103,8.74985 18.67429,35.48731z" fill="#0a0907" stroke="#000000" stroke-width="1" stroke-linecap="butt"/><path d="M243.07557,117.21011c-0.02708,8.2404 -6.21784,14.08494 -14.88482,13.8934c-8.01334,-0.1771 -14.14053,-5.91246 -13.97734,-14.15129c0.1955,-9.87052 6.38252,-14.57361 14.39777,-14.54728c8.01525,0.02634 14.49147,6.56477 14.46439,14.80517z" fill="#ffffff" stroke="#000000" stroke-width="1.5" stroke-linecap="butt"/><path d="M261.05327,101.07282c6.55402,0.02154 11.58548,4.57839 11.68765,14.06723c0.08528,7.92025 -4.95828,13.39734 -11.51163,13.52075c-7.08788,0.13346 -12.11575,-5.52059 -12.08973,-13.44155c0.02603,-7.92096 5.35968,-14.16795 11.91369,-14.14641z" fill="#ffffff" stroke="#000000" stroke-width="1.5" stroke-linecap="butt"/><path d="M241.37348,117.99904c-0.00672,2.04586 -1.14695,3.70066 -2.54675,3.69606c-1.39981,-0.0046 -2.52914,-1.66684 -2.5224,-3.71271c0.00672,-2.04586 1.14695,-3.70066 2.54675,-3.69606c1.39981,0.0046 2.52914,1.66684 2.5224,3.71271z" fill="#000000" stroke="#000000" stroke-width="1.5" stroke-linecap="butt"/><path d="M256.67068,117.46913c-0.00684,2.08132 -1.078,3.76508 -2.39254,3.76076c-1.31453,-0.00432 -2.37462,-1.69507 -2.36778,-3.7764c0.00684,-2.08132 1.078,-3.76508 2.39254,-3.76076c1.31453,0.00432 2.37462,1.69506 2.36778,3.7764z" fill="#000000" stroke="#000000" stroke-width="1.5" stroke-linecap="butt"/><g stroke="#0a0908" stroke-linecap="butt"><path d="M259.15666,86.69744c0.01216,0.24322 -0.48121,2.76512 -0.26043,5.25444c0.25222,2.844 2.43852,5.95837 0.32559,7.61974c-5.39466,4.24175 -19.63268,2.59199 -23.98218,2.6508c-4.00527,0.05418 -3.37751,-3.89201 -3.15666,-7.77353c0.19513,-3.42955 -0.21729,-6.80472 -0.24612,-7.38194c-0.06147,-1.23052 6.00444,-2.31075 13.5486,-2.41279c7.54415,-0.10206 13.70974,0.81278 13.77121,2.04327z" fill="#ffbc6f" stroke-width="1.5"/><path d="M233.87697,88.93068c-0.03548,-0.79108 0.69258,-0.80355 0.69258,-0.80355l0.25009,-0.00193c6.21905,0.41744 7.54563,11.46241 0.91922,11.62889c0,0 -0.00332,0.00008 -0.00942,-0.00007c-0.1009,0.08545 -0.24146,0.14513 -0.43729,0.14846c-0.72805,0.01244 -0.76355,-0.77868 -0.76355,-0.77868l-0.01263,-0.28125c-0.13838,-3.08456 -0.15728,-6.1703 -0.286,-9.2492c-0.1721,-0.10288 -0.3366,-0.29687 -0.35301,-0.66264zM235.94423,98.16048c4.10523,-0.31565 3.33155,-7.04498 -0.24605,-8.27246c0.10614,2.7546 0.13596,5.51323 0.24605,8.27246z" fill="#0a0908" stroke-width="0.5"/><path d="M244.56863,88.54412c0.65086,-0.17275 0.81596,0.6249 0.81596,0.6249l0.09456,0.52132c0.06133,1.46204 0.12296,2.92404 0.18338,4.38607c-0.04054,1.40783 -0.00906,3.68618 -0.94033,4.67768c-1.13887,1.21244 -2.79082,0.55771 -3.46872,-1.02074c-0.94444,-2.19908 -0.49546,-6.10404 -0.59723,-8.5305c0,0 -0.03422,-0.81602 0.6364,-0.82897c0.67059,-0.01295 0.70484,0.80306 0.70484,0.80306c0.09229,2.20061 -0.34967,5.84968 0.44791,7.85566c1.15251,2.89859 1.85722,-2.27509 1.87424,-2.99806c-0.06136,-1.43939 -0.12131,-2.8788 -0.18169,-4.31822l-0.05509,-0.20172c0,0 -0.16506,-0.79766 0.48581,-0.97037z" fill="#0a0908" stroke-width="0.5"/><path d="M247.05119,98.34546c-0.70938,0.01533 -0.74525,-0.9032 -0.74525,-0.9032l-0.00636,-0.16329c-0.10577,-2.87659 -0.09243,-5.63886 0.38248,-8.42216c0,0 0.13383,-0.78361 0.72334,-0.69311c0.44305,-0.00833 0.62257,0.34836 0.69487,0.61593c0.53909,0.89085 0.8923,1.90265 1.29728,2.89222c0.29717,-1.09567 0.48859,-2.27569 0.75157,-3.37097c0,0 0.2087,-0.8685 0.88762,-0.56903c0.01529,0.00672 0.03007,0.01372 0.04447,0.02104c0.56709,-0.07777 0.74481,0.6846 0.74481,0.6846l0.09198,0.40809c0.43777,2.79863 0.69441,5.8551 0.27388,8.61056c0,0 -0.13725,0.89489 -0.83414,0.68698c-0.6969,-0.20786 -0.55968,-1.10274 -0.55968,-1.10274c0.23485,-1.52316 -0.052,-3.15996 -0.04795,-4.78929c-0.12354,0.4721 -0.26236,0.93389 -0.42768,1.37681l-0.2379,0.36746c-0.04821,0.10629 -0.12194,0.21019 -0.2304,0.30496c-0.16724,0.14615 -0.32046,0.18616 -0.45382,0.16917c-0.13344,-0.01495 -0.28138,-0.09107 -0.43354,-0.27548c-0.08498,-0.10298 -0.14385,-0.20653 -0.18289,-0.30778c-0.39787,-0.78395 -0.69283,-1.65747 -1.03107,-2.48518c-0.25068,1.92595 -0.11759,3.85597 -0.03445,5.84736l0.00637,0.16327c0,0 0.03589,0.91857 -0.67348,0.93393z" fill="#0a0908" stroke-width="0.5"/><path d="M257.79551,96.95948c0.05392,0.86551 -0.5362,0.8847 -0.5362,0.8847l-0.21718,0.00452c-0.88763,0.12915 -3.34339,0.88812 -3.8274,-0.84925c-0.13812,-0.49581 0.21949,-0.97231 0.32825,-1.45902c0.19826,-0.88713 1.09369,-4.09036 1.86717,-5.32398c-0.68111,-0.01241 -1.35895,0.02315 -2.03964,0.04528c0,0 -0.59011,0.01922 -0.64404,-0.84629c-0.05392,-0.86551 0.5362,-0.88473 0.5362,-0.88473c0.9459,-0.03081 1.88213,-0.07508 2.83233,-0.00278l0.05394,0.04352l0.00334,-0.02714l0.57871,0.20747c0.26269,0.08534 0.47424,0.41966 0.49954,0.82541c0.01854,0.29768 -0.06756,0.56358 -0.21388,0.72442l-0.36597,0.41412c-0.53402,1.28914 -1.00517,2.60665 -1.51116,3.94991c-0.16717,0.44379 -0.29244,1.34179 -0.58436,1.72865c0.11639,-0.06263 0.24474,-0.11996 0.32105,-0.12923c0.6549,-0.07962 1.3125,-0.04277 1.96786,-0.13934l0.30739,-0.01255c0,0 0.59011,-0.01922 0.64404,0.84629z" fill="#0a0908" stroke-width="0.5"/></g><path d="M271.21799,226.35785c-0.01651,1.05672 -4.17542,5.24453 -23.77451,5.36994c-24.246,0.15515 -25.85389,-3.8125 -25.83738,-4.86919c0.0135,-0.86369 4.79157,-15.42638 8.77729,-19.543c1.78961,-1.84836 14.49605,-1.95705 17.00344,-1.91788c1.91831,0.02998 12.77594,0.34907 14.5356,1.03572c2.95071,1.15142 9.30586,19.263 9.29553,19.9244z" fill="#f2c07a" stroke-opacity="0.5098" stroke="#000000" stroke-width="1.5" stroke-linecap="butt"/><path d="M253.44935,141.6626c0,0 -3.6605,2.57479 -20.58739,2.33551c-7.68826,-0.10868 -7.98287,-3.22523 -7.98287,-3.22523l34.03222,0.44486" fill="#000000" stroke="#000000" stroke-width="1.5" stroke-linecap="round"/><path d="M212.91121,111.86665c-0.89398,7.69406 -5.36634,5.35833 -5.8727,1.78416c-0.35709,-2.52055 4.07801,-6.34837 4.45748,-6.34837c1.0821,0 1.54283,3.46595 1.41522,4.56421z" fill-opacity="0.4" fill="#5cb3ff" stroke="none" stroke-width="0.5" stroke-linecap="butt"/><path d="M219.29185,101.08801c-0.89398,7.69406 -5.36634,5.35832 -5.8727,1.78416c-0.35709,-2.52054 4.07801,-6.34836 4.45748,-6.34836c1.0821,0 1.54283,3.46594 1.41522,4.5642z" fill-opacity="0.4" fill="#5cb3ff" stroke="none" stroke-width="0.5" stroke-linecap="butt"/><g stroke="#0a0908" stroke-width="1.5" stroke-linecap="butt"><path d="M221.53243,180.50339c-6.8274,-1.63466 -8.70137,-8.68279 -7.82337,-14.19982c0.87804,-5.51705 7.1245,-8.66439 13.95193,-7.02974c6.82742,1.63465 11.65039,7.43222 10.77241,12.94924c-0.878,5.51705 -10.07348,9.91495 -16.90091,8.28031z" fill="#ffffff"/><path d="M210.01989,170.10086c0.17601,-0.35978 0.35469,-0.71149 0.53626,-1.05487c1.08284,1.24428 2.13118,2.24005 3.31326,3.24706c0.82421,0.70217 1.03004,2.1057 1.97054,2.63671c2.48246,1.10909 5.23004,1.45175 7.82117,2.07211c2.56247,0.61352 5.15182,1.03781 7.7248,1.65383c1.83558,0.43947 3.73916,0.45761 5.62848,0.79042c-0.00266,0.01695 -0.00534,0.03387 -0.00803,0.05079c-0.30339,1.90627 -1.74891,8.42721 -4.10704,14.62427c-8.36191,21.9749 -22.3079,17.97643 -30.98119,15.89985c0,0 5.19037,-33.96909 8.10173,-39.9202z" fill="#ffd599"/><path d="M223.03529,178.97192c-6.25725,-2.32039 -12.69462,-6.8748 -12.51368,-8.01171c0.16312,-1.02491 0.96415,-4.23424 3.43654,-4.08024c1.93284,0.12042 7.0654,2.91804 11.53223,4.72017c3.11027,1.25482 8.66854,3.04492 9.05669,3.27662c3.36786,2.01057 2.60481,3.75338 2.30856,5.61486c-0.19847,1.2472 -6.95629,1.02569 -13.82036,-1.5197z" fill="#f2c07a"/></g><path d="M203.84553,183.74239c1.51811,0.89252 2.17508,1.88209 2.41567,3.01647c0.34753,1.6386 -0.17379,3.57932 -0.22354,5.96596c-0.06,2.87725 -0.04696,5.7557 -0.10651,8.63296c-0.05533,2.67324 1.77766,10.7081 -2.97929,7.45133c-1.6005,-1.09576 -2.27315,-4.28714 -2.13963,-5.83788c0.29044,-3.37322 0.14342,-7.26481 0.238,-10.39702c0.03358,-1.11204 -0.23641,-7.1487 0.62573,-7.62734z" fill="#ffd599" stroke="none" stroke-width="0.5" stroke-linecap="butt"/></g></g></svg>