<svg version="1.1" xmlns="http://www.w3.org/2000/svg" xmlns:xlink="http://www.w3.org/1999/xlink" width="234.61168" height="295.12001" viewBox="0,0,234.61168,295.12001"><g transform="translate(-90.8669,-106.57689)"><g stroke-miterlimit="10"><g stroke="#0a0908" stroke-width="1.5" stroke-linecap="butt"><path d="M191.96428,305.02495c-1.93411,-5.40668 -1.28157,-12.88668 5.53523,-15.84387c6.81682,-2.95719 17.2165,-0.27177 19.15061,5.13494c1.93412,5.4067 -2.02408,12.18698 -8.84089,15.14417c-6.81678,2.9572 -13.91082,0.97149 -15.84493,-4.43521z" fill="#ffffff"/><path d="M187.41669,301.89342c-4.13434,-5.45648 -35.61078,-76.89792 -28.09838,-80.15687c8.65978,-3.75673 34.74256,30.90593 47.51854,51.51108c3.60291,5.81077 6.31414,12.12329 6.98242,13.99144c0.00594,0.01659 0.01182,0.03321 0.01771,0.04979c-1.90846,0.69758 -3.88992,1.0799 -5.72259,1.87494c-2.569,1.11445 -5.19046,2.03831 -7.74893,3.14818c-2.58712,1.12234 -5.3886,1.99397 -7.77215,3.5893c-0.88255,0.71642 -0.83805,2.17396 -1.56777,3.04102c-1.04654,1.24355 -1.95574,2.45012 -2.85502,3.91445c-0.25269,-0.31223 -0.50397,-0.63345 -0.75389,-0.96331z" fill="#ffd599"/><path d="M187.78102,300.92922c-0.39857,-1.11419 5.47244,-6.94703 11.56812,-10.4881c6.68685,-3.88449 13.69196,-5.40048 14.12919,-4.17826c0.65258,1.82421 1.76997,3.4393 -1.3703,6.11485c-0.36193,0.30836 -5.82672,3.17994 -8.83796,5.04259c-4.32461,2.67506 -9.15951,6.48335 -11.15256,6.97458c-2.5494,0.62839 -3.97716,-2.46123 -4.33646,-3.46567z" fill="#f2c07a"/></g><path d="M167.84094,224.57131c-0.47837,5.73393 -10.54337,9.62073 -18.64479,9.49715c-2.72494,-0.04157 -15.92463,-0.34539 -17.84155,-1.29411c-3.7822,-1.87188 -5.87472,-5.24291 -5.81648,-9.06098c0.08776,-5.7532 8.21456,-10.29419 16.31602,-10.17061c8.10143,0.12358 26.7675,1.671 25.98683,11.02856z" fill="#ffd599" stroke="#0a0908" stroke-width="1.5" stroke-linecap="butt"/><path d="M159.50121,320.75498c4.86808,-24.10672 23.23013,-23.1735 29.29527,-22.74245c2.19154,0.15575 2.96217,1.27825 2.95488,12.38343c-0.02003,30.57275 4.50489,48.70814 3.58866,79.26716c-0.19204,6.40535 -14.13436,7.62825 -21.62812,7.0957c-7.49376,-0.53257 -12.41615,-0.53671 -12.22411,-6.94208c0.00244,-0.08133 0.23507,-2.39176 0.21448,-2.95907c-0.28828,-7.95039 -3.27137,-60.80259 -2.20107,-66.10269z" fill="#382f25" stroke="#0a0908" stroke-width="1.5" stroke-linecap="butt"/><path d="M156.8112,388.33232c0.13958,6.21777 -9.25806,10.33939 -17.92096,10.55478c-8.66289,0.2154 -18.93594,-2.57523 -19.07552,-8.79301c-0.07671,-3.41797 1.6377,-64.43418 1.65029,-67.30854c0.06912,-15.77195 0.79833,-22.65165 4.09787,-22.73368c7.01138,-0.17431 26.53593,-0.58022 31.84947,22.98696c1.25161,5.55117 -0.62776,64.10815 -0.60115,65.2935z" fill="#382f25" stroke="#0a0908" stroke-width="1.5" stroke-linecap="butt"/><path d="M198.8101,390.68677c0.21363,4.80878 0.22067,8.08901 -6.54877,8.2532c-16.63512,0.4035 -27.16835,-0.38557 -27.38202,-5.19433c-0.11259,-2.534 5.90735,-6.69419 9.97667,-8.77376c3.65306,-1.86684 9.54092,-4.44876 12.74136,-4.58279c0.21867,-0.00915 -0.02268,0.30136 0.19004,0.30557c6.36826,0.12624 10.81597,5.33877 11.02271,9.99213z" fill="#686664" stroke="#0a0908" stroke-width="1.5" stroke-linecap="butt"/><path d="M149.97756,400.87082c-18.62417,0.42447 -30.03021,-2.18671 -30.27249,-7.37104c-0.12765,-2.73192 8.41984,-7.71339 12.97444,-9.95272c10.48338,-5.1543 24.07358,-1.96441 24.6086,9.48598c0,0 0.2683,7.66507 -7.31057,7.83779z" fill="#686664" stroke="#0a0908" stroke-width="1.5" stroke-linecap="butt"/><path d="M191.17643,306.27591c-0.12507,11.28583 -13.77196,23.96319 -32.20304,23.75544c-18.43109,-0.20775 -37.14792,-16.24077 -37.17183,-30.28904c-0.0192,-11.28593 17.79785,-14.48509 36.22892,-14.27733c18.43109,0.20775 33.27102,9.52513 33.14594,20.81096z" fill="#39322b" stroke="#0a0908" stroke-width="1.5" stroke-linecap="butt"/><path d="M190.58185,317.71752c-0.105,9.47402 -15.28302,16.98409 -33.90109,16.77424c-18.61804,-0.20986 -33.62584,-8.06019 -33.52083,-17.53422c0.04569,-4.1218 -0.50679,-15.99594 4.28696,-18.90028c6.22478,-3.77133 19.09607,2.00744 29.61413,2.126c13.40467,0.1511 25.95856,-7.95207 31.3273,-2.12529c2.08801,2.26614 2.22293,17.00663 2.19353,19.65951z" fill="#382f25" stroke="none" stroke-width="0" stroke-linecap="butt"/><path d="M154.82564,335.25967l10.3263,-1.06682" fill="none" stroke="#0a0908" stroke-width="1.5" stroke-linecap="round"/><path d="M191.25947,304.77833c-0.15029,5.8697 -15.08753,10.86373 -35.02363,10.31267c-19.93612,-0.55104 -36.65298,-4.4953 -36.38551,-14.9403c0.09266,-3.61885 0.48329,-35.14452 8.82554,-59.06115c2.19885,-6.30395 3.78064,-11.71156 6.79467,-15.64531c4.0983,-5.3489 10.95609,-7.93905 17.93962,-8.35725c4.39946,-0.26345 13.60403,3.90293 18.26555,9.88309c8.60461,11.03863 9.67464,38.15173 9.67464,38.15173c0,0 9.9726,36.96483 9.9172,39.12822z" fill="#ffd599" stroke="#0a0908" stroke-width="1.5" stroke-linecap="butt"/><path d="M192.89625,310.35794c-0.03423,1.02284 -0.75539,1.37562 -1.40228,1.75282c-11.16688,6.51166 -40.64544,6.50236 -56.22512,3.5776c-8.40371,-1.57761 -13.19581,-3.69214 -14.86458,-5.57288c-1.48673,-1.67559 0.02166,-4.06407 0.02982,-4.30743c0.02107,-0.62916 7.23682,5.35958 45.01801,5.01085c15.85499,-0.14633 26.38415,-5.33113 26.67044,-5.44771c1.47606,-0.60113 0.80794,3.96389 0.77372,4.9867z" fill="#f2c07a" stroke="#0a0908" stroke-width="1.5" stroke-linecap="butt"/><g stroke="#0a0908" stroke-width="1.5" stroke-linecap="butt"><path d="M117.61545,311.19651c-1.27136,5.59972 -8.07586,8.42233 -15.19824,6.30448c-7.1224,-2.11784 -11.86561,-8.37416 -10.59424,-13.97388c1.27136,-5.59972 11.27366,-9.51366 18.39607,-7.39582c7.1224,2.11784 8.66779,9.46549 7.39643,15.06519z" fill="#ffffff"/><path d="M121.75449,307.54192c-0.20853,0.35746 -0.41945,0.70651 -0.63285,1.04681c-1.0685,-1.34584 -2.11591,-2.4346 -3.30411,-3.54358c-0.82849,-0.77323 -0.95921,-2.22558 -1.92135,-2.83092c-2.55776,-1.29778 -5.44359,-1.82695 -8.14669,-2.63074c-2.67317,-0.79485 -5.38654,-1.39747 -8.07071,-2.1956c-1.91483,-0.56939 -3.92785,-0.71118 -5.90623,-1.17471c0.00386,-0.01717 0.0077,-0.03438 0.01161,-0.05156c0.43928,-1.93484 2.37345,-8.52708 5.25306,-14.7282c10.21115,-21.98932 31.9461,-59.53134 40.9941,-56.84089c7.84918,2.33395 -14.82718,77.03621 -18.27689,82.94937z" fill="#ffd599"/><path d="M121.277,306.62838c-0.23617,1.04029 -1.28288,4.27891 -3.88926,3.96098c-2.03759,-0.24853 -7.29453,-3.44913 -11.90889,-5.58593c-3.21299,-1.48786 -8.98287,-3.68294 -9.37919,-3.94564c-3.43863,-2.2794 -2.52312,-4.0169 -2.09415,-5.90624c0.28741,-1.26586 7.42382,-0.6014 14.52847,2.45263c6.47655,2.78403 13.00505,7.87023 12.74306,9.0242z" fill="#f2c07a"/></g><path d="M146.6413,235.45983c0.28647,7.42353 -4.34286,14.02309 -7.14102,14.13107c-2.79817,0.10797 -4.81711,-6.23502 -5.10358,-13.65857c-0.15799,-4.09445 0.65418,-7.40415 1.64743,-9.91151c0.8076,-2.03867 3.75711,-3.75854 5.01194,-3.80696c2.79817,-0.10797 5.29874,5.82245 5.5852,13.24598z" fill="#ffd599" stroke="none" stroke-width="0" stroke-linecap="butt"/><path d="M180.25513,238.65136c2.66137,4.92439 4.3658,11.73149 2.92657,12.60015c-1.43924,0.8687 -5.12028,-3.47455 -7.78164,-8.39896c-2.66138,-4.92439 -5.57263,-14.11239 -4.13338,-14.98107c1.43924,-0.8687 6.32709,5.85547 8.98846,10.77987z" fill="#ffd599" stroke="none" stroke-width="0" stroke-linecap="butt"/><path d="M171.06667,225.49167c-0.21344,3.40388 -5.26253,7.88989 -13.94175,7.35739c-9.95406,-0.61072 -17.04229,-6.59089 -16.82885,-9.99476c0.21344,-3.40388 7.41949,-5.684 16.09519,-5.09277c8.67571,0.59122 14.88884,4.32627 14.67539,7.73015z" fill="#f2c07a" stroke="#0a0908" stroke-width="1.5" stroke-linecap="butt"/><path d="M168.03182,242.09103c0.34975,1.60519 0.91652,3.70051 -0.6469,5.07089c-2.38764,2.09288 -3.01421,-6.37652 -2.67062,-8.66534c0.11751,-0.7828 -1.82588,-8.9668 -0.5415,-10.11991c0.24566,-0.65665 2.62242,-0.98368 2.6426,0.23121c0.00258,0.15487 0.11485,1.1028 0.09686,1.24926c0.88607,2.27857 0.93715,11.39677 1.11954,12.23388z" fill="#969696" stroke="#434242" stroke-width="1" stroke-linecap="butt"/><path d="M158.63747,240.36749c-0.23637,1.00502 -0.90071,3.4312 -0.7978,4.38412c0.19732,1.82728 1.14026,5.59048 -0.79201,6.93899c-2.95099,2.05941 -2.61717,-7.44325 -1.94829,-9.95307c0.22878,-0.8584 0.34514,-1.61383 0.52948,-2.55823c0.28507,-1.4603 -1.48768,-7.63459 0.1031,-8.77281c0.35784,-0.70334 3.07959,-0.79759 2.95307,0.55761c-0.01612,0.17274 -0.00594,1.2411 -0.04422,1.40218c0.71969,2.63804 0.4386,6.12229 -0.00333,8.00121z" fill="#969696" stroke="#434242" stroke-width="1" stroke-linecap="butt"/><path d="M165.05552,224.26952c-0.01117,0.7321 -2.78162,3.88227 -7.91762,3.80392c-5.13598,-0.07836 -10.69263,-3.35553 -10.68147,-4.08765c0.01117,-0.7321 -1.16154,-6.92551 3.93397,-7.36508c18.28458,-1.57736 14.67629,6.91671 14.66511,7.6488z" fill="#ffffff" stroke="#0a0908" stroke-width="1.5" stroke-linecap="butt"/><path d="M199.49481,156.96292c-0.01322,0.39665 0.44861,2.36784 0.83891,5.51928c1.07046,8.64321 1.41549,24.80342 -9.68733,31.34751c-0.18994,0.11194 -3.76106,6.38654 -8.22097,7.05002c-3.07641,0.45766 -8.00515,5.31985 -13.2751,6.24375c-8.07963,1.4165 -16.48067,-1.07535 -16.48067,-1.07535c0,0 -10.35343,2.51907 -14.93606,2.6349c-8.1134,0.2051 -16.67949,-4.73656 -16.80139,-4.62457c-0.3571,0.32809 -2.0843,0.20654 -3.38351,-0.79491c-1.32648,-1.02243 -2.22505,-2.92704 -2.553,-2.76129c-1.16466,0.58869 -5.998,-2.09552 -9.25155,-9.5121c-1.95485,-4.45614 -0.29275,-9.93686 -0.51307,-10.62514c-6.68269,-20.88034 -1.37978,-32.98416 8.25417,-44.00195c1.00247,-1.14647 1.7169,-7.2488 8.56465,-13.82335c8.14357,-7.81865 15.62258,-4.65507 15.62258,-4.65507c0,0 6.8609,-7.7538 19.22323,-7.5652c9.03215,0.13778 17.01958,4.00926 21.00237,9.57187c0.39341,0.54946 3.02386,0.16633 4.89629,0.89727c6.44519,2.51597 17.59265,9.40793 16.70043,36.17434z" fill="#0a0907" stroke="none" stroke-width="0" stroke-linecap="butt"/><path d="M190.97841,180.61399c0.66344,6.30968 0.81983,17.2687 0.61372,18.57541c-2.18051,13.82459 -13.27621,22.83389 -32.71037,23.11643c-21.03043,0.30575 -37.04897,-12.64125 -37.29352,-29.46238c-0.24455,-16.82113 4.41172,-37.57273 30.6257,-39.60637c34.78999,-2.69897 37.90862,24.92805 38.13156,27.04833z" fill="#ffffff" stroke="#000000" stroke-width="1.5" stroke-linecap="butt"/><path d="M200.47341,154.20102c-0.00864,0.40531 0.48721,2.41323 0.92447,5.62753c1.19921,8.81574 2.82293,22.13304 -8.43827,28.95351c-0.96814,0.58635 -0.76687,1.70605 -1.49633,-0.37274c-0.79502,-2.26558 -2.446,-5.40513 -3.35951,-8.30148c-1.28902,-4.08682 -1.74193,-7.69147 -1.74193,-7.69147c0,0 -4.31542,-2.26786 -6.12152,-3.55956c-1.91037,-1.36633 -5.67633,-6.55539 -5.67633,-6.55539c0,0 -10.52696,0.59717 -14.86525,0.31745c-3.3795,-0.21793 -9.22869,-1.22005 -9.22869,-1.22005c0,0 -4.65392,3.2658 -7.49294,4.5612c-3.1245,1.42563 -10.2651,3.00223 -10.2651,3.00223c0,0 -1.04357,6.28309 -2.67867,10.40252c-1.37932,3.47509 -3.23772,4.42925 -4.6589,8.6822c-1.12806,3.37574 -0.10708,6.51458 -0.8196,9.21095c-0.83068,3.14348 -3.32999,5.61142 -3.75506,6.01144c-0.36075,0.3395 -2.12653,0.23647 -3.46592,-0.77056c-1.36748,-1.02816 -2.30865,-2.96269 -2.64161,-2.78935c-1.18246,0.6156 -6.15246,-2.06714 -9.56663,-9.60318c-2.05137,-4.52795 -0.92065,-10.14832 -1.1541,-10.84869c-5.0801,-21.74047 0.68533,-33.16749 7.88809,-43.54799c1.00996,-1.18336 0.16508,-7.43041 7.07946,-14.22996c8.22279,-8.08623 17.90606,-6.43967 17.90606,-6.43967c0,0 6.91338,-8.00428 19.54352,-7.96291c9.22783,0.03021 17.4342,3.8871 21.57057,9.52046c0.40859,0.55645 3.09084,0.1329 5.01241,0.85662c6.61439,2.49116 18.0856,9.39471 17.50176,36.7469z" fill="#0a0907" stroke="#000000" stroke-width="1" stroke-linecap="butt"/><path d="M159.23395,192.22208c-0.12569,8.23948 -6.38596,14.00951 -15.05002,13.71426c-8.01064,-0.27299 -14.06876,-6.08127 -13.80699,-14.31755c0.31361,-9.86747 6.55647,-14.49619 14.57083,-14.37393c8.01435,0.12226 14.41186,6.73773 14.28617,14.97721z" fill="#ffffff" stroke="#000000" stroke-width="1.5" stroke-linecap="butt"/><path d="M177.40349,176.30111c6.55329,0.09997 11.52986,4.71672 11.51847,14.2061c-0.00951,7.92071 -5.11826,13.33704 -11.67261,13.38202c-7.08897,0.04863 -12.0488,-5.6652 -11.92799,-13.58528c0.12082,-7.92008 5.52884,-14.10279 12.08214,-14.00281z" fill="#ffffff" stroke="#000000" stroke-width="1.5" stroke-linecap="butt"/><path d="M154.67528,192.73395c-0.03829,2.50966 -1.46135,4.52295 -3.17849,4.49675c-1.71714,-0.0262 -3.07814,-2.08193 -3.03986,-4.59161c0.03829,-2.50966 1.46135,-4.52295 3.17849,-4.49675c1.71714,0.0262 3.07814,2.08193 3.03986,4.59161z" fill="#000000" stroke="#000000" stroke-width="1.5" stroke-linecap="butt"/><path d="M171.97004,192.50023c-0.03829,2.50966 -1.35426,4.52458 -2.93933,4.5004c-1.58506,-0.02418 -2.83899,-2.07828 -2.8007,-4.58796c0.03829,-2.50966 1.35426,-4.52458 2.93933,-4.5004c1.58506,0.02418 2.83899,2.07828 2.8007,4.58796z" fill="#000000" stroke="#000000" stroke-width="1.5" stroke-linecap="butt"/><g stroke="#0a0908" stroke-linecap="butt"><path d="M176.51524,162.14449c0.00936,0.23667 -0.51292,2.683 -0.32075,5.10634c0.21955,2.76859 2.36993,5.82357 0.23808,7.41347c-5.44295,4.05932 -19.66098,2.28244 -24.01083,2.28689c-4.00559,0.00412 -3.33258,-3.8256 -3.06718,-7.59736c0.23449,-3.33258 -0.13914,-6.61964 -0.16135,-7.18128c-0.04734,-1.19733 6.03053,-2.1742 13.57528,-2.18196c7.54476,-0.00776 13.6994,0.9566 13.74672,2.15388z" fill="#ffbc6f" stroke-width="1.5"/><path d="M151.21179,164.00958c-0.0264,-0.7697 0.70176,-0.77299 0.70176,-0.77299l0.25008,0.00115c6.2138,0.48133 7.41347,11.2377 0.78564,11.31922c0,0 -0.00332,0.00003 -0.00942,-0.00018c-0.10188,0.08188 -0.24311,0.13821 -0.43896,0.13907c-0.72815,0.00326 -0.75457,-0.76645 -0.75457,-0.76645l-0.00941,-0.27364c-0.10296,-3.00115 -0.08643,-6.00199 -0.17978,-8.99751c-0.17092,-0.10212 -0.33316,-0.29276 -0.34537,-0.64864zM153.17291,173.00983c4.10856,-0.25717 3.41218,-6.81023 -0.15105,-8.04723c0.07451,2.6799 0.07266,5.36278 0.15105,8.04723z" fill="#0a0908" stroke-width="0.5"/><path d="M161.90709,163.76334c0.65279,-0.16009 0.80872,0.61756 0.80872,0.61756l0.08858,0.50809c0.04454,1.42246 0.08938,2.84487 0.133,4.2673c-0.0567,1.3685 -0.05138,3.58438 -0.99396,4.53724c-1.15272,1.16518 -2.79702,0.50848 -3.45674,-1.03464c-0.91913,-2.14987 -0.42536,-5.94167 -0.49924,-8.30242c0,0 -0.02484,-0.79392 0.64586,-0.79839c0.67069,-0.00447 0.69556,0.78945 0.69556,0.78945c0.06701,2.14103 -0.41681,5.68407 0.35769,7.64438c1.11915,2.8326 1.8832,-2.18981 1.90852,-2.89264c-0.04483,-1.40042 -0.08825,-2.80086 -0.13211,-4.2013l-0.05277,-0.19683c0,0 -0.15589,-0.77765 0.49692,-0.9377z" fill="#0a0908" stroke-width="0.5"/><path d="M164.27694,173.3244c-0.7095,0.0063 -0.73482,-0.88731 -0.73482,-0.88731l-0.00448,-0.15886c-0.07275,-2.79851 -0.02768,-5.48442 0.47914,-8.18518c0,0 0.14281,-0.76036 0.73124,-0.66521c0.44311,-0.00272 0.61851,0.3463 0.68774,0.60736c0.52882,0.87282 0.87039,1.86099 1.26398,2.82816c0.30973,-1.06185 0.51469,-2.20699 0.79021,-3.26887c0,0 0.21865,-0.84201 0.89409,-0.54257c0.0152,0.00672 0.02992,0.01372 0.04423,0.021c0.56795,-0.06875 0.7369,0.67474 0.7369,0.67474l0.0873,0.39795c0.40561,2.72674 0.62714,5.702 0.175,8.37634c0,0 -0.1475,0.86854 -0.84196,0.65792c-0.69447,-0.21057 -0.54698,-1.07911 -0.54698,-1.07911c0.25232,-1.4783 -0.01572,-3.07341 0.00703,-4.65775c-0.12895,0.45758 -0.27306,0.90496 -0.44346,1.33364l-0.2421,0.35445c-0.04943,0.10277 -0.12434,0.20292 -0.23389,0.29374c-0.1689,0.14009 -0.32258,0.17715 -0.45573,0.15899c-0.13327,-0.01616 -0.28032,-0.09197 -0.43035,-0.27315c-0.08379,-0.10117 -0.14146,-0.20258 -0.17934,-0.30152c-0.38884,-0.76715 -0.67375,-1.62015 -1.00246,-2.42912c-0.27278,1.86977 -0.16185,3.74818 -0.10158,5.68563l0.0045,0.15884c0,0 0.02534,0.89366 -0.68416,0.89999z" fill="#0a0908" stroke-width="0.5"/><path d="M175.03639,172.10691c0.04398,0.84229 -0.54632,0.85379 -0.54632,0.85379l-0.21721,0.00176c-0.88906,0.11482 -3.35333,0.82308 -3.81737,-0.87222c-0.13241,-0.4838 0.23064,-0.94283 0.34497,-1.41479c0.20843,-0.86026 1.14057,-3.96425 1.92814,-5.15447c-0.68091,-0.02033 -1.35912,0.00603 -2.04001,0.0193c0,0 -0.59029,0.01154 -0.63429,-0.83074c-0.04398,-0.84229 0.54633,-0.85382 0.54633,-0.85382c0.94618,-0.01849 1.88285,-0.05019 2.83214,0.03163l0.05343,0.04297l0.00364,-0.02635l0.57629,0.20876c0.26168,0.08617 0.46938,0.41384 0.49002,0.80868c0.01511,0.28969 -0.07402,0.54722 -0.22218,0.70184l-0.37069,0.39826c-0.54878,1.24711 -1.03502,2.52256 -1.55639,3.82262c-0.17225,0.42952 -0.30783,1.30123 -0.60417,1.67388c0.1171,-0.0595 0.24609,-0.11367 0.32251,-0.12178c0.65576,-0.06948 1.3129,-0.02568 1.96931,-0.11165l0.30751,-0.00849c0,0 0.59029,-0.01154 0.63429,0.83074z" fill="#0a0908" stroke-width="0.5"/></g><path d="M188.42546,301.07189c-0.01613,1.05673 -4.17348,5.24607 -23.77253,5.37871c-24.24595,0.1641 -25.85528,-3.80296 -25.83918,-4.85967c0.01318,-0.8637 4.78589,-15.42815 8.7701,-19.54625c1.78893,-1.84903 14.49532,-1.96239 17.00273,-1.92415c1.91833,0.02926 12.77606,0.34436 14.53598,1.03037c2.95114,1.15033 9.31296,19.25958 9.30287,19.92097z" fill="#f2c07a" stroke-opacity="0.5098" stroke="#000000" stroke-width="1.5" stroke-linecap="butt"/><path d="M176.85245,215.77049c0,0 -6.82105,4.37263 -24.22226,3.19397c-10.27823,-0.6962 -9.90942,-3.88091 -9.90942,-3.88091" fill="#000000" stroke="#000000" stroke-width="1.5" stroke-linecap="round"/><path d="M228.34671,200.22926c-1.8203,0 -3.29595,-1.63857 -3.29595,-3.65984v-31.41365c0,-2.02128 1.47565,-3.65984 3.29595,-3.65984h92.83592c1.8203,0 3.29595,1.63857 3.29595,3.65984v31.41365c0,2.02128 -1.47565,3.65984 -3.29595,3.65984z" fill="none" stroke-opacity="0.5098" stroke="#79abf2" stroke-width="2" stroke-linecap="butt"/><path d="M231.01265,196.42926c-1.69408,0 -3.0674,-1.28024 -3.0674,-2.8595v-24.54402c0,-1.57926 1.37332,-2.8595 3.0674,-2.8595h86.39853c1.69408,0 3.0674,1.28024 3.0674,2.8595v24.54402c0,1.57926 -1.37332,2.8595 -3.0674,2.8595z" fill="#e2efff" stroke="none" stroke-width="0" stroke-linecap="butt"/><text transform="translate(244.10766,178.41259) scale(0.23564,0.23564)" font-size="40" xml:space="preserve" fill="#153f72" stroke="none" stroke-width="1" stroke-linecap="butt" font-family="Sans Serif" font-weight="normal" text-anchor="start"><tspan x="0" dy="0">dumzvt.pmp</tspan></text><path d="M233.27639,182.04777c-0.98427,0 -1.78218,-0.79791 -1.78218,-1.78218v-8.81188c0,-0.98427 0.79791,-1.78218 1.78218,-1.78218h5.54455c0.98427,0 1.78218,0.79791 1.78218,1.78218v8.81188c0,0.98427 -0.79791,1.78218 -1.78218,1.78218z" fill="#153f72" stroke="none" stroke-width="0" stroke-linecap="butt"/><path d="M241.49421,174.82004l-5.84158,-5.64356" fill="none" stroke="#e2efff" stroke-width="1" stroke-linecap="round"/><text transform="translate(232.03608,190.92648) scale(0.32811,0.20386)" font-size="40" xml:space="preserve" fill="#153f72" stroke="none" stroke-width="1" stroke-linecap="butt" font-family="Archivo Black" font-weight="normal" text-anchor="start"><tspan x="0" dy="0">DOWNLOAD</tspan></text></g></g></svg>