<svg version="1.1" xmlns="http://www.w3.org/2000/svg" xmlns:xlink="http://www.w3.org/1999/xlink" width="122.30206" height="294.75147" viewBox="0,0,122.30206,294.75147"><g transform="translate(-187.08203,-33.03837)"><g stroke-miterlimit="10"><g stroke="#0a0908" stroke-width="1.5" stroke-linecap="butt"><path d="M293.76599,142.06879c-6.20261,-1.27541 -8.18942,-8.21648 -7.63851,-13.77237c0.55091,-5.55591 6.02571,-9.02597 12.22835,-7.75057c6.20262,1.27539 10.78426,6.81325 10.23336,12.36914c-0.5509,5.55589 -8.62053,10.42917 -14.82316,9.15378z" fill="#ffffff"/><path d="M257.58395,184.51199c-3.65012,-0.75054 -9.15965,-18.47266 -1.26353,-30.95577c0.71086,-1.12381 16.10554,5.34956 16.7852,4.1923c5.90881,-10.06084 8.88626,-22.91904 9.87196,-25.46669c0.14259,-0.36853 0.28792,-0.72911 0.43621,-1.08156c1.02618,1.18604 2.01067,2.12569 3.11576,3.06957c0.77053,0.65814 1.01588,2.04912 1.88349,2.53026c2.27745,0.97779 4.76001,1.1763 7.11402,1.66033c2.32796,0.47869 4.67193,0.76698 7.00944,1.24761c1.66759,0.34289 3.37812,0.26143 5.0894,0.49499c-0.00166,0.01705 -0.00333,0.03411 -0.00502,0.05115c-0.19035,1.91971 -1.20774,8.50789 -3.05875,14.82037c-2.08551,7.11224 -4.95401,15.99125 -8.31901,24.65435c-0.38519,0.99166 -3.63718,4.01958 -8.22507,4.67999c-11.37755,1.63775 -30.4341,0.10309 -30.4341,0.10309z" fill="#ffd599"/><path d="M295.04981,140.46064c-5.72005,-1.99008 -11.69812,-6.20191 -11.58459,-7.34684c0.10235,-1.03213 0.68354,-4.27926 2.91081,-4.25478c1.74121,0.01915 6.47166,2.54472 10.56128,4.11087c2.84763,1.09053 7.91702,2.58756 8.27563,2.79867c3.11154,1.83185 2.50127,3.61232 2.31539,5.4869c-0.12453,1.25598 -6.20375,1.38826 -12.47852,-0.7948z" fill="#f2c07a"/></g><path d="M256.75782,150.06951c-0.42735,5.73797 -10.45739,9.71412 -18.5596,9.66259c-2.7252,-0.01733 -15.92708,-0.20376 -17.85234,-1.13539c-3.7987,-1.83817 -5.92112,-5.19045 -5.89683,-9.0089c0.03659,-5.75375 8.12269,-10.36684 16.22491,-10.31531c8.10221,0.05153 26.7813,1.43289 26.08388,10.79701z" fill="#ffd599" stroke="#0a0908" stroke-width="1.5" stroke-linecap="butt"/><path d="M247.91962,246.68019c4.65351,-24.14905 23.02313,-23.37917 29.09184,-23.00209c2.19284,0.13625 2.97343,1.25186 3.06489,12.35665c0.25186,30.57173 4.93788,48.66615 4.29346,79.23211c-0.13507,6.40681 -14.06597,7.75365 -21.56416,7.28777c-7.4982,-0.4659 -12.42043,-0.42626 -12.28536,-6.83308c0.00172,-0.08135 0.21378,-2.39375 0.18817,-2.96087c-0.35897,-7.9475 -3.81198,-60.7711 -2.78885,-66.08049z" fill="#382f25" stroke="#0a0908" stroke-width="1.5" stroke-linecap="butt"/><path d="M245.83071,314.27878c0.19487,6.2163 -9.16574,10.42132 -17.82638,10.71374c-8.66064,0.29243 -18.9581,-2.40673 -19.15296,-8.62301c-0.10711,-3.41715 1.0646,-64.4462 1.05162,-67.32055c-0.07115,-15.77194 0.59686,-22.65785 3.89553,-22.76922c7.00957,-0.23666 26.52972,-0.81619 32.05264,22.70281c1.30092,5.53983 -0.05761,64.11119 -0.02045,65.29627z" fill="#382f25" stroke="#0a0908" stroke-width="1.5" stroke-linecap="butt"/><path d="M287.84888,316.25963c0.25639,4.80669 0.29259,8.08671 -6.47512,8.31111c-16.63087,0.55143 -27.1707,-0.14393 -27.42713,-4.95061c-0.13511,-2.5329 5.84759,-6.74647 9.89825,-8.86214c3.63631,-1.89926 9.50097,-4.53343 12.70009,-4.69591c0.21858,-0.0111 -0.01999,0.30156 0.19275,0.30388c6.36914,0.0696 10.86303,5.24238 11.11114,9.89371z" fill="#686664" stroke="#0a0908" stroke-width="1.5" stroke-linecap="butt"/><path d="M239.10883,326.87756c-18.61966,0.59008 -30.04847,-1.91955 -30.33684,-7.10153c-0.15194,-2.73067 8.3509,-7.78796 12.88541,-10.06771c10.43712,-5.24734 24.05515,-2.17842 24.69198,9.26676c0,0 0.33645,7.66237 -7.24058,7.90249z" fill="#686664" stroke="#0a0908" stroke-width="1.5" stroke-linecap="butt"/><path d="M279.46482,231.91999c-0.02469,11.28649 -13.5583,24.08473 -31.99051,24.0409c-18.4322,-0.04383 -37.29089,-15.90975 -37.43972,-29.95727c-0.11958,-11.28532 17.66833,-14.64279 36.10052,-14.59896c18.4322,0.04383 33.35442,9.22886 33.32971,20.51535z" fill="#39322b" stroke="#0a0908" stroke-width="1.5" stroke-linecap="butt"/><path d="M278.97201,243.36643c-0.02074,9.47458 -15.13138,17.11934 -33.75057,17.07508c-18.61917,-0.04428 -33.69619,-7.76083 -33.67544,-17.23542c0.00904,-4.12204 -0.64902,-15.99081 4.11871,-18.93766c6.19099,-3.82654 19.11317,1.83754 29.63186,1.86255c13.40549,0.03187 25.88682,-8.18261 31.30716,-2.40381c2.10808,2.24748 2.3741,16.98619 2.36828,19.63923z" fill="#382f25" stroke="none" stroke-width="0" stroke-linecap="butt"/><path d="M253.68962,260.06728l-10.3164,1.1586" fill="none" stroke="#0a0908" stroke-width="1.5" stroke-linecap="round"/><path d="M279.65737,230.42281c-0.09809,5.8708 -14.99031,10.99747 -34.93053,10.62375c-19.94023,-0.37373 -36.6915,-4.16915 -36.51695,-14.61612c0.06047,-3.61953 0.17072,-35.14743 8.29993,-59.13731c2.1427,-6.32326 3.67633,-11.74472 6.65526,-15.70512c4.05057,-5.38513 10.88505,-8.03616 17.86458,-8.51646c4.39695,-0.30257 13.6382,3.7818 18.35272,9.72025c8.70243,10.96168 7.91211,21.4301 11.64614,34.02448c1.38474,4.67052 8.66836,40.91439 8.63221,43.07818z" fill="#ffd599" stroke="#0a0908" stroke-width="1.5" stroke-linecap="butt"/><path d="M281.22087,235.98657c-0.02513,1.0231 -0.74313,1.38229 -1.38663,1.76523c-11.10853,6.61071 -40.586,6.86357 -56.19109,4.07748c-8.4174,-1.50281 -13.22813,-3.57464 -14.91355,-5.44047c-1.50158,-1.6623 -0.01447,-4.0641 -0.00849,-4.30752c0.01547,-0.62931 7.2842,5.295 45.06079,4.61029c15.85306,-0.28733 26.33569,-5.56557 26.62094,-5.68468c1.47065,-0.61424 0.84317,3.95654 0.81805,4.97962z" fill="#f2c07a" stroke="#0a0908" stroke-width="1.5" stroke-linecap="butt"/><g stroke="#0a0908" stroke-width="1.5" stroke-linecap="butt"><path d="M214.40882,237.19607c-0.57979,5.71289 -6.98978,9.34335 -14.3171,8.10887c-7.32735,-1.23447 -12.79733,-6.86642 -12.21754,-12.5793c0.57979,-5.71289 10.03082,-10.81608 17.35818,-9.58162c7.32735,1.23447 9.75625,8.33915 9.17647,14.05203z" fill="#ffffff"/><path d="M218.07186,233.06449c-0.16344,0.3802 -0.33026,0.75234 -0.50063,1.11611c-1.22449,-1.20566 -2.39672,-2.15873 -3.71117,-3.11471c-0.91651,-0.66656 -1.22317,-2.09217 -2.25187,-2.57579c-2.6968,-0.97655 -5.6256,-1.15025 -8.40647,-1.61877c-2.75009,-0.4633 -5.51666,-0.73091 -8.27806,-1.19614c-1.96993,-0.3319 -3.98522,-0.22741 -6.00533,-0.4465c0.00173,-0.01752 0.00346,-0.03506 0.00524,-0.05259c0.20033,-1.97395 1.31706,-8.75269 3.41985,-15.25842c7.45653,-23.06942 24.45653,-62.97945 33.7649,-61.41121c8.07503,1.36045 -5.33279,78.26867 -8.03651,84.55802z" fill="#ffd599"/><path d="M217.48666,232.21593c-0.10769,1.06132 -0.7521,4.40332 -3.3778,4.40524c-2.0527,0.00152 -7.66035,-2.53487 -12.50065,-4.09367c-3.3703,-1.0854 -9.36462,-2.56128 -9.78998,-2.77375c-3.69068,-1.84356 -2.99365,-3.67963 -2.798,-5.60716c0.13107,-1.29144 7.29529,-1.50123 14.71904,0.6646c6.76744,1.97437 13.86689,6.22745 13.74742,7.40473z" fill="#f2c07a"/></g><path d="M234.59534,161.92005c-0.04725,7.42891 -4.9683,13.81388 -7.7685,13.79607c-2.80019,-0.01781 -4.53221,-6.44509 -4.48496,-13.87401c0.02606,-4.09742 0.98607,-7.36729 2.09094,-9.82753c0.89835,-2.00035 3.92212,-3.586 5.17787,-3.57801c2.80019,0.01781 5.03188,6.05457 4.98464,13.48347z" fill="#ffd599" stroke="none" stroke-width="0" stroke-linecap="butt"/><path d="M267.94255,164.39524c2.70506,4.90053 4.46996,11.6922 3.03851,12.57363c-1.43146,0.88146 -5.15098,-3.42888 -7.85602,-8.32943c-2.70507,-4.90053 -5.69791,-14.06227 -4.26645,-14.94372c1.43146,-0.88146 6.37891,5.79896 9.08397,10.6995z" fill="#ffd599" stroke="none" stroke-width="0" stroke-linecap="butt"/><path d="M258.63741,151.31778c-0.18316,3.40564 -5.19216,7.93639 -13.87576,7.48109c-9.95909,-0.52217 -17.10023,-6.43907 -16.91707,-9.8447c0.18316,-3.40564 7.36865,-5.74975 16.04926,-5.23571c8.68063,0.51404 14.92672,4.19368 14.74356,7.59932z" fill="#f2c07a" stroke="#0a0908" stroke-width="1.5" stroke-linecap="butt"/><path d="M254.01865,169.27961c0.364,1.60203 0.94938,3.69221 -0.60178,5.07645c-2.36892,2.11403 -3.0708,-6.34946 -2.74758,-8.64125c0.11054,-0.78382 -1.90556,-8.95021 -0.63148,-10.11469c0.23981,-0.65881 2.61357,-1.00696 2.64455,0.20769c0.00395,0.15484 0.12466,1.10173 0.10797,1.24835c0.9063,2.27059 1.03847,11.38799 1.2283,12.22344z" fill="#969696" stroke="#434242" stroke-width="1" stroke-linecap="butt"/><path d="M244.62232,166.16558c-0.22743,1.00708 -0.87016,3.43908 -0.75878,4.39103c0.21356,1.82545 1.18993,5.58012 -0.73026,6.94576c-2.93255,2.08558 -2.68327,-7.41968 -2.03673,-9.93534c0.22114,-0.8604 0.33076,-1.61684 0.50671,-2.56283c0.27208,-1.46277 -1.55552,-7.62106 0.02508,-8.77338c0.35157,-0.7065 3.07237,-0.82494 2.95791,0.53132c-0.01459,0.17288 0.00511,1.24111 -0.03175,1.40252c0.74313,2.63154 0.49303,6.11814 0.06783,8.00091z" fill="#969696" stroke="#434242" stroke-width="1" stroke-linecap="butt"/><path d="M252.61562,150.14914c-0.00466,0.73218 -2.74698,3.90686 -7.88347,3.87419c-5.13649,-0.03267 -10.72205,-3.26031 -10.71739,-3.99249c0.00466,-0.73218 -1.22309,-6.91491 3.86832,-7.39977c18.26984,-1.7399 14.73721,6.78592 14.73255,7.51807z" fill="#ffffff" stroke="#0a0908" stroke-width="1.5" stroke-linecap="butt"/><path d="M286.45498,82.53893c-0.00969,0.39675 0.46965,2.36376 0.88795,5.51159c1.14728,8.63334 1.63602,24.78986 -9.40816,31.43241c-0.18893,0.11362 -3.7041,6.41974 -8.15794,7.12285c-3.07222,0.485 -7.95752,5.39083 -13.21905,6.36156c-8.06671,1.4883 -16.48959,-0.92873 -16.48959,-0.92873c0,0 -10.33062,2.61104 -14.91204,2.76762c-8.11125,0.27724 -16.72095,-4.58804 -16.84185,-4.47497c-0.35416,0.33125 -2.08237,0.22506 -3.39044,-0.76478c-1.33552,-1.01059 -2.25099,-2.90715 -2.57746,-2.73848c-1.15937,0.59903 -6.0164,-2.0421 -9.33578,-9.42945c-1.99441,-4.43858 -0.38112,-9.93385 -0.60754,-10.62017c-6.86812,-20.82008 -1.67306,-32.97058 7.86252,-44.07362c0.99223,-1.15534 1.65236,-7.26379 8.44137,-13.89897c8.07372,-7.89077 15.58056,-4.79381 15.58056,-4.79381c0,0 6.79168,-7.8145 19.15519,-7.73587c9.03303,0.05745 17.05456,3.85775 21.08667,9.38471c0.39829,0.54594 3.02522,0.13943 4.90407,0.85369c6.4673,2.45856 17.67561,9.25109 17.02149,36.02439z" fill="#0a0907" stroke="none" stroke-width="0" stroke-linecap="butt"/><path d="M278.14924,106.2648c0.71952,6.30353 0.97338,17.26073 0.7789,18.56922c-2.05748,13.84342 -13.07261,22.95105 -32.50349,23.40642c-21.02688,0.49277 -37.15993,-12.31127 -37.55407,-29.12955c-0.39413,-16.81829 4.0774,-37.61047 30.27225,-39.87717c34.76461,-3.00827 38.12881,24.58993 38.3706,26.70814z" fill="#ffffff" stroke="#000000" stroke-width="1.5" stroke-linecap="butt"/><path d="M287.40897,79.76843c-0.00504,0.40538 0.50865,2.40879 0.97447,5.61909c1.27757,8.80472 3.01965,22.10706 -8.18044,29.02741c-0.96288,0.59495 -0.75167,1.71279 -1.49958,-0.35941c-0.81512,-2.25843 -2.49396,-5.38316 -3.43321,-8.27127c-1.32532,-4.07518 -1.81027,-7.67568 -1.81027,-7.67568c0,0 -4.33543,-2.22939 -6.15293,-3.50498c-1.92245,-1.34928 -5.7344,-6.50465 -5.7344,-6.50465c0,0 -10.52124,0.69078 -14.86184,0.44964c-3.3813,-0.18786 -9.23918,-1.13792 -9.23918,-1.13792c0,0 -4.62469,3.30706 -7.45207,4.62765c-3.1117,1.45337 -10.23799,3.0934 -10.23799,3.0934c0,0 -0.98765,6.29212 -2.58605,10.42592c-1.34837,3.48722 -3.1982,4.45787 -4.5815,8.72329c-1.098,3.38565 -0.04914,6.51528 -0.73766,9.21787c-0.8027,3.15074 -3.27996,5.64081 -3.70145,6.0446c-0.35773,0.34269 -2.12434,0.25538 -3.47264,-0.73971c-1.37657,-1.01597 -2.33492,-2.94204 -2.66631,-2.76574c-1.17695,0.62608 -6.17061,-2.01235 -9.65166,-9.51772c-2.09156,-4.50952 -1.01086,-10.13973 -1.25053,-10.83801c-5.27324,-21.69443 0.39034,-33.17227 7.5005,-43.61642c0.99939,-1.1923 0.09899,-7.43158 6.95263,-14.29236c8.15055,-8.15904 17.84809,-6.59866 17.84809,-6.59866c0,0 6.84192,-8.06544 19.47193,-8.1364c9.22774,-0.05185 17.46807,3.7319 21.65439,9.32825c0.41352,0.55279 3.0919,0.10541 5.01983,0.812c6.63629,2.43224 18.16843,9.23349 17.82788,36.5898z" fill="#0a0907" stroke="#000000" stroke-width="1" stroke-linecap="butt"/><path d="M247.00172,118.03623c-0.05241,8.24027 -6.26112,14.06575 -14.92746,13.84757c-8.01276,-0.20174 -14.12229,-5.95591 -13.93377,-14.1942c0.22584,-9.86987 6.42729,-14.55392 14.44242,-14.50294c8.01513,0.05098 14.47122,6.60929 14.41881,14.84956z" fill="#ffffff" stroke="#000000" stroke-width="1.5" stroke-linecap="butt"/><path d="M265.02896,101.95429c6.55392,0.04168 11.57136,4.61399 11.64435,14.10309c0.06093,7.92048 -4.99945,13.38203 -11.55314,13.48529c-7.08825,0.11167 -12.09872,-5.55782 -12.04834,-13.47866c0.05038,-7.92083 5.40321,-14.1514 11.95713,-14.10972z" fill="#ffffff" stroke="#000000" stroke-width="1.5" stroke-linecap="butt"/><path d="M243.08826,118.02002c-0.01596,2.50991 -1.42107,4.53576 -3.13838,4.52484c-1.71732,-0.01092 -3.09654,-2.05448 -3.08057,-4.56439c0.01596,-2.50991 1.42107,-4.53576 3.13838,-4.52484c1.71732,0.01092 3.09654,2.05448 3.08057,4.56439z" fill="#000000" stroke="#000000" stroke-width="1.5" stroke-linecap="butt"/><path d="M259.64,117.78694c-0.01596,2.50991 -1.31397,4.53644 -2.8992,4.52636c-1.58521,-0.01008 -2.85735,-2.05295 -2.84139,-4.56287c0.01596,-2.50991 1.31397,-4.53644 2.8992,-4.52636c1.58521,0.01008 2.85735,2.05294 2.84139,4.56287z" fill="#000000" stroke="#000000" stroke-width="1.5" stroke-linecap="butt"/><path d="M268.43022,139.43761c-41.75594,4.17895 -42.41746,-0.11032 -42.41746,-0.11032" fill="none" stroke="#000000" stroke-width="1.5" stroke-linecap="round"/><g stroke="#0a0908" stroke-linecap="butt"><path d="M263.40062,87.80073c0.01147,0.23657 -0.48903,2.68745 -0.27532,5.10898c0.24417,2.76654 2.42163,5.80226 0.304,7.41107c-5.40663,4.10758 -19.63991,2.4572 -23.98954,2.50034c-4.00539,0.03974 -3.36647,-3.79581 -3.13462,-7.56978c0.20485,-3.33452 -0.198,-6.61813 -0.22521,-7.17956c-0.05799,-1.19685 6.01095,-2.22775 13.55535,-2.3026c7.54439,-0.07487 13.70736,0.83472 13.76534,2.03154z" fill="#ffbc6f" stroke-width="1.5"/><path d="M238.11477,89.89079c-0.03325,-0.76944 0.69485,-0.7792 0.69485,-0.7792l0.25009,-0.00107c6.21784,0.42604 7.51312,11.17132 0.88627,11.3118c0,0 -0.00332,0.00006 -0.00942,-0.00009c-0.10114,0.08278 -0.24188,0.14035 -0.43771,0.14297c-0.72809,0.00974 -0.76134,-0.75972 -0.76134,-0.75972l-0.01183,-0.27354c-0.12964,-3.00012 -0.13981,-6.00098 -0.25979,-8.99555c-0.17181,-0.1006 -0.33575,-0.28978 -0.35112,-0.64555zM240.15587,98.87324c4.1061,-0.29369 3.35148,-6.8403 -0.22261,-8.04556c0.09834,2.67913 0.12035,5.36192 0.22261,8.04556z" fill="#0a0908" stroke-width="0.5"/><path d="M248.80745,89.54944c0.65135,-0.16589 0.81418,0.61033 0.81418,0.61033l0.0931,0.50728c0.05719,1.422 0.11468,2.84396 0.17095,4.26595c-0.04453,1.36895 -0.0195,3.5847 -0.95357,4.5459c-1.1423,1.17539 -2.79238,0.53334 -3.46581,-1.00386c-0.93821,-2.1416 -0.47818,-5.93764 -0.57306,-8.29765c0,0 -0.0319,-0.79367 0.63874,-0.8041c0.67063,-0.01043 0.70256,0.78323 0.70256,0.78323c0.08606,2.14034 -0.36624,5.68755 0.42566,7.6409c1.14429,2.82253 1.86365,-2.20647 1.88272,-2.90949c-0.05728,-1.39997 -0.11315,-2.79997 -0.16945,-4.19995l-0.05451,-0.19635c0,0 -0.1628,-0.77623 0.48855,-0.94209z" fill="#0a0908" stroke-width="0.5"/><path d="M251.26225,99.08905c-0.70941,0.01262 -0.74269,-0.88075 -0.74269,-0.88075l-0.00589,-0.15882c-0.09763,-2.79776 -0.07645,-5.48396 0.40632,-8.18912c0,0 0.13605,-0.7616 0.7253,-0.6717c0.44307,-0.00666 0.62158,0.34078 0.69312,0.60122c0.53657,0.86807 0.8869,1.85317 1.28908,2.81681c0.30028,-1.06455 0.49505,-2.21149 0.76111,-3.27577c0,0 0.21116,-0.84392 0.88923,-0.5505c0.01526,0.00659 0.03004,0.01344 0.04441,0.02061c0.56731,-0.0738 0.74288,0.66816 0.74288,0.66816l0.09083,0.39716c0.42985,2.72302 0.67782,5.6962 0.24949,8.37445c0,0 -0.13977,0.86982 -0.83608,0.66538c-0.69631,-0.20439 -0.55655,-1.0742 -0.55655,-1.0742c0.23916,-1.48048 -0.04306,-3.07316 -0.03439,-4.65763c-0.12488,0.45871 -0.265,0.90734 -0.43159,1.33753l-0.23893,0.35658c-0.04852,0.10321 -0.12253,0.20402 -0.23126,0.29582c-0.16765,0.14159 -0.32098,0.18 -0.4543,0.16304c-0.13341,-0.01498 -0.28113,-0.08948 -0.43276,-0.26931c-0.08468,-0.10042 -0.14326,-0.20131 -0.18202,-0.2999c-0.39565,-0.76366 -0.68813,-1.6141 -1.02402,-2.42011c-0.25613,1.87213 -0.12851,3.74947 -0.05102,5.68631l0.0059,0.1588c0,0 0.03329,0.89341 -0.67613,0.90604z" fill="#0a0908" stroke-width="0.5"/><path d="M262.01043,97.77592c0.05147,0.84186 -0.5387,0.85861 -0.5387,0.85861l-0.21719,0.00369c-0.888,0.12272 -3.34588,0.85288 -3.82498,-0.83823c-0.13671,-0.48261 0.22224,-0.94485 0.33238,-1.4178c0.20077,-0.86208 1.10527,-3.97424 1.88223,-5.17141c-0.68107,-0.01427 -1.35901,0.01812 -2.03976,0.03744c0,0 -0.59016,0.01678 -0.64165,-0.82508c-0.05147,-0.84186 0.5387,-0.85864 0.5387,-0.85864c0.94598,-0.0269 1.88233,-0.06694 2.83232,0.00644l0.05382,0.04249l0.00341,-0.02638l0.57812,0.20363c0.26244,0.08384 0.47304,0.40965 0.49719,0.8043c0.0177,0.28955 -0.06916,0.54785 -0.21593,0.70379l-0.36713,0.40154c-0.53767,1.25193 -1.01255,2.53166 -1.52233,3.83631c-0.16842,0.43104 -0.29624,1.30391 -0.58925,1.67919c0.11657,-0.06054 0.24508,-0.11586 0.32142,-0.12464c0.65512,-0.07531 1.31261,-0.03735 1.96824,-0.12915l0.30742,-0.01122c0,0 0.59016,-0.01678 0.64165,0.82508z" fill="#0a0908" stroke-width="0.5"/></g><path d="M274.57614,227.09078c-0.00672,1.05682 -4.12665,5.28298 -23.72375,5.58991c-24.24353,0.37972 -25.88809,-3.57287 -25.88137,-4.62968c0.00549,-0.86377 4.64848,-15.4701 8.59592,-19.62347c1.77241,-1.86487 14.47729,-2.09123 16.98495,-2.07528c1.91851,0.0122 12.77861,0.23073 14.54456,0.90105c2.96125,1.12404 9.48387,19.17599 9.47966,19.83745z" fill="#f2c07a" stroke-opacity="0.5098" stroke="#000000" stroke-width="1.5" stroke-linecap="butt"/><path d="M265.05838,140.88413c0,0 -4.2583,3.70529 -24.30744,2.82323c-11.84226,-0.521 -15.00176,-3.14843 -15.00176,-3.14843" fill="#000000" stroke="#000000" stroke-width="1.5" stroke-linecap="round"/></g></g></svg>