<svg version="1.1" xmlns="http://www.w3.org/2000/svg" xmlns:xlink="http://www.w3.org/1999/xlink" width="131.64311" height="294.39559" viewBox="0,0,131.64311,294.39559"><g transform="translate(-182.66308,-32.96768)"><g stroke-miterlimit="10"><g stroke="#0a0908" stroke-width="1.5" stroke-linecap="butt"><path d="M295.55382,160.73556c-4.81533,-3.70291 -3.61662,-10.52413 -0.81006,-15.0856c2.80656,-4.56149 8.98535,-5.25752 13.80071,-1.55462c4.81535,3.7029 6.4438,10.40249 3.63726,14.96396c-2.80655,4.56147 -11.81249,5.37914 -16.62785,1.67624z" fill="#ffffff"/><path d="M249.88398,174.97168c-2.83373,-2.17908 -2.39293,-14.08236 9.65655,-21.53724c1.08478,-0.67113 14.39548,10.24746 15.46737,9.53439c9.31875,-6.19928 13.42705,-13.41863 15.34637,-15.20269c0.27764,-0.25807 0.55432,-0.50812 0.83013,-0.74995c0.38753,1.4537 0.84248,2.67737 1.39968,3.95529c0.38851,0.89105 0.01649,2.19389 0.563,2.973c1.55428,1.79912 3.6125,3.01208 5.44002,4.41739c1.80728,1.38977 3.70827,2.62203 5.52299,4.01748c1.29461,0.99553 2.80435,1.64302 4.18253,2.56258c-0.00858,0.01401 -0.01719,0.02803 -0.0258,0.04202c-0.96974,1.57611 -4.61186,6.83231 -8.85739,11.50089c-4.78341,5.26007 -9.39639,8.42564 -15.93427,14.48662c-0.74839,0.69379 -7.13534,2.91716 -11.37008,1.5617c-10.50176,-3.36143 -22.22109,-17.5615 -22.22109,-17.5615z" fill="#ffd599"/><path d="M297.33609,159.88705c-4.09918,-4.11691 -7.48865,-10.25862 -6.91029,-11.19861c0.52139,-0.84738 2.38528,-3.40456 4.29629,-2.44885c1.49397,0.74716 4.51479,4.91073 7.38542,7.9778c1.99883,2.13563 5.74362,5.55418 5.96438,5.88677c1.91542,2.88585 0.64187,4.16563 -0.30506,5.70469c-0.63445,1.03118 -5.93403,-1.40564 -10.43075,-5.92179z" fill="#f2c07a"/></g><path d="M256.34713,150.10903c-0.44302,5.73677 -10.48388,9.68552 -18.58591,9.61187c-2.72515,-0.02477 -15.92646,-0.24725 -17.84918,-1.18414c-3.79367,-1.84853 -5.90692,-5.2066 -5.87221,-9.02496c0.0523,-5.75363 8.15097,-10.34462 16.25303,-10.27097c8.10204,0.07365 26.77729,1.50601 26.0543,10.8682z" fill="#ffd599" stroke="#0a0908" stroke-width="1.5" stroke-linecap="butt"/><path d="M247.90007,246.34227c4.71943,-24.13626 23.08688,-23.31622 29.15455,-22.92256c2.19246,0.14224 2.96999,1.25997 3.03114,12.36498c0.16838,30.5723 4.80498,48.67945 4.07709,79.24354c-0.15256,6.40642 -14.08708,7.71521 -21.58398,7.22886c-7.4969,-0.48637 -12.41922,-0.46018 -12.26666,-6.86661c0.00194,-0.08134 0.22032,-2.39316 0.19624,-2.96034c-0.33727,-7.94846 -3.64602,-60.78128 -2.6084,-66.08787z" fill="#382f25" stroke="#0a0908" stroke-width="1.5" stroke-linecap="butt"/><path d="M245.62657,313.93491c0.1779,6.2168 -9.19416,10.39625 -17.85557,10.66502c-8.6614,0.26878 -18.95145,-2.45849 -19.12935,-8.67528c-0.09778,-3.41743 1.24058,-64.44305 1.23545,-67.31743c-0.02808,-15.77208 0.65872,-22.65614 3.95769,-22.7585c7.01018,-0.21752 26.53185,-0.74374 31.99053,22.79025c1.28579,5.54336 -0.23267,64.1108 -0.19875,65.29597z" fill="#382f25" stroke="#0a0908" stroke-width="1.5" stroke-linecap="butt"/><path d="M287.63918,316.03049c0.24327,4.80737 0.27051,8.08749 -6.49779,8.2934c-16.63232,0.50601 -27.17021,-0.21813 -27.41351,-5.02548c-0.1282,-2.53326 5.86599,-6.73047 9.92241,-8.83508c3.64149,-1.88932 9.51332,-4.50747 12.71287,-4.66122c0.21861,-0.0105 -0.02082,0.3015 0.19192,0.3044c6.36892,0.087 10.84867,5.27202 11.08408,9.92401z" fill="#686664" stroke="#0a0908" stroke-width="1.5" stroke-linecap="butt"/><path d="M238.87033,326.51528c-18.6212,0.53923 -30.04311,-2.0016 -30.31734,-7.18434c-0.14448,-2.73108 8.37214,-7.76513 12.91286,-10.03249c10.45142,-5.21881 24.06101,-2.11273 24.66659,9.33415c0,0 0.31553,7.66327 -7.26213,7.88269z" fill="#686664" stroke="#0a0908" stroke-width="1.5" stroke-linecap="butt"/><path d="M279.48546,231.66827c-0.05551,11.28638 -13.62402,24.04761 -32.05603,23.95345c-18.43202,-0.09416 -37.2473,-16.01153 -37.35778,-30.05939c-0.08876,-11.2856 17.70825,-14.59449 36.14025,-14.50033c18.43202,0.09416 33.32909,9.31991 33.27356,20.60629z" fill="#39322b" stroke="#0a0908" stroke-width="1.5" stroke-linecap="butt"/><path d="M278.96139,243.11332c-0.04661,9.47449 -15.17806,17.07796 -33.79707,16.98285c-18.61898,-0.09512 -33.67487,-7.85281 -33.62825,-17.32731c0.02029,-4.122 -0.60536,-15.99252 4.17041,-18.92634c6.20142,-3.80962 19.10808,1.88972 29.62667,1.94345c13.40535,0.06848 25.90906,-8.11189 31.31361,-2.31831c2.10194,2.25323 2.3277,16.99261 2.31464,19.64562z" fill="#382f25" stroke="none" stroke-width="0" stroke-linecap="butt"/><path d="M253.6335,259.74507l-10.31953,1.13043" fill="none" stroke="#0a0908" stroke-width="1.5" stroke-linecap="round"/><path d="M279.55926,230.1702c-0.11412,5.87051 -15.02029,10.9565 -34.95941,10.52832c-19.93913,-0.42817 -36.67998,-4.26933 -36.4769,-14.71578c0.07035,-3.61935 0.2667,-35.14683 8.46139,-59.11442c2.15996,-6.31738 3.70839,-11.73464 6.69812,-15.68689c4.06526,-5.37405 10.90696,-8.00641 17.88777,-8.46765c4.39776,-0.29056 13.62783,3.81902 18.32611,9.77033c8.67247,10.9854 9.90958,38.09139 9.90958,38.09139c0,0 10.20022,36.90267 10.15815,39.06636z" fill="#ffd599" stroke="#0a0908" stroke-width="1.5" stroke-linecap="butt"/><path d="M281.2304,235.73963c-0.02792,1.02303 -0.7469,1.38025 -1.39145,1.76143c-11.12654,6.58036 -40.60459,6.75272 -56.20201,3.92403c-8.41327,-1.52579 -13.21832,-3.61075 -14.89864,-5.48117c-1.49703,-1.6664 -0.00338,-4.06413 0.00327,-4.30753c0.01719,-0.62927 7.26971,5.31488 45.04803,4.73332c15.85379,-0.24404 26.35079,-5.49363 26.63636,-5.61197c1.47232,-0.61022 0.83236,3.95883 0.80444,4.98184z" fill="#f2c07a" stroke="#0a0908" stroke-width="1.5" stroke-linecap="butt"/><g stroke="#0a0908" stroke-width="1.5" stroke-linecap="butt"><path d="M209.73969,237.14901c-0.92053,5.66797 -7.53624,8.90843 -14.77659,7.23778c-7.24036,-1.67064 -12.3636,-7.61976 -11.44306,-13.28772c0.92053,-5.66797 10.65996,-10.19659 17.90033,-8.52595c7.24036,1.67064 9.23986,8.90791 8.31933,14.57587z" fill="#ffffff"/><path d="M213.64335,233.244c-0.18589,0.36974 -0.37468,0.73124 -0.5665,1.08415c-1.15016,-1.27676 -2.26327,-2.29825 -3.51817,-3.33116c-0.87499,-0.72019 -1.09581,-2.16159 -2.09374,-2.7059c-2.63355,-1.13614 -5.5467,-1.48476 -8.29457,-2.11882c-2.71744,-0.627 -5.46305,-1.05965 -8.19167,-1.68926c-1.94654,-0.44916 -3.96448,-0.46544 -5.96787,-0.80499c0.00278,-0.01738 0.00555,-0.03479 0.00838,-0.05218c0.31806,-1.95842 1.83836,-8.65822 4.32661,-15.02648c8.82338,-22.58198 28.18066,-61.40345 37.37852,-59.28111c7.97918,1.84112 -10.0059,77.80942 -13.08105,83.92574z" fill="#ffd599"/><path d="M213.10996,232.36194c-0.171,1.05297 -1.0142,4.35043 -3.63531,4.19526c-2.04911,-0.12129 -7.49497,-2.98864 -12.23333,-4.83423c-3.29933,-1.28509 -9.1946,-3.11697 -9.60649,-3.3545c-3.57377,-2.06106 -2.76813,-3.85215 -2.45753,-5.76451c0.2081,-1.28129 7.37203,-1.06208 14.65291,1.54403c6.6372,2.37571 13.46948,7.04592 13.27979,8.21395z" fill="#f2c07a"/></g><path d="M234.51476,161.12799c0.33221,7.42163 -4.25635,14.04958 -7.0538,14.17481c-2.79745,0.12521 -4.85544,-6.20522 -5.18765,-13.62686c-0.18322,-4.0934 0.60854,-7.40804 1.58632,-9.92148c0.79502,-2.04361 3.73387,-3.78162 4.98839,-3.83778c2.79745,-0.12521 5.33452,5.78969 5.66672,13.21131z" fill="#ffd599" stroke="none" stroke-width="0" stroke-linecap="butt"/><path d="M268.14761,164.11231c2.69167,4.9079 4.43802,11.70436 3.00417,12.58188c-1.43386,0.87755 -5.1416,-3.44293 -7.83325,-8.35085c-2.69168,-4.9079 -5.65949,-14.07778 -4.22563,-14.95531c1.43386,-0.87755 6.36305,5.81636 9.05472,10.72427z" fill="#ffd599" stroke="none" stroke-width="0" stroke-linecap="butt"/><path d="M258.87823,151.00949c-0.19246,3.40513 -5.21381,7.92218 -13.89614,7.44317c-9.95763,-0.54936 -17.08259,-6.48574 -16.89013,-9.89086c0.19246,-3.40513 7.38432,-5.72961 16.0635,-5.19186c8.67919,0.53774 14.91521,4.23443 14.72275,7.63956z" fill="#f2c07a" stroke="#0a0908" stroke-width="1.5" stroke-linecap="butt"/><path d="M255.80568,168.6076c0.35963,1.60301 0.9393,3.69479 -0.61563,5.07478c-2.37469,2.10755 -3.05345,-6.35782 -2.72397,-8.64872c0.11268,-0.78351 -1.88111,-8.95538 -0.60386,-10.11638c0.24161,-0.65815 2.61631,-0.99982 2.64398,0.21491c0.00353,0.15485 0.12165,1.10207 0.10456,1.24864c0.90009,2.27306 1.00737,11.39078 1.19492,12.22675z" fill="#969696" stroke="#434242" stroke-width="1" stroke-linecap="butt"/><path d="M245.98074,165.82157c-0.23018,1.00646 -0.87955,3.43669 -0.77077,4.38895c0.20858,1.82603 1.17469,5.58335 -0.74923,6.94374c-2.93824,2.07756 -2.663,-7.42698 -2.00959,-9.94087c0.22349,-0.85979 0.33518,-1.61593 0.51371,-2.56144c0.27607,-1.46203 -1.5347,-7.62528 0.04904,-8.77328c0.3535,-0.70553 3.07461,-0.81655 2.95645,0.5394c-0.01506,0.17284 0.00171,1.24111 -0.03558,1.40242c0.73594,2.63356 0.47632,6.11947 0.04598,8.00107z" fill="#969696" stroke="#434242" stroke-width="1" stroke-linecap="butt"/><path d="M252.85966,149.82441c-0.00666,0.73216 -2.75764,3.89934 -7.89402,3.85265c-5.13637,-0.0467 -10.71311,-3.28957 -10.70646,-4.02174c0.00666,-0.73216 -1.2042,-6.91822 3.88851,-7.38918c18.27451,-1.69001 14.71863,6.82613 14.71197,7.55828z" fill="#ffffff" stroke="#0a0908" stroke-width="1.5" stroke-linecap="butt"/><path d="M286.8835,82.30685c-0.01077,0.39672 0.46319,2.36504 0.8729,5.514c1.12371,8.63645 1.56832,24.79423 -9.49396,31.40661c-0.18924,0.11311 -3.72163,6.4096 -8.17736,7.10055c-3.07353,0.47661 -7.97221,5.36908 -13.23637,6.32544c-8.07075,1.46626 -16.48699,-0.97376 -16.48699,-0.97376c0,0 -10.33771,2.58282 -14.91954,2.72689c-8.11198,0.25509 -16.70836,-4.63368 -16.82957,-4.52094c-0.35507,0.33029 -2.08298,0.21938 -3.38834,-0.77404c-1.33276,-1.01424 -2.24304,-2.91328 -2.56997,-2.7455c-1.16101,0.59586 -6.0108,-2.05852 -9.31,-9.45491c-1.98228,-4.44401 -0.35399,-9.93486 -0.57854,-10.62178c-6.81124,-20.83876 -1.58303,-32.97503 7.98284,-44.05198c0.99538,-1.15263 1.67219,-7.25925 8.47929,-13.87587c8.09523,-7.86869 15.5936,-4.75125 15.5936,-4.75125c0,0 6.81299,-7.79593 19.17624,-7.68353c9.03283,0.08212 17.04396,3.9043 21.06096,9.44226c0.39679,0.54703 3.02483,0.14769 4.90172,0.86708c6.46057,2.47621 17.65029,9.29933 16.92305,36.07074z" fill="#0a0907" stroke="none" stroke-width="0" stroke-linecap="butt"/><path d="M278.51301,106.00995c0.70231,6.30547 0.92624,17.26332 0.72819,18.57128c-2.09527,13.83776 -13.13524,22.91527 -32.56729,23.31758c-21.02814,0.43535 -37.12617,-12.41269 -37.47439,-29.23199c-0.34821,-16.8193 4.18009,-37.5992 30.38103,-39.79436c34.77269,-2.91332 38.06152,24.69396 38.29753,26.81282z" fill="#ffffff" stroke="#000000" stroke-width="1.5" stroke-linecap="butt"/><path d="M287.02043,79.81907c-0.00609,0.40536 0.49786,2.41018 0.95109,5.62173c1.24301,8.80818 2.93446,22.11523 -8.19044,29.00496c-0.95641,0.59231 -0.75,1.71074 -1.48604,-0.36351c-0.80218,-2.26064 -2.45848,-5.38995 -3.38202,-8.28062c-1.30316,-4.07879 -1.7743,-7.68059 -1.7743,-7.68059c0,0 -4.29303,-2.24122 -6.09184,-3.52177c-1.90267,-1.35453 -5.6687,-6.52028 -5.6687,-6.52028c0,0 -10.43486,0.66204 -14.73841,0.40905c-3.35244,-0.19709 -9.15861,-1.16315 -9.15861,-1.16315c0,0 -4.59486,3.29442 -7.4021,4.60729c-3.08953,1.44486 -10.1605,3.06543 -10.1605,3.06543c0,0 -0.99641,6.2894 -2.59259,10.41883c-1.3465,3.48353 -3.18345,4.44912 -4.5667,8.71075c-1.09795,3.38263 -0.06637,6.51512 -0.75643,9.21583c-0.80449,3.14854 -3.26772,5.63183 -3.68677,6.03447c-0.35565,0.34171 -2.10722,0.24958 -3.44152,-0.74919c-1.36227,-1.01972 -2.30736,-2.94841 -2.63646,-2.77301c-1.16877,0.62287 -6.11341,-2.02919 -9.54494,-9.54404c-2.06181,-4.51522 -0.97493,-10.14246 -1.21069,-10.84138c-5.17027,-21.70875 0.47688,-33.17108 7.55569,-43.59577c0.99424,-1.18956 0.11828,-7.43128 6.93302,-14.27332c8.10429,-8.13675 17.71627,-6.5499 17.71627,-6.5499c0,0 6.80638,-8.04673 19.33065,-8.0832c9.15048,-0.02666 17.31147,3.77958 21.44752,9.38734c0.40856,0.55392 3.06568,0.11385 4.97554,0.82571c6.57404,2.45035 17.99106,9.28307 17.57928,36.63834z" fill="#0a0907" stroke="#000000" stroke-width="1" stroke-linecap="butt"/><path d="M246.84067,118.47172c-0.07673,7.59682 -6.45232,12.95187 -15.32826,12.7289c-8.20653,-0.20616 -14.44816,-5.52648 -14.23203,-13.12113c0.25892,-9.09876 6.62389,-13.40152 14.83328,-13.33434c8.20939,0.06718 14.80372,6.12973 14.72699,13.72657z" fill="#ffffff" stroke="#000000" stroke-width="1.5" stroke-linecap="butt"/><path d="M264.50089,104.58177c6.86489,0.05414 12.1074,4.2211 12.15673,12.84334c0.04117,7.19691 -5.27503,12.14686 -12.14009,12.22443c-7.42502,0.08388 -12.65709,-5.08 -12.58167,-12.27696c0.07543,-7.19696 5.70015,-12.84493 12.56504,-12.79079z" fill="#ffffff" stroke="#000000" stroke-width="1.5" stroke-linecap="butt"/><path d="M224.77897,116.6728c-0.02282,2.50985 -1.43345,4.53187 -3.15072,4.51625c-1.71727,-0.01561 -3.09092,-2.06292 -3.0681,-4.57279c0.02282,-2.50985 1.43345,-4.53187 3.15072,-4.51625c1.71727,0.01561 3.09092,2.06292 3.0681,4.57279z" fill="#000000" stroke="#000000" stroke-width="1.5" stroke-linecap="butt"/><path d="M258.73795,117.31286c-0.02282,2.50985 -1.32635,4.53284 -2.91154,4.51843c-1.58518,-0.01441 -2.85174,-2.06075 -2.82892,-4.57061c0.02282,-2.50985 1.32635,-4.53284 2.91154,-4.51843c1.58518,0.01441 2.85174,2.06074 2.82892,4.57061z" fill="#000000" stroke="#000000" stroke-width="1.5" stroke-linecap="butt"/><g stroke="#0a0908" stroke-linecap="butt"><path d="M263.23604,87.62994c0.01082,0.2366 -0.49637,2.68611 -0.28927,5.10822c0.23661,2.76719 2.40578,5.80885 0.28377,7.41187c-5.41783,4.09279 -19.64654,2.40356 -23.99628,2.43482c-4.00549,0.0288 -3.35609,-3.80499 -3.11394,-7.57832c0.21395,-3.33396 -0.17993,-6.61865 -0.2056,-7.18015c-0.05472,-1.19701 6.01701,-2.21132 13.56158,-2.26558c7.54457,-0.05426 13.70503,0.87215 13.75973,2.06912z" fill="#ffbc6f" stroke-width="1.5"/><path d="M237.94457,89.65094c-0.03114,-0.76952 0.69698,-0.7773 0.69698,-0.7773l0.25009,-0.00039c6.21665,0.44302 7.48259,11.19179 0.85539,11.31417c0,0 -0.00332,0.00005 -0.00942,-0.00012c-0.10137,0.0825 -0.24226,0.1397 -0.43809,0.14177c-0.72811,0.00775 -0.75927,-0.76179 -0.75927,-0.76179l-0.01109,-0.27358c-0.12145,-3.00046 -0.12342,-6.00134 -0.23523,-8.99623c-0.17154,-0.10107 -0.33496,-0.2907 -0.34936,-0.6465zM239.96113,98.63893c4.10689,-0.28248 3.37015,-6.83113 -0.20064,-8.04614c0.09102,2.67939 0.10571,5.36223 0.20064,8.04614z" fill="#0a0908" stroke-width="0.5"/><path d="M248.63815,89.33879c0.65179,-0.16411 0.81251,0.61256 0.81251,0.61256l0.09171,0.50753c0.0533,1.42215 0.10691,2.84426 0.1593,4.2664c-0.04826,1.36882 -0.02929,3.58463 -0.96598,4.54328c-1.14551,1.17226 -2.79383,0.52571 -3.46305,-1.01332c-0.93236,-2.14416 -0.46196,-5.93893 -0.5504,-8.29919c0,0 -0.02973,-0.79376 0.64093,-0.80236c0.67065,-0.0086 0.70042,0.78515 0.70042,0.78515c0.08021,2.14057 -0.38177,5.68653 0.40479,7.64203c1.13658,2.82565 1.86967,-2.20138 1.89066,-2.90434c-0.05346,-1.40012 -0.10551,-2.80026 -0.15799,-4.2004l-0.05398,-0.1965c0,0 -0.16068,-0.77667 0.49113,-0.94075z" fill="#0a0908" stroke-width="0.5"/><path d="M251.06688,98.88506c-0.70945,0.01068 -0.74028,-0.88277 -0.74028,-0.88277l-0.00546,-0.15883c-0.08999,-2.79801 -0.06148,-5.48414 0.42869,-8.18798c0,0 0.13812,-0.76123 0.72713,-0.66971c0.44309,-0.00545 0.62064,0.34248 0.69147,0.60311c0.53419,0.86954 0.88184,1.85559 1.28139,2.82032c0.30318,-1.06373 0.50108,-2.21012 0.77005,-3.27367c0,0 0.21346,-0.84335 0.89073,-0.54807c0.01524,0.00663 0.03,0.01353 0.04435,0.02073c0.56751,-0.07225 0.74104,0.67019 0.74104,0.67019l0.08975,0.3974c0.42241,2.72418 0.66226,5.69802 0.22662,8.3751c0,0 -0.14215,0.86943 -0.83789,0.66309c-0.69575,-0.20629 -0.55362,-1.07571 -0.55362,-1.07571c0.2432,-1.47983 -0.03466,-3.07326 -0.02167,-4.65771c-0.12613,0.45837 -0.26748,0.90662 -0.43523,1.33635l-0.23991,0.35593c-0.0488,0.10308 -0.12309,0.20368 -0.23207,0.29518c-0.16804,0.14113 -0.32148,0.17913 -0.45474,0.1618c-0.13336,-0.01534 -0.28088,-0.09024 -0.43202,-0.27049c-0.08441,-0.10065 -0.14271,-0.2017 -0.1812,-0.3004c-0.39356,-0.76474 -0.68372,-1.61597 -1.01741,-2.4229c-0.26125,1.87142 -0.13875,3.7491 -0.06654,5.68615l0.00547,0.15881c0,0 0.03085,0.89349 -0.6786,0.90419z" fill="#0a0908" stroke-width="0.5"/><path d="M261.81862,97.60129c0.04917,0.842 -0.54105,0.85714 -0.54105,0.85714l-0.2172,0.0031c-0.88833,0.1203 -3.3482,0.84373 -3.82267,-0.84868c-0.13539,-0.48298 0.22482,-0.94423 0.33625,-1.41689c0.20312,-0.86153 1.11612,-3.97121 1.89634,-5.16626c-0.68103,-0.01613 -1.35906,0.01441 -2.03985,0.03187c0,0 -0.5902,0.01517 -0.63939,-0.82682c-0.04917,-0.842 0.54105,-0.85717 0.54105,-0.85717c0.94605,-0.02432 1.88251,-0.0618 2.83228,0.01418l0.0537,0.04264l0.00348,-0.02637l0.57756,0.20521c0.26221,0.08456 0.47192,0.41094 0.495,0.80565c0.0169,0.28959 -0.07065,0.54766 -0.21785,0.7032l-0.36823,0.40054c-0.54109,1.25046 -1.01946,2.52889 -1.5328,3.83214c-0.1696,0.43057 -0.2998,1.3031 -0.59384,1.67757c0.11673,-0.06022 0.24539,-0.11519 0.32176,-0.12376c0.65532,-0.07352 1.31271,-0.03377 1.96859,-0.12378l0.30745,-0.01038c0,0 0.5902,-0.01517 0.63939,0.82682z" fill="#0a0908" stroke-width="0.5"/></g><path d="M276.42236,226.4813c-0.00961,1.0568 -4.14107,5.27169 -23.73893,5.52511c-24.24447,0.31351 -25.87823,-3.64355 -25.86863,-4.70034c0.00786,-0.86376 4.69071,-15.45735 8.64947,-19.59992c1.7775,-1.86002 14.48295,-2.05168 16.99055,-2.02889c1.91847,0.01744 12.77794,0.26562 14.54205,0.94077c2.95817,1.13212 9.43147,19.20182 9.42546,19.86326z" fill="#f2c07a" stroke-opacity="0.5098" stroke="#000000" stroke-width="1.5" stroke-linecap="butt"/><path d="M265.21534,142.05378c0,0 -7.40718,2.08878 -26.38655,1.58184c-11.21039,-0.29943 -10.8297,-1.80734 -10.8297,-1.80734" fill="#000000" stroke="#000000" stroke-width="1.5" stroke-linecap="round"/></g></g></svg>