<svg version="1.1" xmlns="http://www.w3.org/2000/svg" xmlns:xlink="http://www.w3.org/1999/xlink" width="109.67497" height="292.30637" viewBox="0,0,109.67497,292.30637"><g transform="translate(-184.62603,-34.61614)"><g stroke-miterlimit="10"><path d="M253.90469,150.65249c-0.40971,5.73925 -10.42748,9.74622 -18.5298,9.7196c-2.72524,-0.00896 -15.92763,-0.15479 -17.85575,-1.08051c-3.80433,-1.82647 -5.93705,-5.17222 -5.9245,-8.99072c0.0189,-5.75383 8.09078,-10.39176 16.19313,-10.36515c8.10233,0.02662 26.78558,1.35054 26.11695,10.71677z" fill="#ffd599" stroke="#0a0908" stroke-width="1.5" stroke-linecap="butt"/><g stroke="#0a0908" stroke-width="1.5" stroke-linecap="butt"><path d="M275.71689,219.95243c7.25302,-1.57437 16.95728,2.90446 17.83411,8.42904c0.87682,5.52456 -4.29208,11.27937 -11.54509,12.85374c-7.25302,1.57437 -13.84354,-1.62793 -14.72041,-7.15252c-0.87683,-5.52456 1.17835,-12.5559 8.43133,-14.13028z" fill="#ffffff"/><path d="M250.71592,147.63994c9.21394,-2 28.53357,36.74761 37.18271,58.79542c2.43913,6.21762 3.90774,12.75105 4.21073,14.65993c0.00268,0.01695 0.00536,0.03389 0.00801,0.05086c-2.00593,0.31614 -4.02389,0.3175 -5.97389,0.74076c-2.73336,0.59331 -5.48222,0.99474 -8.2044,1.58563c-2.75265,0.59749 -5.66843,0.91591 -8.31064,2.00306c-1.00211,0.5227 -1.23399,1.92436 -2.1145,2.61923c-1.26282,0.99655 -2.38377,1.98304 -3.54373,3.21772c-0.18911,-0.34498 -0.37509,-0.69825 -0.55815,-1.05956c-3.02795,-5.97657 -20.68925,-80.87802 -12.69614,-82.61302z" fill="#ffd599"/><path d="M277.29489,221.49706c7.30073,-2.48475 14.46616,-2.64664 14.66437,-1.39775c0.29585,1.86402 1.08768,3.61348 -2.50186,5.59428c-0.4137,0.22828 -6.32292,1.96928 -9.63204,3.19663c-4.75242,1.76267 -10.22021,4.51492 -12.2702,4.61829c-2.62224,0.1322 -3.44,-3.08408 -3.6029,-4.11039c-0.1807,-1.13847 6.68733,-5.63593 13.34265,-7.90105z" fill="#f2c07a"/></g><path d="M245.95758,245.82922c4.57925,-24.16324 22.95114,-23.44985 29.02099,-23.09142c2.19325,0.12951 2.97726,1.2427 3.10287,12.34717c0.34585,30.57081 5.08749,48.65074 4.53703,79.21854c-0.11537,6.4072 -14.04206,7.79685 -21.54165,7.35403c-7.4996,-0.44285 -12.42168,-0.38808 -12.30631,-6.79528c0.00147,-0.08135 0.20643,-2.3944 0.17906,-2.96144c-0.3834,-7.94636 -3.9988,-60.75909 -2.992,-66.07161z" fill="#382f25" stroke="#0a0908" stroke-width="1.5" stroke-linecap="butt"/><path d="M244.0765,313.43391c0.21398,6.21566 -9.13366,10.44944 -17.79337,10.7685c-8.6597,0.31906 -18.96541,-2.34844 -19.17938,-8.56408c-0.11762,-3.41681 0.86647,-64.44916 0.84465,-67.32347c-0.11964,-15.77165 0.5272,-22.65958 3.82551,-22.7811c7.0088,-0.25821 26.52708,-0.89774 32.12229,22.60415c1.31795,5.5358 0.1395,64.11106 0.1803,65.29602z" fill="#382f25" stroke="#0a0908" stroke-width="1.5" stroke-linecap="butt"/><path d="M286.10056,315.28557c0.27117,4.80588 0.31746,8.08577 -6.44954,8.33097c-16.6291,0.60256 -27.17102,-0.0604 -27.44222,-4.86626c-0.1429,-2.53247 5.82682,-6.76441 9.87096,-8.89253c3.63046,-1.91043 9.48699,-4.56262 12.68559,-4.73494c0.21854,-0.01177 -0.01907,0.30162 0.19369,0.30329c6.36932,0.05002 10.87909,5.20895 11.1415,9.85949z" fill="#686664" stroke="#0a0908" stroke-width="1.5" stroke-linecap="butt"/><path d="M237.3934,326.0533c-18.61776,0.64732 -30.05423,-1.82716 -30.35853,-7.00823c-0.16033,-2.73019 8.32692,-7.8136 12.8544,-10.10728c10.42095,-5.27939 24.04834,-2.25237 24.72036,9.19081c0,0 0.36002,7.66131 -7.21625,7.92471z" fill="#686664" stroke="#0a0908" stroke-width="1.5" stroke-linecap="butt"/><path d="M277.45725,230.97211c0.01,11.28651 -13.4842,24.12629 -31.91644,24.13914c-18.43225,0.01284 -37.33962,-15.79503 -37.53165,-29.84202c-0.15427,-11.2849 17.62322,-14.69704 36.05546,-14.70988c18.43225,-0.01284 33.38263,9.12627 33.39262,20.41278z" fill="#39322b" stroke="#0a0908" stroke-width="1.5" stroke-linecap="butt"/><path d="M276.99963,242.42001c0.00839,9.4746 -15.07867,17.16578 -33.69792,17.17876c-18.61922,0.01296 -33.71989,-7.65719 -33.72828,-17.1318c-0.00364,-4.12205 -0.69819,-15.98873 4.06047,-18.95023c6.17921,-3.84556 19.11872,1.77877 29.63745,1.77143c13.40553,-0.00934 25.86153,-8.26216 31.29963,-2.50006c2.11498,2.24099 2.42631,16.97881 2.42865,19.63186z" fill="#382f25" stroke="none" stroke-width="0" stroke-linecap="butt"/><path d="M251.76872,259.19851l-10.31278,1.19031" fill="none" stroke="#0a0908" stroke-width="1.5" stroke-linecap="round"/><path d="M277.52235,229.47364c-0.08004,5.87107 -14.95642,11.04351 -34.89771,10.73108c-19.94128,-0.31242 -36.70414,-4.05633 -36.56171,-14.50378c0.04934,-3.61969 0.06267,-35.14779 8.11808,-59.16254c2.12325,-6.32982 3.64021,-11.75597 6.60694,-15.72551c4.034,-5.39756 10.8603,-8.06958 17.83831,-8.57135c4.396,-0.31608 13.64977,3.73984 18.38252,9.66378c8.73609,10.93487 7.97797,21.40567 11.7507,33.98851c1.3991,4.66624 8.79411,40.88755 8.76461,43.05144z" fill="#ffd599" stroke="#0a0908" stroke-width="1.5" stroke-linecap="butt"/><path d="M279.22579,235.03328c-0.02198,1.02318 -0.73887,1.38457 -1.38119,1.76947c-11.08815,6.64484 -40.56471,6.98832 -56.17829,4.25022c-8.42199,-1.47692 -13.23905,-3.53395 -14.93021,-5.39459c-1.50668,-1.65768 -0.02697,-4.06404 -0.02173,-4.30748c0.01354,-0.62937 7.30044,5.27259 45.07475,4.47174c15.8521,-0.33607 26.31845,-5.6465 26.60334,-5.76651c1.46875,-0.61876 0.85533,3.95393 0.83335,4.97709z" fill="#f2c07a" stroke="#0a0908" stroke-width="1.5" stroke-linecap="butt"/><g stroke="#0a0908" stroke-width="1.5" stroke-linecap="butt"><path d="M212.86391,238.99109c-0.54257,5.71654 -6.92877,9.38867 -14.264,8.20191c-7.33522,-1.18672 -12.84178,-6.78296 -12.2992,-12.49948c0.54257,-5.71654 9.96019,-10.88117 17.29543,-9.69445c7.33522,1.18672 9.81033,8.27544 9.26778,13.99198z" fill="#ffffff"/><path d="M216.49999,234.83576c-0.16096,0.38126 -0.32536,0.75449 -0.49335,1.11935c-1.23231,-1.19766 -2.41073,-2.14307 -3.73137,-3.09048c-0.92083,-0.66058 -1.23677,-2.08416 -2.26858,-2.5611c-2.70311,-0.95896 -5.63296,-1.11358 -8.41684,-1.564c-2.75305,-0.44538 -5.5213,-0.69497 -8.28567,-1.14222c-1.97205,-0.31907 -3.98662,-0.20145 -6.00812,-0.40739c0.00162,-0.01753 0.00323,-0.03508 0.00491,-0.05263c0.18748,-1.9752 1.26004,-8.76108 3.32043,-15.28034c7.30617,-23.11747 24.04594,-63.13736 33.36432,-61.62976c8.08372,1.30784 -4.82306,78.30173 -7.48577,84.60855z" fill="#ffd599"/><path d="M215.90925,233.99102c-0.10079,1.062 -0.72343,4.40812 -3.34904,4.42713c-2.05264,0.0149 -7.67669,-2.48494 -12.52704,-4.01217c-3.3773,-1.06342 -9.3811,-2.50025 -9.80783,-2.70994c-3.7026,-1.81949 -3.01755,-3.66006 -2.83445,-5.58882c0.12267,-1.29226 7.28536,-1.5487 14.72306,0.56875c6.78015,1.93024 13.90715,6.13703 13.79534,7.31506z" fill="#f2c07a"/></g><path d="M232.37277,161.11045c-0.0244,7.42902 -4.92581,13.8291 -7.72605,13.81989c-2.80023,-0.0092 -4.552,-6.43112 -4.52759,-13.86015c0.01346,-4.09748 0.96342,-7.37028 2.06071,-9.83391c0.89219,-2.0031 3.91107,-3.59805 5.16685,-3.59392c2.80023,0.0092 5.05047,6.03907 5.02607,13.46808z" fill="#ffd599" stroke="none" stroke-width="0" stroke-linecap="butt"/><path d="M265.72743,163.4831c2.72011,4.89219 4.50588,11.6784 3.07715,12.56423c-1.42874,0.88586 -5.16149,-3.41302 -7.8816,-8.30524c-2.72012,-4.89219 -5.74112,-14.04469 -4.31238,-14.93053c1.42874,-0.88586 6.39671,5.77932 9.11682,10.67152z" fill="#ffd599" stroke="none" stroke-width="0" stroke-linecap="butt"/><path d="M256.38213,150.43431c-0.17269,3.40619 -5.16773,7.95231 -13.85269,7.52372c-9.96066,-0.49154 -17.11995,-6.38646 -16.94726,-9.79264c0.17269,-3.40619 7.35093,-5.77238 16.03309,-5.28503c8.68216,0.48735 14.93954,4.14777 14.76685,7.55396z" fill="#f2c07a" stroke="#0a0908" stroke-width="1.5" stroke-linecap="butt"/><path d="M252.38372,167.97372c0.36893,1.60089 0.96073,3.68928 -0.58616,5.07827c-2.36242,2.1213 -3.0903,-6.33998 -2.77413,-8.63276c0.10813,-0.78415 -1.93307,-8.94431 -0.66258,-10.11271c0.23779,-0.65954 2.61046,-1.01499 2.64518,0.19956c0.00442,0.15483 0.12804,1.10134 0.11181,1.24801c0.91327,2.26779 1.07348,11.38473 1.26587,12.2196z" fill="#969696" stroke="#434242" stroke-width="1" stroke-linecap="butt"/><path d="M242.69315,165.69529c-0.22433,1.00778 -0.85958,3.44174 -0.74527,4.39335c0.21917,1.82479 1.20708,5.57644 -0.7089,6.94797c-2.92613,2.09459 -2.70607,-7.41139 -2.06726,-9.92904c0.21849,-0.86107 0.32579,-1.61785 0.49883,-2.56438c0.26758,-1.4636 -1.57894,-7.61623 -0.00189,-8.77342c0.3494,-0.70757 3.06982,-0.83438 2.95953,0.52223c-0.01406,0.17292 0.00892,1.24108 -0.02744,1.4026c0.75122,2.62925 0.51183,6.1166 0.09243,8.00067z" fill="#969696" stroke="#434242" stroke-width="1" stroke-linecap="butt"/><path d="M250.35678,149.28419c-0.00241,0.73219 -2.73495,3.91529 -7.87152,3.89841c-5.13656,-0.01688 -10.73202,-3.22733 -10.72962,-3.95953c0.00241,-0.73219 -1.24434,-6.91112 3.84554,-7.41163c18.2644,-1.79606 14.758,6.74058 14.75559,7.47275z" fill="#ffffff" stroke="#0a0908" stroke-width="1.5" stroke-linecap="butt"/><path d="M283.9881,81.57026c-0.00847,0.39678 0.47691,2.36231 0.9049,5.50884c1.17382,8.62978 1.71223,24.78471 -9.31149,31.46119c-0.18857,0.1142 -3.68436,6.43109 -8.136,7.1479c-3.07071,0.49444 -7.9409,5.41527 -13.19942,6.40217c-8.0621,1.51309 -16.49237,-0.87803 -16.49237,-0.87803c0,0 -10.32254,2.64279 -14.90346,2.81346c-8.11036,0.30217 -16.73498,-4.53661 -16.85553,-4.42317c-0.35315,0.33234 -2.08167,0.23147 -3.39278,-0.75435c-1.33862,-1.00648 -2.25992,-2.90021 -2.58586,-2.73054c-1.15753,0.60258 -6.02265,-2.0236 -9.36473,-9.40071c-2.00804,-4.43243 -0.41166,-9.93264 -0.64019,-10.61825c-6.93209,-20.79887 -1.77442,-32.96528 7.72697,-44.09758c0.98867,-1.15839 1.63002,-7.26883 8.3986,-13.92486c8.04942,-7.91556 15.56576,-4.84169 15.56576,-4.84169c0,0 6.76762,-7.83535 19.13131,-7.79472c9.03315,0.02968 17.06633,3.8053 21.11542,9.31984c0.39996,0.54472 3.02563,0.13014 4.90667,0.83861c6.47484,2.43867 17.70397,9.19671 17.13216,35.97189z" fill="#0a0907" stroke="none" stroke-width="0" stroke-linecap="butt"/><path d="M275.75536,105.32156c0.7389,6.30129 1.02644,17.25766 0.83598,18.56674c-2.0149,13.84969 -13.002,22.99114 -32.43138,23.50624c-21.02527,0.55742 -37.1976,-12.19696 -37.64346,-29.01396c-0.44584,-16.817 3.96175,-37.62283 30.14951,-39.97006c34.75519,-3.11514 38.20423,24.47259 38.45254,26.59005z" fill="#ffffff" stroke="#000000" stroke-width="1.5" stroke-linecap="butt"/><path d="M284.74208,79.61156c0.00139,0.3962 0.55468,2.34621 1.07879,5.47629c1.43739,8.58469 3.41819,21.55745 -7.83398,28.48826c-0.96735,0.59584 -0.73513,1.68503 -1.52719,-0.32868c-0.86322,-2.19466 -2.61662,-5.2229 -3.61585,-8.03102c-1.40997,-3.96232 -1.95972,-7.47341 -1.95972,-7.47341c0,0 -4.43431,-2.11338 -6.29871,-3.33257c-1.97207,-1.28962 -5.92221,-6.27012 -5.92221,-6.27012c0,0 -10.66333,0.83313 -15.071,0.66274c-3.43355,-0.13276 -9.39194,-0.97312 -9.39194,-0.97312c0,0 -4.63897,3.30114 -7.48633,4.6341c-3.1337,1.46698 -10.33743,3.1767 -10.33743,3.1767c0,0 -0.90111,6.16345 -2.45649,10.22698c-1.31206,3.42794 -3.17325,4.40425 -4.50829,8.59317c-1.05967,3.32492 0.05464,6.36742 -0.60056,9.01872c-0.76385,3.09094 -3.23724,5.56144 -3.6584,5.96235c-0.35744,0.34024 -2.15116,0.28148 -3.53506,-0.67065c-1.4129,-0.9721 -2.41611,-2.83985 -2.7495,-2.66258c-1.18404,0.6295 -6.29273,-1.87371 -9.94483,-9.15559c-2.19434,-4.37522 -1.18821,-9.89327 -1.44257,-10.57201c-5.69796,-21.12037 -0.13603,-32.42151 6.91014,-42.73429c0.99482,-1.18012 -0.01876,-7.26356 6.82462,-14.07085c8.13835,-8.09542 18.00211,-6.71638 18.00211,-6.71638c0,0 6.81218,-7.9843 19.62492,-8.24346c9.36125,-0.18936 17.78224,3.38427 22.11926,8.79005c0.4284,0.53397 3.13861,0.05654 5.10593,0.71804c6.7719,2.27702 18.58103,8.74985 18.67429,35.48731z" fill="#0a0907" stroke="#000000" stroke-width="1" stroke-linecap="butt"/><path d="M244.1521,117.30873c-0.02708,8.2404 -6.21784,14.08494 -14.88482,13.8934c-8.01334,-0.1771 -14.14053,-5.91246 -13.97734,-14.15129c0.1955,-9.87052 6.38252,-14.57361 14.39777,-14.54728c8.01525,0.02634 14.49147,6.56477 14.46439,14.80517z" fill="#ffffff" stroke="#000000" stroke-width="1.5" stroke-linecap="butt"/><path d="M262.1298,101.17144c6.55402,0.02154 11.58548,4.57839 11.68765,14.06723c0.08528,7.92025 -4.95828,13.39734 -11.51163,13.52075c-7.08788,0.13346 -12.11575,-5.52059 -12.08973,-13.44155c0.02603,-7.92096 5.35968,-14.16795 11.91369,-14.14641z" fill="#ffffff" stroke="#000000" stroke-width="1.5" stroke-linecap="butt"/><path d="M242.05556,117.90042c-0.00672,2.04586 -1.14695,3.70066 -2.54675,3.69606c-1.39981,-0.0046 -2.52914,-1.66684 -2.5224,-3.71271c0.00672,-2.04586 1.14695,-3.70066 2.54675,-3.69606c1.39981,0.0046 2.52914,1.66684 2.5224,3.71271z" fill="#000000" stroke="#000000" stroke-width="1.5" stroke-linecap="butt"/><path d="M256.36658,117.37051c-0.00684,2.08132 -1.078,3.76508 -2.39254,3.76076c-1.31453,-0.00432 -2.37462,-1.69507 -2.36778,-3.7764c0.00684,-2.08132 1.078,-3.76508 2.39254,-3.76076c1.31453,0.00432 2.37462,1.69506 2.36778,3.7764z" fill="#000000" stroke="#000000" stroke-width="1.5" stroke-linecap="butt"/><g stroke="#0a0908" stroke-linecap="butt"><path d="M260.23319,86.79606c0.01216,0.24322 -0.48121,2.76512 -0.26043,5.25444c0.25222,2.844 2.43852,5.95837 0.32559,7.61974c-5.39466,4.24175 -19.63268,2.59199 -23.98218,2.6508c-4.00527,0.05418 -3.37751,-3.89201 -3.15666,-7.77353c0.19513,-3.42955 -0.21729,-6.80472 -0.24612,-7.38194c-0.06147,-1.23052 6.00444,-2.31075 13.5486,-2.41279c7.54415,-0.10206 13.70974,0.81278 13.77121,2.04327z" fill="#ffbc6f" stroke-width="1.5"/><path d="M234.9535,89.0293c-0.03548,-0.79108 0.69258,-0.80355 0.69258,-0.80355l0.25009,-0.00193c6.21905,0.41744 7.54563,11.46241 0.91922,11.62889c0,0 -0.00332,0.00008 -0.00942,-0.00007c-0.1009,0.08545 -0.24146,0.14513 -0.43729,0.14846c-0.72805,0.01244 -0.76355,-0.77868 -0.76355,-0.77868l-0.01263,-0.28125c-0.13838,-3.08456 -0.15728,-6.1703 -0.286,-9.2492c-0.1721,-0.10288 -0.3366,-0.29687 -0.35301,-0.66264zM237.02076,98.2591c4.10523,-0.31565 3.33155,-7.04498 -0.24605,-8.27246c0.10614,2.7546 0.13596,5.51323 0.24605,8.27246z" fill="#0a0908" stroke-width="0.5"/><path d="M245.64516,88.64274c0.65086,-0.17275 0.81596,0.6249 0.81596,0.6249l0.09456,0.52132c0.06133,1.46204 0.12296,2.92404 0.18338,4.38607c-0.04054,1.40783 -0.00906,3.68618 -0.94033,4.67768c-1.13887,1.21244 -2.79082,0.55771 -3.46872,-1.02074c-0.94444,-2.19908 -0.49546,-6.10404 -0.59723,-8.5305c0,0 -0.03422,-0.81602 0.6364,-0.82897c0.67059,-0.01295 0.70484,0.80306 0.70484,0.80306c0.09229,2.20061 -0.34967,5.84968 0.44791,7.85566c1.15251,2.89859 1.85722,-2.27509 1.87424,-2.99806c-0.06136,-1.43939 -0.12131,-2.8788 -0.18169,-4.31822l-0.05509,-0.20172c0,0 -0.16506,-0.79766 0.48581,-0.97037z" fill="#0a0908" stroke-width="0.5"/><path d="M248.12772,98.44408c-0.70938,0.01533 -0.74525,-0.9032 -0.74525,-0.9032l-0.00636,-0.16329c-0.10577,-2.87659 -0.09243,-5.63886 0.38248,-8.42216c0,0 0.13383,-0.78361 0.72334,-0.69311c0.44305,-0.00833 0.62257,0.34836 0.69487,0.61593c0.53909,0.89085 0.8923,1.90265 1.29728,2.89222c0.29717,-1.09567 0.48859,-2.27569 0.75157,-3.37097c0,0 0.2087,-0.8685 0.88762,-0.56903c0.01529,0.00672 0.03007,0.01372 0.04447,0.02104c0.56709,-0.07777 0.74481,0.6846 0.74481,0.6846l0.09198,0.40809c0.43777,2.79863 0.69441,5.8551 0.27388,8.61056c0,0 -0.13725,0.89489 -0.83414,0.68698c-0.6969,-0.20786 -0.55968,-1.10274 -0.55968,-1.10274c0.23485,-1.52316 -0.052,-3.15996 -0.04795,-4.78929c-0.12354,0.4721 -0.26236,0.93389 -0.42768,1.37681l-0.2379,0.36746c-0.04821,0.10629 -0.12194,0.21019 -0.2304,0.30496c-0.16724,0.14615 -0.32046,0.18616 -0.45382,0.16917c-0.13344,-0.01495 -0.28138,-0.09107 -0.43354,-0.27548c-0.08498,-0.10298 -0.14385,-0.20653 -0.18289,-0.30778c-0.39787,-0.78395 -0.69283,-1.65747 -1.03107,-2.48518c-0.25068,1.92595 -0.11759,3.85597 -0.03445,5.84736l0.00637,0.16327c0,0 0.03589,0.91857 -0.67348,0.93393z" fill="#0a0908" stroke-width="0.5"/><path d="M258.87204,97.0581c0.05392,0.86551 -0.5362,0.8847 -0.5362,0.8847l-0.21718,0.00452c-0.88763,0.12915 -3.34339,0.88812 -3.8274,-0.84925c-0.13812,-0.49581 0.21949,-0.97231 0.32825,-1.45902c0.19826,-0.88713 1.09369,-4.09036 1.86717,-5.32398c-0.68111,-0.01241 -1.35895,0.02315 -2.03964,0.04528c0,0 -0.59011,0.01922 -0.64404,-0.84629c-0.05392,-0.86551 0.5362,-0.88473 0.5362,-0.88473c0.9459,-0.03081 1.88213,-0.07508 2.83233,-0.00278l0.05394,0.04352l0.00334,-0.02714l0.57871,0.20747c0.26269,0.08534 0.47424,0.41966 0.49954,0.82541c0.01854,0.29768 -0.06756,0.56358 -0.21388,0.72442l-0.36597,0.41412c-0.53402,1.28914 -1.00517,2.60665 -1.51116,3.94991c-0.16717,0.44379 -0.29244,1.34179 -0.58436,1.72865c0.11639,-0.06263 0.24474,-0.11996 0.32105,-0.12923c0.6549,-0.07962 1.3125,-0.04277 1.96786,-0.13934l0.30739,-0.01255c0,0 0.59011,-0.01922 0.64404,0.84629z" fill="#0a0908" stroke-width="0.5"/></g><path d="M273.16796,226.16147c-0.00347,1.05684 -4.1104,5.29564 -23.70646,5.66282c-24.24224,0.45424 -25.89895,-3.49327 -25.89548,-4.55009c0.00284,-0.86379 4.6009,-15.48432 8.53554,-19.64979c1.76667,-1.8703 14.4708,-2.13573 16.97849,-2.12749c1.91853,0.00631 12.77927,0.19144 14.54727,0.85633c2.96469,1.11493 9.54278,19.14674 9.54061,19.80821z" fill="#f2c07a" stroke-opacity="0.5098" stroke="#000000" stroke-width="1.5" stroke-linecap="butt"/><path d="M254.52588,141.76122c0,0 -3.6605,2.57479 -20.58739,2.33551c-7.68826,-0.10868 -7.98287,-3.22523 -7.98287,-3.22523l34.03222,0.44486" fill="#000000" stroke="#000000" stroke-width="1.5" stroke-linecap="round"/><path d="M213.98774,111.96527c-0.89398,7.69406 -5.36634,5.35833 -5.8727,1.78416c-0.35709,-2.52055 4.07801,-6.34837 4.45748,-6.34837c1.0821,0 1.54283,3.46595 1.41522,4.56421z" fill-opacity="0.4" fill="#5cb3ff" stroke="none" stroke-width="0.5" stroke-linecap="butt"/><path d="M220.36838,101.18663c-0.89398,7.69406 -5.36634,5.35832 -5.8727,1.78416c-0.35709,-2.52054 4.07801,-6.34836 4.45748,-6.34836c1.0821,0 1.54283,3.46594 1.41522,4.5642z" fill-opacity="0.4" fill="#5cb3ff" stroke="none" stroke-width="0.5" stroke-linecap="butt"/></g></g></svg>