<svg version="1.1" xmlns="http://www.w3.org/2000/svg" xmlns:xlink="http://www.w3.org/1999/xlink" width="117.90509" height="294.75192" viewBox="0,0,117.90509,294.75192"><g transform="translate(-178.56373,-32.88215)"><g stroke-miterlimit="10"><path d="M254.56764,149.90979c-0.37687,5.7415 -10.37155,9.80572 -18.47389,9.82546c-2.72525,0.00664 -15.92825,-0.06366 -17.86164,-0.97833c-3.81472,-1.80468 -5.96654,-5.13817 -5.97584,-8.95668c-0.01402,-5.75385 8.03119,-10.43788 16.13356,-10.45762c8.10235,-0.01974 26.79287,1.19727 26.17784,10.56717z" fill="#ffd599" stroke="#0a0908" stroke-width="1.5" stroke-linecap="butt"/><g stroke="#0a0908" stroke-width="1.5" stroke-linecap="butt"><path d="M277.69014,219.06818c7.21371,-1.74565 17.02129,2.50215 18.02868,8.0044c1.00739,5.50225 -4.02382,11.37784 -11.23751,13.12349c-7.21371,1.74565 -13.87821,-1.29971 -14.88562,-6.80198c-1.0074,-5.50225 0.88073,-12.58027 8.09441,-14.32594z" fill="#ffffff"/><path d="M250.98404,147.36789c9.164,-2.21759 29.39564,36.06172 38.56439,57.89857c2.58566,6.15813 4.20856,12.65495 4.55665,14.55612c0.00309,0.01688 0.00615,0.03377 0.00921,0.05066c-1.99788,0.36355 -4.01526,0.41268 -5.95468,0.882c-2.71854,0.65785 -5.45713,1.12426 -8.16456,1.77944c-2.73774,0.6625 -5.64515,1.04988 -8.26089,2.19927c-0.98945,0.54629 -1.18808,1.95306 -2.0519,2.66857c-1.23887,1.02617 -2.33615,2.03891 -3.46654,3.30071c-0.19723,-0.3404 -0.39151,-0.68916 -0.58307,-1.04604c-3.1686,-5.90321 -22.59841,-80.36549 -14.64862,-82.28925z" fill="#ffd599"/><path d="M279.30428,220.57501c7.23985,-2.65691 14.39943,-2.98843 14.62716,-1.74457c0.33991,1.85648 1.17293,3.5867 -2.3687,5.65195c-0.40818,0.23802 -6.27451,2.11843 -9.55365,3.42379c-4.70934,1.87469 -10.11045,4.75565 -12.15741,4.90752c-2.61837,0.19425 -3.51206,-3.00177 -3.69921,-4.02393c-0.20761,-1.13387 6.55202,-5.79269 13.15183,-8.21473z" fill="#f2c07a"/></g><path d="M247.19348,246.47163c4.44092,-24.18905 22.8166,-23.58078 28.8884,-23.25708c2.19395,0.11696 2.98432,1.22565 3.17346,12.32922c0.52075,30.56833 5.36575,48.62083 4.9902,79.19128c-0.07871,6.40775 -13.99722,7.87707 -21.49922,7.47716c-7.50201,-0.39993 -12.4237,-0.317 -12.34499,-6.72476c0.001,-0.08136 0.19272,-2.39554 0.16211,-2.96241c-0.42886,-7.94404 -4.34636,-60.73522 -3.36997,-66.05341z" fill="#382f25" stroke="#0a0908" stroke-width="1.5" stroke-linecap="butt"/><path d="M245.69922,314.08598c0.24954,6.21434 -9.07372,10.50153 -17.73146,10.87012c-8.65773,0.3686 -18.97853,-2.23989 -19.22807,-8.45421c-0.13716,-3.41608 0.49771,-64.45307 0.45945,-67.3272c-0.20987,-15.77071 0.39754,-22.66223 3.69511,-22.80261c7.00721,-0.29831 26.52151,-1.0495 32.25109,22.42c1.3496,5.52817 0.5063,64.10922 0.55388,65.29392z" fill="#382f25" stroke="#0a0908" stroke-width="1.5" stroke-linecap="butt"/><path d="M287.73319,315.69717c0.29866,4.80425 0.36371,8.08383 -6.40177,8.36774c-16.62538,0.69769 -27.17092,0.09506 -27.46961,-4.70917c-0.15739,-2.53161 5.78802,-6.79764 9.81992,-8.94886c3.61947,-1.93117 9.46073,-4.61682 12.6583,-4.80744c0.21847,-0.01302 -0.01734,0.30172 0.19542,0.30217c6.3695,0.01358 10.90872,5.14662 11.19773,9.79559z" fill="#686664" stroke="#0a0908" stroke-width="1.5" stroke-linecap="butt"/><path d="M239.08843,326.74339c-18.61375,0.75383 -30.06419,-1.65518 -30.39813,-6.83442c-0.17595,-2.72923 8.28208,-7.86111 12.79636,-10.18066c10.39057,-5.33893 24.03506,-2.38992 24.77254,9.04922c0,0 0.40384,7.65912 -7.17079,7.96587z" fill="#686664" stroke="#0a0908" stroke-width="1.5" stroke-linecap="butt"/><path d="M278.60763,231.43454c0.07458,11.28627 -13.34594,24.20305 -31.77781,24.32135c-18.43188,0.1183 -37.42938,-15.58114 -37.70177,-29.6268c-0.21884,-11.28383 17.53885,-14.79763 35.97071,-14.91593c18.43188,-0.1183 33.4343,8.93513 33.50886,20.2214z" fill="#39322b" stroke="#0a0908" stroke-width="1.5" stroke-linecap="butt"/><path d="M278.21552,242.88487c0.0626,9.4744 -14.98021,17.25177 -33.59908,17.37128c-18.61884,0.11949 -33.76315,-7.46414 -33.82574,-16.93855c-0.02722,-4.12196 -0.78965,-15.98448 3.95198,-18.97315c6.1571,-3.88085 19.12859,1.66935 29.6471,1.60184c13.40525,-0.08604 25.81384,-8.40999 31.28481,-2.67909c2.12777,2.22885 2.52341,16.96465 2.54093,19.61764z" fill="#382f25" stroke="none" stroke-width="0" stroke-linecap="butt"/><path d="M253.08101,259.80745l-10.30581,1.2493" fill="none" stroke="#0a0908" stroke-width="1.5" stroke-linecap="round"/><path d="M278.66416,229.93572c-0.04645,5.87144 -14.893,11.1289 -34.83574,10.93057c-19.94274,-0.19832 -36.72675,-3.84626 -36.6441,-14.29436c0.02863,-3.61992 -0.13843,-35.14757 7.77946,-59.20802c2.087,-6.34186 3.57289,-11.7766 6.51686,-15.76305c4.00305,-5.42055 10.81395,-8.13159 17.78898,-8.67327c4.39412,-0.34123 13.67094,3.66169 18.43751,9.55845c8.79851,10.88471 8.1003,21.35968 11.94496,33.92073c1.42577,4.65816 9.0279,40.83656 9.01078,43.00059z" fill="#ffd599" stroke="#0a0908" stroke-width="1.5" stroke-linecap="butt"/><path d="M280.39938,235.48552c-0.01613,1.02328 -0.73094,1.38877 -1.37105,1.77735c-11.04995,6.70817 -40.52406,7.22029 -56.15305,4.57157c-8.4303,-1.42871 -13.25906,-3.45815 -14.96083,-5.30908c-1.51614,-1.64903 -0.05022,-4.06382 -0.04638,-4.30728c0.00994,-0.62943 7.33049,5.23073 45.0996,4.21377c15.84992,-0.42676 26.28572,-5.79699 26.56991,-5.91862c1.46519,-0.62715 0.87794,3.94897 0.86181,4.97224z" fill="#f2c07a" stroke="#0a0908" stroke-width="1.5" stroke-linecap="butt"/><g stroke="#0a0908" stroke-width="1.5" stroke-linecap="butt"><path d="M205.42488,237.02915c-1.15937,5.62397 -7.90618,8.58181 -15.06941,6.60651c-7.16325,-1.97529 -12.03036,-8.13572 -10.87098,-13.75968c1.15937,-5.62397 11.08157,-9.73673 18.24483,-7.76145c7.16325,1.97529 8.85494,9.29063 7.69558,14.9146z" fill="#ffffff"/><path d="M209.49017,233.29268c-0.20136,0.36155 -0.40527,0.71474 -0.61184,1.05923c-1.09515,-1.32425 -2.16407,-2.39189 -3.37417,-3.47694c-0.84375,-0.75655 -1.00343,-2.206 -1.97745,-2.79201c-2.58315,-1.24648 -5.47896,-1.71796 -8.19756,-2.46764c-2.6885,-0.74134 -5.41336,-1.2897 -8.11292,-2.03412c-1.92581,-0.53106 -3.94125,-0.63265 -5.92849,-1.05661c0.00351,-0.01725 0.00702,-0.03452 0.01058,-0.05178c0.40059,-1.94322 2.20281,-8.57274 4.9581,-14.8301c9.77032,-22.18871 30.75177,-60.15697 39.85168,-57.64762c7.89419,2.17686 -13.28696,77.31675 -16.61798,83.29758z" fill="#ffd599"/><path d="M208.99455,232.38886c-0.21537,1.0448 -1.19724,4.30366 -3.80944,4.03779c-2.04215,-0.20782 -7.3619,-3.30287 -12.01799,-5.34716c-3.24204,-1.42345 -9.05459,-3.50295 -9.45606,-3.75769c-3.48343,-2.21033 -2.60278,-3.96575 -2.21159,-5.86327c0.26209,-1.27134 7.41035,-0.74942 14.57452,2.16221c6.53081,2.65423 13.15951,7.60915 12.9206,8.76811z" fill="#f2c07a"/></g><path d="M233.12418,161.83197c0.0181,7.42904 -4.8466,13.85705 -7.64685,13.86387c-2.80024,0.00682 -4.58872,-6.40497 -4.60682,-13.83402c-0.00998,-4.09749 0.92123,-7.37568 2.00441,-9.84554c0.88072,-2.00817 3.89042,-3.62036 5.1462,-3.62342c2.80024,-0.00682 5.08494,6.01007 5.10304,13.4391z" fill="#ffd599" stroke="none" stroke-width="0" stroke-linecap="butt"/><path d="M266.49187,164.01375c2.74806,4.87655 4.57263,11.65243 3.14899,12.54642c-1.42365,0.89402 -5.18094,-3.38344 -7.92898,-8.26001c-2.74807,-4.87655 -5.82138,-14.01161 -4.39773,-14.90561c1.42365,-0.89402 6.42967,5.74263 9.17773,10.61919z" fill="#ffd599" stroke="none" stroke-width="0" stroke-linecap="butt"/><path d="M257.07207,151.01864c-0.1532,3.40712 -5.12215,7.98175 -13.80942,7.60285c-9.9633,-0.43455 -17.15621,-6.28841 -17.00301,-9.69552c0.1532,-3.40712 7.31779,-5.81434 16.00259,-5.37667c8.68481,0.43767 14.96303,4.06223 14.80983,7.46935z" fill="#f2c07a" stroke="#0a0908" stroke-width="1.5" stroke-linecap="butt"/><path d="M253.59424,168.16048c0.37808,1.59876 0.98182,3.68372 -0.5571,5.08154c-2.35024,2.13478 -3.12653,-6.3222 -2.82348,-8.61675c0.10364,-0.78476 -1.98421,-8.9331 -0.72042,-10.10875c0.23401,-0.66089 2.60461,-1.02991 2.64628,0.18442c0.00531,0.1548 0.13434,1.10059 0.11895,1.24735c0.92623,2.26253 1.1386,11.37841 1.33577,12.21216z" fill="#969696" stroke="#434242" stroke-width="1" stroke-linecap="butt"/><path d="M244.17088,166.35768c-0.21856,1.00905 -0.83988,3.4466 -0.72013,4.39754c0.22961,1.8235 1.23897,5.56944 -0.66914,6.95191c-2.9141,2.11129 -2.74843,-7.39579 -2.12404,-9.91705c0.21356,-0.86231 0.31653,-1.61969 0.48415,-2.56719c0.2592,-1.46511 -1.62249,-7.60708 -0.05209,-8.77326c0.34534,-0.70956 3.06499,-0.85193 2.96247,0.50529c-0.01307,0.173 0.01602,1.24101 -0.01941,1.40274c0.76625,2.6249 0.54682,6.11357 0.1382,8.00001z" fill="#969696" stroke="#434242" stroke-width="1" stroke-linecap="butt"/><path d="M251.04024,149.90301c0.00178,0.73219 -2.71251,3.93087 -7.84909,3.94338c-5.13657,0.01251 -10.75031,-3.16587 -10.7521,-3.89807c-0.00178,-0.73219 -1.28386,-6.90388 3.80308,-7.43351c18.25382,-1.90053 14.79633,6.65603 14.79811,7.3882z" fill="#ffffff" stroke="#0a0908" stroke-width="1.5" stroke-linecap="butt"/><path d="M284.2836,81.99777c-0.0062,0.39682 0.49042,2.35954 0.9364,5.50357c1.22318,8.62292 1.854,24.77451 -9.13133,31.51395c-0.18792,0.11528 -3.6475,6.45207 -8.09497,7.19433c-3.06783,0.512 -7.90979,5.46061 -13.16258,6.47759c-8.05331,1.55919 -16.49712,-0.78366 -16.49712,-0.78366c0,0 -10.30725,2.7018 -14.88712,2.89868c-8.1085,0.34857 -16.76066,-4.44079 -16.88056,-4.32666c-0.35124,0.33436 -2.08031,0.24337 -3.39704,-0.73493c-1.34436,-0.99881 -2.27647,-2.88723 -2.60144,-2.7157c-1.15406,0.6092 -6.03413,-1.9891 -9.41836,-9.34697c-2.03337,-4.42087 -0.46848,-9.93012 -0.70093,-10.61441c-7.05098,-20.75887 -1.963,-32.95459 7.47455,-44.14107c0.98203,-1.16403 1.58841,-7.27804 8.31879,-13.97268c8.004,-7.96148 15.5378,-4.93067 15.5378,-4.93067c0,0 6.72268,-7.87394 19.0864,-7.90405c9.03318,-0.022 17.08783,3.70759 21.1684,9.19888c0.40307,0.54242 3.02633,0.11282 4.91139,0.81052c6.48868,2.40158 17.7563,9.09527 17.33769,35.87328z" fill="#0a0907" stroke="none" stroke-width="0" stroke-linecap="butt"/><path d="M276.18687,105.79578c0.77494,6.29696 1.12516,17.2515 0.9422,18.56165c-1.93563,13.86099 -12.87024,23.06515 -32.29636,23.69141c-21.02173,0.6777 -37.26678,-11.98394 -37.80884,-28.79811c-0.54205,-16.81417 3.74643,-37.64488 29.92033,-40.1419c34.7368,-3.31393 38.34362,24.25361 38.60404,26.36961z" fill="#ffffff" stroke="#000000" stroke-width="1.5" stroke-linecap="butt"/><path d="M285.21319,79.21899c-0.00147,0.4054 0.52982,2.40423 1.02386,5.6103c1.35496,8.79315 3.21398,22.07965 -7.92481,29.09824c-0.95761,0.60339 -0.73657,1.71934 -1.50269,-0.34621c-0.83496,-2.25117 -2.54122,-5.36102 -3.50583,-8.24076c-1.36111,-4.06337 -1.87771,-7.65946 -1.87771,-7.65946c0,0 -4.35487,-2.19117 -6.18352,-3.45073c-1.93424,-1.33232 -5.79139,-6.45396 -5.79139,-6.45396c0,0 -10.51475,0.78329 -14.85731,0.58034c-3.38283,-0.15811 -9.24883,-1.05662 -9.24883,-1.05662c0,0 -4.59542,3.34761 -7.41108,4.69302c-3.09879,1.48068 -10.21039,3.18333 -10.21039,3.18333c0,0 -0.93227,6.30056 -2.49425,10.44827c-1.31764,3.49895 -3.15886,4.48583 -4.5046,8.76325c-1.06817,3.39517 0.00817,6.51546 -0.65655,9.22401c-0.77495,3.15768 -3.23022,5.66944 -3.64814,6.07692c-0.3547,0.34582 -2.12201,0.27406 -3.47901,-0.70914c-1.38545,-1.00382 -2.3607,-2.92139 -2.69054,-2.74218c-1.17139,0.63641 -6.18807,-1.95799 -9.735,-9.43246c-2.13115,-4.49095 -1.10001,-10.13045 -1.34581,-10.82659c-5.46385,-21.64721 0.09854,-33.17442 7.11657,-43.6807c0.98887,-1.20104 0.03362,-7.43216 6.82665,-14.35296c8.07847,-8.23041 17.78936,-6.75539 17.78936,-6.75539c0,0 6.77072,-8.12531 19.39961,-8.30736c9.22692,-0.13302 17.50022,3.57811 21.7356,9.13742c0.41837,0.54913 3.09271,0.07821 5.02678,0.76782c6.65742,2.37377 18.24894,9.07333 18.14902,36.43157z" fill="#0a0907" stroke="#000000" stroke-width="1" stroke-linecap="butt"/><path d="M244.65271,117.96357c0.02007,8.24042 -6.13715,14.12028 -14.80509,13.97833c-8.01422,-0.13125 -14.17413,-5.83146 -14.05808,-14.07109c0.13902,-9.87148 6.29903,-14.60989 14.3143,-14.62941c8.01527,-0.01952 14.52879,6.48175 14.54886,14.72217z" fill="#ffffff" stroke="#000000" stroke-width="1.5" stroke-linecap="butt"/><path d="M262.5378,101.72369c6.55403,-0.01596 11.61149,4.51203 11.76795,14.00013c0.13059,7.91964 -4.88155,13.42549 -11.43408,13.58639c-7.087,0.17401 -12.14713,-5.45119 -12.16643,-13.37216c-0.01929,-7.92097 5.27853,-14.19838 11.83256,-14.21434z" fill="#ffffff" stroke="#000000" stroke-width="1.5" stroke-linecap="butt"/><path d="M240.73927,117.98178c0.00611,2.50995 -1.38112,4.54809 -3.09846,4.55227c-1.71734,0.00418 -3.11449,-2.02716 -3.1206,-4.53712c-0.00611,-2.50995 1.38112,-4.54809 3.09846,-4.55227c1.71734,-0.00418 3.11449,2.02716 3.1206,4.53712z" fill="#000000" stroke="#000000" stroke-width="1.5" stroke-linecap="butt"/><path d="M257.28831,117.60312c0.00611,2.50995 -1.27402,4.54783 -2.85927,4.55169c-1.58524,0.00386 -2.8753,-2.02774 -2.88141,-4.5377c-0.00611,-2.50995 1.27402,-4.54783 2.85927,-4.55169c1.58524,-0.00386 2.8753,2.02773 2.88141,4.5377z" fill="#000000" stroke="#000000" stroke-width="1.5" stroke-linecap="butt"/><path d="M266.76001,139.05279c-41.71757,4.54607 -42.41679,0.26278 -42.41679,0.26278" fill="none" stroke="#000000" stroke-width="1.5" stroke-linecap="round"/><g stroke="#0a0908" stroke-linecap="butt"><path d="M261.39927,87.585c0.01355,0.23646 -0.46538,2.69165 -0.23037,5.11121c0.26849,2.76428 2.47257,5.78073 0.36918,7.40811c-5.3703,4.15497 -19.61753,2.62985 -23.96662,2.71125c-4.00489,0.07497 -3.39972,-3.76605 -3.20108,-7.54192c0.17551,-3.3362 -0.25621,-6.61614 -0.28835,-7.1773c-0.06851,-1.1963 5.99112,-2.28053 13.53457,-2.42174c7.54344,-0.14122 13.71417,0.71412 13.78267,1.91038z" fill="#ffbc6f" stroke-width="1.5"/><path d="M236.13277,89.89739c-0.04001,-0.76911 0.68797,-0.78528 0.68797,-0.78528l0.25007,-0.00327c6.22134,0.37134 7.61109,11.1048 0.98574,11.30356c0,0 -0.00332,0.00009 -0.00942,-0.00001c-0.10041,0.08366 -0.24063,0.14248 -0.43643,0.14681c-0.72797,0.01614 -0.768,-0.75299 -0.768,-0.75299l-0.01424,-0.27343c-0.15603,-2.99886 -0.19258,-5.99952 -0.33891,-8.99292c-0.17269,-0.09909 -0.33829,-0.28682 -0.35679,-0.64243zM238.2528,98.86154c4.10336,-0.3298 3.29119,-6.86952 -0.29337,-8.04329c0.1219,2.67816 0.16751,5.36066 0.29337,8.04329z" fill="#0a0908" stroke-width="0.5"/><path d="M246.82204,89.462c0.64986,-0.17161 0.81952,0.60315 0.81952,0.60315l0.09755,0.50644c0.06969,1.42144 0.13969,2.84284 0.20847,4.26428c-0.03248,1.36929 0.01203,3.58473 -0.91355,4.55411c-1.13192,1.18539 -2.78758,0.55788 -3.4745,-0.97334c-0.95701,-2.13327 -0.53038,-5.93321 -0.64602,-8.29229c0,0 -0.03888,-0.79336 0.63164,-0.80969c0.67051,-0.01633 0.70942,0.77702 0.70942,0.77702c0.10488,2.1395 -0.3162,5.69055 0.49285,7.63686c1.16907,2.81236 1.84417,-2.22278 1.85706,-2.92594c-0.06959,-1.39941 -0.13778,-2.79886 -0.20639,-4.1983l-0.05624,-0.19586c0,0 -0.16962,-0.77477 0.48025,-0.94635z" fill="#0a0908" stroke-width="0.5"/><path d="M249.36065,98.97964c-0.70928,0.01886 -0.75041,-0.87418 -0.75041,-0.87418l-0.00729,-0.15876c-0.12223,-2.79679 -0.12469,-5.48307 0.33428,-8.19238c0,0 0.12934,-0.76277 0.71936,-0.67805c0.443,-0.01056 0.62455,0.3353 0.69838,0.5951c0.54418,0.86332 0.90317,1.8453 1.31381,2.80536c0.2909,-1.06715 0.47557,-2.21575 0.73227,-3.28233c0,0 0.20373,-0.84575 0.88435,-0.5583c0.01532,0.00645 0.03015,0.01318 0.04459,0.02022c0.56664,-0.07879 0.74872,0.6616 0.74872,0.6616l0.09432,0.39634c0.45378,2.71913 0.72789,5.69001 0.32314,8.37193c0,0 -0.13212,0.87101 -0.83019,0.6727c-0.69808,-0.19826 -0.56598,-1.06926 -0.56598,-1.06926c0.22613,-1.48253 -0.07008,-3.07266 -0.07535,-4.65715c-0.12084,0.45979 -0.25701,0.90964 -0.4198,1.34128l-0.23579,0.35867c-0.04761,0.10364 -0.12073,0.20509 -0.22865,0.29784c-0.1664,0.14306 -0.31939,0.18282 -0.45284,0.16703c-0.13353,-0.0138 -0.2819,-0.087 -0.43511,-0.26549c-0.08556,-0.09967 -0.14503,-0.20004 -0.18465,-0.29829c-0.40235,-0.76015 -0.7023,-1.60798 -1.04527,-2.41101c-0.23966,1.87431 -0.09553,3.75045 -0.001,5.68654l0.0073,0.15874c0,0 0.04115,0.89308 -0.66813,0.91195z" fill="#0a0908" stroke-width="0.5"/><path d="M260.09687,97.57203c0.05887,0.84138 -0.53113,0.86332 -0.53113,0.86332l-0.21715,0.0056c-0.88688,0.13053 -3.33825,0.88227 -3.8322,-0.80456c-0.14095,-0.48139 0.21392,-0.94676 0.3199,-1.42067c0.19318,-0.86381 1.07027,-3.98381 1.83667,-5.18777c-0.68117,-0.00828 -1.3588,0.03007 -2.03935,0.05538c0,0 -0.58999,0.02197 -0.64888,-0.8194c-0.05887,-0.84138 0.53113,-0.86335 0.53113,-0.86335c0.94571,-0.03522 1.88167,-0.08349 2.83226,-0.01847l0.05419,0.04202l0.00318,-0.02641l0.57989,0.19854c0.26317,0.08153 0.47663,0.40547 0.50425,0.79989c0.02024,0.28938 -0.06433,0.54844 -0.20973,0.70566l-0.36359,0.40476c-0.52664,1.25661 -0.99024,2.54047 -1.48853,3.84955c-0.16463,0.4325 -0.28476,1.30647 -0.57446,1.6843c0.11603,-0.06156 0.24405,-0.11801 0.32031,-0.12746c0.65443,-0.08107 1.31223,-0.0489 1.96703,-0.14646l0.30731,-0.01392c0,0 0.58999,-0.02197 0.64888,0.8194z" fill="#0a0908" stroke-width="0.5"/></g><path d="M274.29089,226.64852c0.00257,1.05684 -4.08003,5.31907 -23.67367,5.79836c-24.23925,0.59294 -25.91851,-3.34503 -25.92109,-4.40186c-0.0021,-0.86379 4.51223,-15.51039 8.42298,-19.69831c1.75594,-1.88038 14.45834,-2.21848 16.96604,-2.22459c1.91854,-0.00467 12.78015,0.11832 14.55193,0.77309c2.97102,1.09795 9.65217,19.09183 9.65378,19.7533z" fill="#f2c07a" stroke-opacity="0.5098" stroke="#000000" stroke-width="1.5" stroke-linecap="butt"/><path d="M255.90772,140.59482c0,0 -3.4138,3.73547 -19.64808,2.99617c-9.58896,-0.43667 -12.16917,-3.04151 -12.16917,-3.04151" fill="#000000" stroke="#000000" stroke-width="1.5" stroke-linecap="round"/></g></g></svg>