<svg version="1.1" xmlns="http://www.w3.org/2000/svg" xmlns:xlink="http://www.w3.org/1999/xlink" width="132.25359" height="294.86715" viewBox="0,0,132.25359,294.86715"><g transform="translate(-94.56977,-106.41655)"><g stroke-miterlimit="10"><g stroke="#0a0908" stroke-width="1.5" stroke-linecap="butt"><path d="M208.36145,233.00471c-4.96721,-3.49653 -4.05722,-10.36224 -1.44553,-15.03802c2.6117,-4.67579 8.75563,-5.63178 13.72287,-2.13524c4.96723,3.49652 6.87677,10.12149 4.26509,14.79725c-2.61169,4.67577 -11.57513,5.87252 -16.54237,2.37599z" fill="#ffffff"/><path d="M163.3326,249.15418c-2.9231,-2.05763 -2.9847,-13.96891 8.73968,-21.92532c1.05551,-0.71628 14.81484,9.63125 15.8557,8.8736c9.04901,-6.58676 12.8492,-13.97294 14.69158,-15.83636c0.26651,-0.26954 0.53239,-0.53105 0.79776,-0.78429c0.44848,1.43607 0.95465,2.63946 1.56524,3.89275c0.42575,0.87388 0.10899,2.19124 0.68788,2.94661c1.62877,1.73197 3.73632,2.85705 5.62147,4.18404c1.86428,1.31232 3.81555,2.46331 5.68751,3.78098c1.33545,0.94005 2.87115,1.52329 4.28688,2.38391c-0.00798,0.01436 -0.01601,0.02873 -0.024,0.04307c-0.9024,1.6156 -4.31962,7.02072 -8.36448,11.86419c-4.55733,5.45711 -9.0327,8.81441 -15.30915,15.14572c-0.71847,0.72473 -7.00596,3.21548 -11.2941,2.03982c-10.63417,-2.91556 -22.94192,-16.60875 -22.94192,-16.60875z" fill="#ffd599"/><path d="M210.10635,232.08178c-4.26915,-3.94037 -7.91462,-9.93368 -7.37642,-10.89723c0.48519,-0.86861 2.23958,-3.50213 4.18919,-2.62786c1.52416,0.68349 4.71787,4.71595 7.71529,7.65925c2.08712,2.04943 5.97275,5.30701 6.20733,5.63c2.03542,2.8025 0.81697,4.13485 -0.0642,5.71249c-0.59039,1.05702 -5.98803,-1.15413 -10.6712,-5.47662z" fill="#f2c07a"/></g><path d="M169.42903,224.62635c-0.59411,5.7231 -10.73557,9.40577 -18.83285,9.11855c-2.72355,-0.09661 -15.9144,-0.66703 -17.81176,-1.65428c-3.74361,-1.9479 -5.7676,-5.36052 -5.63224,-9.17663c0.20397,-5.75025 8.42085,-10.12614 16.51815,-9.83892c8.09728,0.28722 26.72828,2.21141 25.75873,11.5513z" fill="#ffd599" stroke="#0a0908" stroke-width="1.5" stroke-linecap="butt"/><path d="M159.14791,320.62191c5.35409,-24.00345 23.69354,-22.69948 29.74873,-22.14599c2.18795,0.19999 2.93574,1.33783 2.70411,12.4406c-0.63765,30.56611 3.51997,48.78921 1.98657,79.32349c-0.3214,6.40017 -14.28558,7.34115 -21.76705,6.65732c-7.48148,-0.68385 -12.40278,-0.78743 -12.08137,-7.18761c0.00408,-0.08126 0.28334,-2.38652 0.27422,-2.95414c-0.12761,-7.95459 -2.04238,-60.85627 -0.86522,-66.13367z" fill="#382f25" stroke="#0a0908" stroke-width="1.5" stroke-linecap="butt"/><path d="M155.09325,388.13112c0.01394,6.21933 -9.46504,10.15025 -18.13053,10.19059c-8.66548,0.04035 -18.88005,-2.95725 -18.89399,-9.17657c-0.00765,-3.41882 2.93906,-64.38795 3.00971,-67.26147c0.38773,-15.76733 1.25577,-22.6309 4.5563,-22.64626c7.01347,-0.03263 26.54223,-0.04402 31.37859,23.62569c1.13921,5.57533 -1.92274,64.08238 -1.92008,65.26803z" fill="#382f25" stroke="#0a0908" stroke-width="1.5" stroke-linecap="butt"/><path d="M197.03602,391.33355c0.11644,4.81212 0.05721,8.09181 -6.71417,8.11922c-16.63988,0.06736 -27.15501,-0.93434 -27.2715,-5.74644c-0.06138,-2.53576 6.04138,-6.57349 10.15188,-8.57042c3.69003,-1.79266 9.62885,-4.25511 12.83134,-4.32445c0.21881,-0.00473 -0.02877,0.30084 0.18383,0.30935c6.36441,0.25487 10.70591,5.55619 10.8186,10.21278z" fill="#686664" stroke="#0a0908" stroke-width="1.5" stroke-linecap="butt"/><path d="M148.00771,400.529c-18.62895,0.04813 -29.9799,-2.79293 -30.1174,-7.9811c-0.07243,-2.73394 8.57394,-7.54171 13.17286,-9.68858c10.58537,-4.94146 24.10835,-1.47768 24.41194,9.98119c0,0 0.1134,7.66893 -7.46741,7.6885z" fill="#686664" stroke="#0a0908" stroke-width="1.5" stroke-linecap="butt"/><path d="M191.10917,306.7857c-0.35304,11.281 -14.25325,23.68008 -32.67637,23.10003c-18.42313,-0.58005 -36.81224,-16.98792 -36.55234,-31.0338c0.2088,-11.28402 18.08685,-14.12258 36.50996,-13.54253c18.42313,0.58005 33.0718,10.19532 32.71876,21.47632z" fill="#39322b" stroke="#0a0908" stroke-width="1.5" stroke-linecap="butt"/><path d="M190.28356,318.21296c-0.29637,9.46997 -15.62301,16.67188 -34.23304,16.08595c-18.61,-0.58594 -33.45614,-8.73785 -33.15976,-18.20783c0.12895,-4.12003 -0.18354,-16.00292 4.66791,-18.80982c6.29969,-3.6448 19.05162,2.39281 29.56514,2.72383c13.39888,0.42187 26.11391,-7.42603 31.36384,-1.49198c2.0418,2.30786 1.87891,17.04806 1.79592,19.69981z" fill="#382f25" stroke="none" stroke-width="0" stroke-linecap="butt"/><path d="M154.18027,335.02919l10.34574,-0.85799" fill="none" stroke="#0a0908" stroke-width="1.5" stroke-linecap="round"/><path d="M191.22245,305.2901c-0.26884,5.86546 -15.30391,10.55671 -35.22482,9.60302c-19.92091,-0.95368 -36.55468,-5.23484 -36.07627,-15.67231c0.16574,-3.61624 1.19318,-35.12758 10.01689,-58.87081c2.32575,-6.25824 4.01646,-11.63279 7.10935,-15.50485c4.20552,-5.26501 11.11424,-7.71609 18.10479,-7.99313c4.40389,-0.17452 13.52241,4.17697 18.06216,10.25007c8.37985,11.21021 8.90193,38.33939 8.90193,38.33939c0,0 9.22381,37.15875 9.12471,39.32058z" fill="#ffd599" stroke="#0a0908" stroke-width="1.5" stroke-linecap="butt"/><path d="M192.74617,310.90165c-0.05489,1.02194 -0.78302,1.36008 -1.4374,1.72414c-11.29615,6.28474 -40.7685,5.67991 -56.28592,2.44102c-8.37012,-1.74706 -13.11853,-3.95797 -14.74897,-5.87204c-1.45258,-1.70529 0.10376,-4.0628 0.11683,-4.30594c0.03378,-0.6286 7.12707,5.50468 44.90759,5.91928c15.85471,0.174 26.48646,-4.79703 26.77505,-4.9078c1.4879,-0.57119 0.7277,3.9794 0.67282,5.00131z" fill="#f2c07a" stroke="#0a0908" stroke-width="1.5" stroke-linecap="butt"/><g stroke="#0a0908" stroke-width="1.5" stroke-linecap="butt"><path d="M121.51578,310.71323c-1.06963,5.64173 -7.76848,8.70665 -14.96226,6.84571c-7.1938,-1.86094 -12.15842,-7.94305 -11.08878,-13.58478c1.06963,-5.64173 10.92507,-9.91202 18.11888,-8.05108c7.1938,1.86094 9.00181,9.14841 7.93218,14.79012z" fill="#ffffff"/><path d="M125.52103,306.91249c-0.19557,0.36471 -0.39383,0.7211 -0.59489,1.06884c-1.1161,-1.30664 -2.2019,-2.35711 -3.42912,-3.42275c-0.8557,-0.74301 -1.03844,-2.18973 -2.02168,-2.76016c-2.60268,-1.20517 -5.50563,-1.63047 -8.23583,-2.33676c-2.69996,-0.69843 -5.43321,-1.20331 -8.14429,-1.90463c-1.93402,-0.50032 -3.95084,-0.5698 -5.94457,-0.96205c0.00324,-0.0173 0.00646,-0.03463 0.00975,-0.05194c0.36958,-1.94935 2.06598,-8.60675 4.72125,-14.90719c9.41564,-22.34152 29.78965,-60.63918 38.92835,-58.27509c7.92787,2.05084 -12.05371,77.51859 -15.28904,83.55171z" fill="#ffd599"/><path d="M125.01107,306.01667c-0.1987,1.0481 -1.12854,4.32218 -3.74464,4.09797c-2.0452,-0.17527 -7.41358,-3.18519 -12.10163,-5.15506c-3.2643,-1.37163 -9.10923,-3.35828 -9.51472,-3.60659c-3.5182,-2.15456 -2.66561,-3.92379 -2.30471,-5.8273c0.24181,-1.27536 7.39746,-0.86737 14.60711,1.92979c6.57226,2.54987 13.27905,7.39856 13.05863,8.56119z" fill="#f2c07a"/></g><path d="M148.01376,235.08438c0.13644,7.42781 -4.62526,13.93249 -7.42503,13.98392c-2.79978,0.05142 -4.69016,-6.33106 -4.82661,-13.75888c-0.07524,-4.0968 0.80362,-7.38943 1.84733,-9.87621c0.84862,-2.02194 3.83227,-3.68187 5.08783,-3.70493c2.79978,-0.05142 5.18003,5.92831 5.31646,13.35611z" fill="#ffd599" stroke="none" stroke-width="0" stroke-linecap="butt"/><path d="M181.55624,238.95432c2.56134,4.97715 4.12791,11.81729 2.67143,12.6567c-1.45649,0.83944 -5.04904,-3.57728 -7.61038,-8.55445c-2.56135,-4.97715 -5.28639,-14.22209 -3.82989,-15.06151c1.45649,-0.83944 6.2075,5.98209 8.76885,10.95925z" fill="#ffd599" stroke="none" stroke-width="0" stroke-linecap="butt"/><path d="M172.63551,225.61169c-0.28216,3.39887 -5.42085,7.78197 -14.08754,7.07424c-9.93969,-0.81168 -16.90567,-6.93384 -16.6235,-10.3327c0.28216,-3.39887 7.5328,-5.53295 16.19479,-4.76657c8.662,0.76636 14.7984,4.62617 14.51623,8.02504z" fill="#f2c07a" stroke="#0a0908" stroke-width="1.5" stroke-linecap="butt"/><path d="M169.26594,242.14636c0.31725,1.61193 0.84157,3.71827 -0.74921,5.05679c-2.42943,2.04422 -2.88478,-6.43611 -2.49502,-8.71752c0.1333,-0.78027 -1.64436,-9.00186 -0.33695,-10.12878c0.25888,-0.65155 2.64176,-0.9305 2.63739,0.28454c-0.00055,0.15489 0.09255,1.1049 0.0716,1.25096c0.83986,2.296 0.70672,11.41338 0.87217,12.254z" fill="#969696" stroke="#434242" stroke-width="1" stroke-linecap="butt"/><path d="M159.90833,240.23338c-0.25663,1.00004 -0.96985,3.41231 -0.8862,4.3671c0.16037,1.8309 1.02709,5.61238 -0.93203,6.92158c-2.99199,1.99937 -2.46627,-7.4946 -1.74682,-9.9904c0.24608,-0.8536 0.37767,-1.60653 0.58106,-2.54701c0.31452,-1.45424 -1.33314,-7.66309 0.28031,-8.76894c0.37198,-0.69597 3.09507,-0.73521 2.94121,0.61715c-0.01961,0.17238 -0.03101,1.24072 -0.07254,1.401c0.66625,2.65204 0.31483,6.1299 -0.16496,7.99951z" fill="#969696" stroke="#434242" stroke-width="1" stroke-linecap="butt"/><path d="M166.65028,224.26835c-0.02596,0.73173 -2.85948,3.82528 -7.99285,3.6432c-5.13335,-0.1821 -10.62266,-3.57085 -10.59671,-4.3026c0.02596,-0.73173 -1.0214,-6.94756 4.08196,-7.2841c18.31271,-1.20765 14.53356,7.21179 14.5076,7.9435z" fill="#ffffff" stroke="#0a0908" stroke-width="1.5" stroke-linecap="butt"/><path d="M202.44226,157.67122c-0.02123,0.3963 0.40068,2.37642 0.72724,5.5351c0.89564,8.66307 0.91412,24.82696 -10.31863,31.14541c-0.19216,0.10808 -3.88931,6.30925 -8.36171,6.8825c-3.08503,0.39541 -8.11099,5.15704 -13.39853,5.97429c-8.1066,1.25298 -16.45559,-1.40807 -16.45559,-1.40807c0,0 -10.40221,2.30939 -14.98624,2.33262c-8.11589,0.04115 -16.5804,-5.07255 -16.70454,-4.96304c-0.36366,0.32081 -2.08804,0.16439 -3.36676,-0.8631c-1.30556,-1.04902 -2.16546,-2.9714 -2.4967,-2.8123c-1.17632,0.56504 -5.95444,-2.21627 -9.0575,-9.69706c-1.86443,-4.49472 -0.09195,-9.94074 -0.29832,-10.63334c-6.2595,-21.01108 -0.71316,-33.0053 9.14141,-43.82622c1.02542,-1.12599 1.86299,-7.21264 8.84216,-13.64751c8.29986,-7.65254 15.71343,-4.33851 15.71343,-4.33851c0,0 7.01614,-7.61361 19.37214,-7.17531c9.02752,0.32022 16.93511,4.35227 20.80472,9.99421c0.38223,0.5573 3.01988,0.22738 4.87716,0.996c6.39305,2.64566 17.399,9.76142 15.96623,36.50434z" fill="#0a0907" stroke="none" stroke-width="0" stroke-linecap="butt"/><path d="M193.4498,181.14542c0.53584,6.3218 0.4708,17.28173 0.23834,18.58402c-2.45935,13.77772 -13.73479,22.56102 -33.17069,22.4509c-21.03231,-0.11916 -36.78603,-13.38713 -36.69072,-30.20977c0.09532,-16.82263 5.16986,-37.47593 31.41957,-38.97959c34.83741,-1.99559 37.39728,25.68879 37.57735,27.81314z" fill="#ffffff" stroke="#000000" stroke-width="1.5" stroke-linecap="butt"/><path d="M203.47645,154.92966c-0.01682,0.40506 0.43836,2.42258 0.81059,5.64506c1.02087,8.83817 2.37522,22.18556 -9.02147,28.77713c-0.97978,0.56668 -0.80118,1.69021 -1.48849,-0.40289c-0.74909,-2.28118 -2.33631,-5.45344 -3.19112,-8.36766c-1.20619,-4.11202 -1.58619,-7.72509 -1.58619,-7.72509c0,0 -4.26873,-2.35457 -6.04836,-3.6825c-1.88237,-1.40464 -5.54274,-6.66872 -5.54274,-6.66872c0,0 -10.53688,0.38439 -14.86863,0.01707c-3.3744,-0.28615 -9.20216,-1.40623 -9.20216,-1.40623c0,0 -4.71894,3.17111 -7.58355,4.4089c-3.15266,1.36222 -10.32365,2.79424 -10.32365,2.79424c0,0 -1.17029,6.26073 -2.88828,10.34629c-1.44924,3.44652 -3.32653,4.36294 -4.83335,8.58631c-1.19602,3.35226 -0.23867,6.51109 -1.00551,9.19251c-0.89401,3.12606 -3.44268,5.543 -3.87573,5.93436c-0.36754,0.33214 -2.13087,0.19347 -3.44965,-0.84042c-1.34643,-1.05558 -2.24833,-3.00873 -2.58472,-2.84214c-1.19466,0.59158 -6.10945,-2.19101 -9.37067,-9.79448c-1.95948,-4.56846 -0.71544,-10.16485 -0.9347,-10.86979c-4.63986,-21.83866 1.35523,-33.14688 8.76624,-43.37975c1.03366,-1.16271 0.31515,-7.42556 7.36548,-14.08404c8.38447,-7.91846 18.0325,-6.07662 18.0325,-6.07662c0,0 7.07367,-7.86298 19.70039,-7.56647c9.22534,0.21662 17.35211,4.23851 21.37384,9.95428c0.39726,0.56459 3.08753,0.19532 4.99409,0.9577c6.56271,2.62428 17.89212,9.75815 16.75583,37.09297z" fill="#0a0907" stroke="#000000" stroke-width="1" stroke-linecap="butt"/><path d="M161.47731,192.10985c-0.29212,8.23526 -6.66768,13.87764 -15.32401,13.40743c-8.00349,-0.43477 -13.94303,-6.36424 -13.51493,-14.59356c0.51289,-9.85912 6.84798,-14.36078 14.85823,-14.07663c8.01025,0.28414 14.2728,7.0275 13.98068,15.26276z" fill="#ffffff" stroke="#000000" stroke-width="1.5" stroke-linecap="butt"/><path d="M179.96478,176.55918c6.54993,0.23234 11.43222,4.94868 11.22913,14.43589c-0.16952,7.9189 -5.38665,13.23092 -11.94057,13.14348c-7.0885,-0.09459 -11.93189,-5.90745 -11.65111,-13.82347c0.2808,-7.91602 5.81262,-13.98822 12.36256,-13.75587z" fill="#ffffff" stroke="#000000" stroke-width="1.5" stroke-linecap="butt"/><path d="M156.90923,192.52952c-0.08898,2.50838 -1.55242,4.49251 -3.26869,4.43162c-1.71626,-0.06088 -3.03546,-2.14369 -2.94649,-4.65209c0.08898,-2.50838 1.55242,-4.49251 3.26869,-4.43162c1.71626,0.06088 3.03546,2.14369 2.94649,4.65209z" fill="#000000" stroke="#000000" stroke-width="1.5" stroke-linecap="butt"/><path d="M174.20519,192.64524c-0.08898,2.50838 -1.44539,4.4963 -3.02964,4.4401c-1.58425,-0.0562 -2.79642,-2.13521 -2.70744,-4.6436c0.08898,-2.50838 1.44539,-4.4963 3.02964,-4.4401c1.58425,0.0562 2.79642,2.1352 2.70744,4.6436z" fill="#000000" stroke="#000000" stroke-width="1.5" stroke-linecap="butt"/><g stroke="#0a0908" stroke-linecap="butt"><path d="M179.3627,162.38751c0.00458,0.23681 -0.56701,2.67209 -0.42384,5.09882c0.16358,2.77246 2.2518,5.87026 0.08827,7.41677c-5.52385,3.94854 -19.70308,1.88479 -24.05213,1.80136c-4.00485,-0.07681 -3.25462,-3.89214 -2.91307,-7.65778c0.30177,-3.32716 -0.00538,-6.6211 -0.01624,-7.18307c-0.02314,-1.19804 6.07322,-2.05193 13.61659,-1.90727c7.54338,0.14466 13.67727,1.23316 13.7004,2.43115z" fill="#ffbc6f" stroke-width="1.5"/><path d="M154.02673,163.74105c-0.01084,-0.77008 0.71723,-0.75866 0.71723,-0.75866l0.25001,0.0062c6.20281,0.60676 7.18494,11.38517 0.55681,11.33279c0,0 -0.00332,-0.00003 -0.00942,-0.00037c-0.10351,0.0798 -0.24586,0.13327 -0.44168,0.13017c-0.72806,-0.01145 -0.73893,-0.78154 -0.73893,-0.78154l-0.00388,-0.27377c-0.04231,-3.00262 0.03484,-6.00251 0.00202,-8.9993c-0.16882,-0.10555 -0.32718,-0.29943 -0.33219,-0.65549zM155.80564,172.77907c4.11291,-0.17412 3.54906,-6.73991 0.01155,-8.04864c0.02036,2.68085 -0.0357,5.36316 -0.01155,8.04864z" fill="#0a0908" stroke-width="0.5"/><path d="M164.72482,163.71093c0.65589,-0.14687 0.79608,0.63377 0.79608,0.63377l0.0783,0.50977c0.01579,1.42306 0.03189,2.84609 0.04677,4.26911c-0.08433,1.36707 -0.12378,3.58261 -1.08542,4.51623c-1.17602,1.14166 -2.80672,0.45187 -3.43513,-1.10426c-0.87551,-2.168 -0.30524,-5.94905 -0.33142,-8.31081c0,0 -0.0088,-0.79426 0.66186,-0.78518c0.67065,0.00908 0.67947,0.80334 0.67947,0.80334c0.02375,2.14194 -0.53155,5.67449 0.20319,7.65004c1.0617,2.85463 1.92706,-2.15132 1.96657,-2.85349c-0.01653,-1.40104 -0.03165,-2.80207 -0.0472,-4.20311l-0.04878,-0.19785c0,0 -0.14015,-0.78064 0.51576,-0.92747z" fill="#0a0908" stroke-width="0.5"/><path d="M166.90105,173.3179c-0.70948,-0.00803 -0.71675,-0.90198 -0.71675,-0.90198l-0.00127,-0.15892c-0.0162,-2.79941 0.08312,-5.48386 0.6444,-8.17383c0,0 0.15814,-0.75732 0.74453,-0.65031c0.44308,0.00623 0.61139,0.35872 0.67533,0.62113c0.51108,0.88332 0.83261,1.87819 1.20659,2.85312c0.33111,-1.05537 0.55917,-2.19614 0.85609,-3.25223c0,0 0.23561,-0.83743 0.90487,-0.5244c0.01506,0.00703 0.02963,0.01432 0.04379,0.02189c0.56922,-0.05726 0.72312,0.68949 0.72312,0.68949l0.07924,0.39963c0.35045,2.73437 0.51182,5.7135 0.00575,8.37816c0,0 -0.16502,0.86538 -0.85508,0.64077c-0.69007,-0.22456 -0.52507,-1.08994 -0.52507,-1.08994c0.28213,-1.4729 0.04638,-3.0731 0.10112,-4.65666c-0.13817,0.45488 -0.29129,0.89925 -0.47031,1.32441l-0.24921,0.34948c-0.0515,0.10176 -0.12842,0.20036 -0.23977,0.28896c-0.1717,0.13665 -0.32609,0.17059 -0.45885,0.14975c-0.13291,-0.01885 -0.2784,-0.09761 -0.42474,-0.28179c-0.08173,-0.10284 -0.13734,-0.20539 -0.17321,-0.30508c-0.37326,-0.77485 -0.64088,-1.63344 -0.95318,-2.44888c-0.3105,1.86388 -0.23754,3.74414 -0.21642,5.68242l0.00129,0.1589c0,0 0.00728,0.89399 -0.7022,0.88598z" fill="#0a0908" stroke-width="0.5"/><path d="M177.68289,172.31802c0.02696,0.84301 -0.56345,0.84258 -0.56345,0.84258l-0.2172,-0.00263c-0.8912,0.09684 -3.36928,0.75517 -3.79897,-0.94916c-0.12261,-0.48638 0.24964,-0.93797 0.37348,-1.40753c0.22576,-0.85587 1.22042,-3.9404 2.03188,-5.11447c-0.68036,-0.03408 -1.35897,-0.02143 -2.03998,-0.02191c0,0 -0.5904,-0.00039 -0.61737,-0.84339c-0.02696,-0.84301 0.56346,-0.84261 0.56346,-0.84261c0.94636,0.00063 1.88348,-0.01215 2.83092,0.08884l0.05255,0.04404l0.00417,-0.02627l0.57195,0.22036c0.25988,0.09144 0.46092,0.42323 0.47359,0.81842c0.00926,0.28994 -0.08506,0.54561 -0.23631,0.69721l-0.37866,0.39069c-0.57386,1.23577 -1.08577,2.50114 -1.6333,3.7904c-0.1809,0.42595 -0.33405,1.29474 -0.63786,1.66133c0.11828,-0.05713 0.24834,-0.10868 0.32491,-0.11524c0.65703,-0.05622 1.31315,0.00085 1.97116,-0.07184l0.30761,-0.00227c0,0 0.5904,0.00039 0.61737,0.84339z" fill="#0a0908" stroke-width="0.5"/></g><path d="M188.46389,301.52716c-0.03747,1.05618 -4.27861,5.16069 -23.87634,4.89736c-24.24431,-0.32575 -25.77318,-4.32451 -25.73573,-5.38068c0.03062,-0.86325 5.09659,-15.32832 9.16318,-19.36509c1.82592,-1.81251 14.53201,-1.66916 17.03814,-1.58027c1.91734,0.06801 12.76649,0.60239 14.5122,1.32381c2.9273,1.20972 8.92198,19.44379 8.89853,20.10484z" fill="#f2c07a" stroke-opacity="0.5098" stroke="#000000" stroke-width="1.5" stroke-linecap="butt"/><path d="M178.81313,215.80607c0,0 -6.90799,4.23394 -24.28184,2.70398c-10.26207,-0.9037 -9.829,-4.08031 -9.829,-4.08031" fill="#000000" stroke="#000000" stroke-width="1.5" stroke-linecap="round"/></g></g></svg>